{
.appVersion = "1075";
DisplayStrings = (

glyphs = (
{
glyphname = A;
lastChange = "2017-11-26 07:35:25 +0000";
layers = (
{
anchors = (
{
name = mark0;
position = "{377, 0}";
},
{
name = mark1;
position = "{706, 10}";
},
{
name = mark2;
position = "{376, 705}";
},
{
name = mark3;
position = "{0, 0}";
},
{
name = mark4;
position = "{0, 0}";
}
);
layerId = UUID0;
paths = (
{
closed = 1;
nodes = (
"607 0 LINE",
"766 0 LINE",
"441 705 LINE",
"312 705 LINE",
"-13 0 LINE",
"149 0 LINE",
"215 154 LINE",
"541 154 LINE"
);
},
{
closed = 1;
nodes = (
"268 276 LINE",
"378 533 LINE",
"488 276 LINE"
);
}
);
width = 753;
}
);
leftKerningGroup = A;
rightKerningGroup = A;
unicode = 0041;
},
{
glyphname = Aacute;
lastChange = "2017-11-26 07:35:25 +0000";
layers = (
{
anchors = (
{
name = mark0;
position = "{377, 0}";
},
{
name = mark1;
position = "{706, 10}";
},
{
name = mark2;
position = "{376, 865}";
},
{
name = mark3;
position = "{0, 0}";
},
{
name = mark4;
position = "{0, 0}";
}
);
layerId = UUID0;
paths = (
{
closed = 1;
nodes = (
"574 921 LINE",
"431 921 LINE",
"328 765 LINE",
"424 765 LINE"
);
},
{
closed = 1;
nodes = (
"607 0 LINE",
"766 0 LINE",
"441 705 LINE",
"312 705 LINE",
"-13 0 LINE",
"149 0 LINE",
"215 154 LINE",
"541 154 LINE"
);
},
{
closed = 1;
nodes = (
"268 276 LINE",
"378 533 LINE",
"488 276 LINE"
);
}
);
width = 753;
}
);
leftKerningGroup = A;
rightKerningGroup = A;
unicode = 00C1;
},
{
glyphname = Abreve;
lastChange = "2017-11-26 07:35:25 +0000";
layers = (
{
anchors = (
{
name = mark0;
position = "{377, 0}";
},
{
name = mark1;
position = "{706, 10}";
},
{
name = mark2;
position = "{376, 865}";
},
{
name = mark3;
position = "{0, 0}";
},
{
name = mark4;
position = "{0, 0}";
}
);
layerId = UUID0;
paths = (
{
closed = 1;
nodes = (
"462 774 OFFCURVE",
"529 811 OFFCURVE",
"555 883 CURVE",
"484 913 LINE",
"461 877 OFFCURVE",
"420 865 OFFCURVE",
"376 865 CURVE SMOOTH",
"332 865 OFFCURVE",
"291 877 OFFCURVE",
"268 913 CURVE",
"197 883 LINE",
"223 811 OFFCURVE",
"290 774 OFFCURVE",
"376 774 CURVE SMOOTH"
);
},
{
closed = 1;
nodes = (
"607 0 LINE",
"766 0 LINE",
"441 705 LINE",
"312 705 LINE",
"-13 0 LINE",
"149 0 LINE",
"215 154 LINE",
"541 154 LINE"
);
},
{
closed = 1;
nodes = (
"268 276 LINE",
"378 533 LINE",
"488 276 LINE"
);
}
);
width = 753;
}
);
leftKerningGroup = A;
rightKerningGroup = A;
unicode = 0102;
},
{
glyphname = Abreveacute;
lastChange = "2017-11-26 07:35:25 +0000";
layers = (
{
anchors = (
{
name = mark0;
position = "{377, 0}";
},
{
name = mark1;
position = "{706, 10}";
},
{
name = mark2;
position = "{376, 865}";
},
{
name = mark3;
position = "{0, 0}";
},
{
name = mark4;
position = "{0, 0}";
}
);
layerId = UUID0;
paths = (
{
closed = 1;
nodes = (
"564 1013 LINE",
"431 1013 LINE",
"331 872 LINE",
"421 872 LINE"
);
},
{
closed = 1;
nodes = (
"462 760 OFFCURVE",
"529 797 OFFCURVE",
"555 869 CURVE",
"500 892 LINE",
"477 856 OFFCURVE",
"424 838 OFFCURVE",
"376 838 CURVE SMOOTH",
"328 838 OFFCURVE",
"275 856 OFFCURVE",
"252 892 CURVE",
"197 869 LINE",
"223 797 OFFCURVE",
"290 760 OFFCURVE",
"376 760 CURVE SMOOTH"
);
},
{
closed = 1;
nodes = (
"607 0 LINE",
"766 0 LINE",
"441 705 LINE",
"312 705 LINE",
"-13 0 LINE",
"149 0 LINE",
"215 154 LINE",
"541 154 LINE"
);
},
{
closed = 1;
nodes = (
"268 276 LINE",
"378 533 LINE",
"488 276 LINE"
);
}
);
width = 753;
}
);
leftKerningGroup = A;
rightKerningGroup = A;
unicode = 1EAE;
},
{
glyphname = Abrevedotbelow;
lastChange = "2017-11-26 07:35:25 +0000";
layers = (
{
anchors = (
{
name = mark0;
position = "{377, -170}";
},
{
name = mark1;
position = "{706, 10}";
},
{
name = mark2;
position = "{376, 865}";
},
{
name = mark3;
position = "{0, 0}";
},
{
name = mark4;
position = "{0, 0}";
}
);
layerId = UUID0;
paths = (
{
closed = 1;
nodes = (
"462 774 OFFCURVE",
"529 811 OFFCURVE",
"555 883 CURVE",
"484 913 LINE",
"461 877 OFFCURVE",
"420 865 OFFCURVE",
"376 865 CURVE SMOOTH",
"332 865 OFFCURVE",
"291 877 OFFCURVE",
"268 913 CURVE",
"197 883 LINE",
"223 811 OFFCURVE",
"290 774 OFFCURVE",
"376 774 CURVE SMOOTH"
);
},
{
closed = 1;
nodes = (
"766 0 LINE",
"441 705 LINE",
"312 705 LINE",
"-13 0 LINE",
"149 0 LINE",
"215 154 LINE",
"541 154 LINE",
"607 0 LINE"
);
},
{
closed = 1;
nodes = (
"268 276 LINE",
"378 533 LINE",
"488 276 LINE"
);
},
{
closed = 1;
nodes = (
"306 -200 LINE",
"448 -200 LINE",
"448 -65 LINE",
"306 -65 LINE"
);
}
);
width = 753;
}
);
leftKerningGroup = A;
rightKerningGroup = A;
unicode = 1EB6;
},
{
glyphname = Abrevegrave;
lastChange = "2017-11-26 07:35:25 +0000";
layers = (
{
anchors = (
{
name = mark0;
position = "{377, 0}";
},
{
name = mark1;
position = "{706, 10}";
},
{
name = mark2;
position = "{376, 865}";
},
{
name = mark3;
position = "{0, 0}";
},
{
name = mark4;
position = "{0, 0}";
}
);
layerId = UUID0;
paths = (
{
closed = 1;
nodes = (
"421 872 LINE",
"321 1013 LINE",
"188 1013 LINE",
"331 872 LINE"
);
},
{
closed = 1;
nodes = (
"197 869 LINE",
"223 797 OFFCURVE",
"290 760 OFFCURVE",
"376 760 CURVE SMOOTH",
"462 760 OFFCURVE",
"529 797 OFFCURVE",
"555 869 CURVE",
"500 892 LINE",
"477 856 OFFCURVE",
"424 838 OFFCURVE",
"376 838 CURVE SMOOTH",
"328 838 OFFCURVE",
"275 856 OFFCURVE",
"252 892 CURVE"
);
},
{
closed = 1;
nodes = (
"607 0 LINE",
"766 0 LINE",
"441 705 LINE",
"312 705 LINE",
"-13 0 LINE",
"149 0 LINE",
"215 154 LINE",
"541 154 LINE"
);
},
{
closed = 1;
nodes = (
"268 276 LINE",
"378 533 LINE",
"488 276 LINE"
);
}
);
width = 753;
}
);
leftKerningGroup = A;
rightKerningGroup = A;
unicode = 1EB0;
},
{
glyphname = Abrevehookabove;
lastChange = "2017-11-26 07:35:25 +0000";
layers = (
{
anchors = (
{
name = mark0;
position = "{377, 0}";
},
{
name = mark1;
position = "{706, 10}";
},
{
name = mark2;
position = "{376, 865}";
},
{
name = mark3;
position = "{0, 0}";
},
{
name = mark4;
position = "{0, 0}";
}
);
layerId = UUID0;
paths = (
{
closed = 1;
nodes = (
"395 961 OFFCURVE",
"403 954 OFFCURVE",
"403 948 CURVE SMOOTH",
"403 937 OFFCURVE",
"338 936 OFFCURVE",
"338 893 CURVE SMOOTH",
"338 873 LINE",
"414 873 LINE",
"414 881 LINE SMOOTH",
"414 915 OFFCURVE",
"497 907 OFFCURVE",
"497 959 CURVE SMOOTH",
"497 994 OFFCURVE",
"456 1019 OFFCURVE",
"390 1019 CURVE SMOOTH",
"349 1019 OFFCURVE",
"319 1011 OFFCURVE",
"294 1001 CURVE",
"314 950 LINE",
"337 958 OFFCURVE",
"357 961 OFFCURVE",
"371 961 CURVE SMOOTH"
);
},
{
closed = 1;
nodes = (
"462 760 OFFCURVE",
"529 797 OFFCURVE",
"555 869 CURVE",
"500 892 LINE",
"477 856 OFFCURVE",
"424 838 OFFCURVE",
"376 838 CURVE SMOOTH",
"328 838 OFFCURVE",
"275 856 OFFCURVE",
"252 892 CURVE",
"197 869 LINE",
"223 797 OFFCURVE",
"290 760 OFFCURVE",
"376 760 CURVE SMOOTH"
);
},
{
closed = 1;
nodes = (
"607 0 LINE",
"766 0 LINE",
"441 705 LINE",
"312 705 LINE",
"-13 0 LINE",
"149 0 LINE",
"215 154 LINE",
"541 154 LINE"
);
},
{
closed = 1;
nodes = (
"268 276 LINE",
"378 533 LINE",
"488 276 LINE"
);
}
);
width = 753;
}
);
leftKerningGroup = A;
rightKerningGroup = A;
unicode = 1EB2;
},
{
glyphname = Abrevetilde;
lastChange = "2017-11-26 07:35:25 +0000";
layers = (
{
anchors = (
{
name = mark0;
position = "{377, 0}";
},
{
name = mark1;
position = "{706, 10}";
},
{
name = mark2;
position = "{376, 865}";
},
{
name = mark3;
position = "{0, 0}";
},
{
name = mark4;
position = "{0, 0}";
}
);
layerId = UUID0;
paths = (
{
closed = 1;
nodes = (
"347 942 OFFCURVE",
"390 910 OFFCURVE",
"441 910 CURVE SMOOTH",
"501 910 OFFCURVE",
"551 955 OFFCURVE",
"551 1015 CURVE",
"485 1015 LINE",
"482 994 OFFCURVE",
"467 986 OFFCURVE",
"443 986 CURVE SMOOTH",
"405 986 OFFCURVE",
"362 1018 OFFCURVE",
"311 1018 CURVE SMOOTH",
"251 1018 OFFCURVE",
"201 973 OFFCURVE",
"201 913 CURVE",
"267 913 LINE",
"270 934 OFFCURVE",
"285 942 OFFCURVE",
"309 942 CURVE SMOOTH"
);
},
{
closed = 1;
nodes = (
"462 760 OFFCURVE",
"529 797 OFFCURVE",
"555 869 CURVE",
"500 892 LINE",
"477 856 OFFCURVE",
"424 838 OFFCURVE",
"376 838 CURVE SMOOTH",
"328 838 OFFCURVE",
"275 856 OFFCURVE",
"252 892 CURVE",
"197 869 LINE",
"223 797 OFFCURVE",
"290 760 OFFCURVE",
"376 760 CURVE SMOOTH"
);
},
{
closed = 1;
nodes = (
"607 0 LINE",
"766 0 LINE",
"441 705 LINE",
"312 705 LINE",
"-13 0 LINE",
"149 0 LINE",
"215 154 LINE",
"541 154 LINE"
);
},
{
closed = 1;
nodes = (
"268 276 LINE",
"378 533 LINE",
"488 276 LINE"
);
}
);
width = 753;
}
);
leftKerningGroup = A;
rightKerningGroup = A;
unicode = 1EB4;
},
{
glyphname = Acircumflex;
lastChange = "2017-11-26 07:35:25 +0000";
layers = (
{
anchors = (
{
name = mark0;
position = "{377, 0}";
},
{
name = mark1;
position = "{706, 10}";
},
{
name = mark2;
position = "{376, 865}";
},
{
name = mark3;
position = "{0, 0}";
},
{
name = mark4;
position = "{0, 0}";
}
);
layerId = UUID0;
paths = (
{
closed = 1;
nodes = (
"376 849 LINE",
"437 765 LINE",
"553 765 LINE",
"420 921 LINE",
"332 921 LINE",
"199 765 LINE",
"315 765 LINE"
);
},
{
closed = 1;
nodes = (
"607 0 LINE",
"766 0 LINE",
"441 705 LINE",
"312 705 LINE",
"-13 0 LINE",
"149 0 LINE",
"215 154 LINE",
"541 154 LINE"
);
},
{
closed = 1;
nodes = (
"268 276 LINE",
"378 533 LINE",
"488 276 LINE"
);
}
);
width = 753;
}
);
leftKerningGroup = A;
rightKerningGroup = A;
unicode = 00C2;
},
{
glyphname = Acircumflexacute;
lastChange = "2017-11-26 07:35:25 +0000";
layers = (
{
anchors = (
{
name = mark0;
position = "{377, 0}";
},
{
name = mark1;
position = "{706, 10}";
},
{
name = mark2;
position = "{376, 865}";
},
{
name = mark3;
position = "{0, 0}";
},
{
name = mark4;
position = "{0, 0}";
}
);
layerId = UUID0;
paths = (
{
closed = 1;
nodes = (
"669 1013 LINE",
"541 1013 LINE",
"471 872 LINE",
"546 872 LINE"
);
},
{
closed = 1;
nodes = (
"376 834 LINE",
"439 765 LINE",
"553 765 LINE",
"420 903 LINE",
"332 903 LINE",
"199 765 LINE",
"313 765 LINE"
);
},
{
closed = 1;
nodes = (
"607 0 LINE",
"766 0 LINE",
"441 705 LINE",
"312 705 LINE",
"-13 0 LINE",
"149 0 LINE",
"215 154 LINE",
"541 154 LINE"
);
},
{
closed = 1;
nodes = (
"268 276 LINE",
"378 533 LINE",
"488 276 LINE"
);
}
);
width = 753;
}
);
leftKerningGroup = A;
rightKerningGroup = A;
unicode = 1EA4;
},
{
glyphname = Acircumflexdotbelow;
lastChange = "2017-11-26 07:35:25 +0000";
layers = (
{
anchors = (
{
name = mark0;
position = "{377, -170}";
},
{
name = mark1;
position = "{706, 10}";
},
{
name = mark2;
position = "{376, 865}";
},
{
name = mark3;
position = "{0, 0}";
},
{
name = mark4;
position = "{0, 0}";
}
);
layerId = UUID0;
paths = (
{
closed = 1;
nodes = (
"376 849 LINE",
"437 765 LINE",
"553 765 LINE",
"420 921 LINE",
"332 921 LINE",
"199 765 LINE",
"315 765 LINE"
);
},
{
closed = 1;
nodes = (
"766 0 LINE",
"441 705 LINE",
"312 705 LINE",
"-13 0 LINE",
"149 0 LINE",
"215 154 LINE",
"541 154 LINE",
"607 0 LINE"
);
},
{
closed = 1;
nodes = (
"268 276 LINE",
"378 533 LINE",
"488 276 LINE"
);
},
{
closed = 1;
nodes = (
"306 -200 LINE",
"448 -200 LINE",
"448 -65 LINE",
"306 -65 LINE"
);
}
);
width = 753;
}
);
leftKerningGroup = A;
rightKerningGroup = A;
unicode = 1EAC;
},
{
glyphname = Acircumflexgrave;
lastChange = "2017-11-26 07:35:25 +0000";
layers = (
{
anchors = (
{
name = mark0;
position = "{377, 0}";
},
{
name = mark1;
position = "{706, 10}";
},
{
name = mark2;
position = "{376, 865}";
},
{
name = mark3;
position = "{0, 0}";
},
{
name = mark4;
position = "{0, 0}";
}
);
layerId = UUID0;
paths = (
{
closed = 1;
nodes = (
"588 872 LINE",
"518 1013 LINE",
"390 1013 LINE",
"513 872 LINE"
);
},
{
closed = 1;
nodes = (
"376 834 LINE",
"439 765 LINE",
"553 765 LINE",
"420 903 LINE",
"332 903 LINE",
"199 765 LINE",
"313 765 LINE"
);
},
{
closed = 1;
nodes = (
"607 0 LINE",
"766 0 LINE",
"441 705 LINE",
"312 705 LINE",
"-13 0 LINE",
"149 0 LINE",
"215 154 LINE",
"541 154 LINE"
);
},
{
closed = 1;
nodes = (
"268 276 LINE",
"378 533 LINE",
"488 276 LINE"
);
}
);
width = 753;
}
);
leftKerningGroup = A;
rightKerningGroup = A;
unicode = 1EA6;
},
{
glyphname = Acircumflexhookabove;
lastChange = "2017-11-26 07:35:25 +0000";
layers = (
{
anchors = (
{
name = mark0;
position = "{377, 0}";
},
{
name = mark1;
position = "{706, 10}";
},
{
name = mark2;
position = "{376, 865}";
},
{
name = mark3;
position = "{0, 0}";
},
{
name = mark4;
position = "{0, 0}";
}
);
layerId = UUID0;
paths = (
{
closed = 1;
nodes = (
"527 961 OFFCURVE",
"535 954 OFFCURVE",
"535 948 CURVE SMOOTH",
"535 937 OFFCURVE",
"470 936 OFFCURVE",
"470 893 CURVE SMOOTH",
"470 873 LINE",
"546 873 LINE",
"546 881 LINE SMOOTH",
"546 915 OFFCURVE",
"629 907 OFFCURVE",
"629 959 CURVE SMOOTH",
"629 994 OFFCURVE",
"588 1019 OFFCURVE",
"522 1019 CURVE SMOOTH",
"481 1019 OFFCURVE",
"451 1011 OFFCURVE",
"426 1001 CURVE",
"446 950 LINE",
"469 958 OFFCURVE",
"489 961 OFFCURVE",
"503 961 CURVE SMOOTH"
);
},
{
closed = 1;
nodes = (
"376 834 LINE",
"439 765 LINE",
"553 765 LINE",
"420 903 LINE",
"332 903 LINE",
"199 765 LINE",
"313 765 LINE"
);
},
{
closed = 1;
nodes = (
"607 0 LINE",
"766 0 LINE",
"441 705 LINE",
"312 705 LINE",
"-13 0 LINE",
"149 0 LINE",
"215 154 LINE",
"541 154 LINE"
);
},
{
closed = 1;
nodes = (
"268 276 LINE",
"378 533 LINE",
"488 276 LINE"
);
}
);
width = 753;
}
);
leftKerningGroup = A;
rightKerningGroup = A;
unicode = 1EA8;
},
{
glyphname = Acircumflextilde;
lastChange = "2017-11-26 07:35:25 +0000";
layers = (
{
anchors = (
{
name = mark0;
position = "{377, 0}";
},
{
name = mark1;
position = "{706, 10}";
},
{
name = mark2;
position = "{376, 865}";
},
{
name = mark3;
position = "{0, 0}";
},
{
name = mark4;
position = "{0, 0}";
}
);
layerId = UUID0;
paths = (
{
closed = 1;
nodes = (
"347 950 OFFCURVE",
"390 918 OFFCURVE",
"441 918 CURVE SMOOTH",
"501 918 OFFCURVE",
"551 963 OFFCURVE",
"551 1023 CURVE",
"485 1023 LINE",
"482 1002 OFFCURVE",
"467 994 OFFCURVE",
"443 994 CURVE SMOOTH",
"405 994 OFFCURVE",
"362 1026 OFFCURVE",
"311 1026 CURVE SMOOTH",
"251 1026 OFFCURVE",
"201 981 OFFCURVE",
"201 921 CURVE",
"267 921 LINE",
"270 942 OFFCURVE",
"285 950 OFFCURVE",
"309 950 CURVE SMOOTH"
);
},
{
closed = 1;
nodes = (
"376 834 LINE",
"439 765 LINE",
"553 765 LINE",
"420 903 LINE",
"332 903 LINE",
"199 765 LINE",
"313 765 LINE"
);
},
{
closed = 1;
nodes = (
"607 0 LINE",
"766 0 LINE",
"441 705 LINE",
"312 705 LINE",
"-13 0 LINE",
"149 0 LINE",
"215 154 LINE",
"541 154 LINE"
);
},
{
closed = 1;
nodes = (
"268 276 LINE",
"378 533 LINE",
"488 276 LINE"
);
}
);
width = 753;
}
);
leftKerningGroup = A;
rightKerningGroup = A;
unicode = 1EAA;
},
{
glyphname = Adblgrave;
lastChange = "2017-11-26 07:35:25 +0000";
layers = (
{
anchors = (
{
name = mark0;
position = "{377, 0}";
},
{
name = mark1;
position = "{706, 10}";
},
{
name = mark2;
position = "{376, 865}";
},
{
name = mark3;
position = "{0, 0}";
},
{
name = mark4;
position = "{0, 0}";
}
);
layerId = UUID0;
paths = (
{
closed = 1;
nodes = (
"344 765 LINE",
"271 921 LINE",
"168 921 LINE",
"268 765 LINE"
);
},
{
closed = 1;
nodes = (
"484 765 LINE",
"411 921 LINE",
"308 921 LINE",
"408 765 LINE"
);
},
{
closed = 1;
nodes = (
"607 0 LINE",
"766 0 LINE",
"441 705 LINE",
"312 705 LINE",
"-13 0 LINE",
"149 0 LINE",
"215 154 LINE",
"541 154 LINE"
);
},
{
closed = 1;
nodes = (
"268 276 LINE",
"378 533 LINE",
"488 276 LINE"
);
}
);
width = 753;
}
);
leftKerningGroup = A;
rightKerningGroup = A;
unicode = 0200;
},
{
glyphname = Adieresis;
lastChange = "2017-11-26 07:35:25 +0000";
layers = (
{
anchors = (
{
name = mark0;
position = "{377, 0}";
},
{
name = mark1;
position = "{706, 10}";
},
{
name = mark2;
position = "{376, 865}";
},
{
name = mark3;
position = "{0, 0}";
},
{
name = mark4;
position = "{0, 0}";
}
);
layerId = UUID0;
paths = (
{
closed = 1;
nodes = (
"351 911 LINE",
"209 911 LINE",
"209 776 LINE",
"351 776 LINE"
);
},
{
closed = 1;
nodes = (
"543 911 LINE",
"401 911 LINE",
"401 776 LINE",
"543 776 LINE"
);
},
{
closed = 1;
nodes = (
"607 0 LINE",
"766 0 LINE",
"441 705 LINE",
"312 705 LINE",
"-13 0 LINE",
"149 0 LINE",
"215 154 LINE",
"541 154 LINE"
);
},
{
closed = 1;
nodes = (
"268 276 LINE",
"378 533 LINE",
"488 276 LINE"
);
}
);
width = 753;
}
);
leftKerningGroup = A;
rightKerningGroup = A;
unicode = 00C4;
},
{
glyphname = Adotbelow;
lastChange = "2017-11-26 07:35:25 +0000";
layers = (
{
anchors = (
{
name = mark0;
position = "{377, -170}";
},
{
name = mark1;
position = "{706, 10}";
},
{
name = mark2;
position = "{376, 705}";
},
{
name = mark3;
position = "{0, 0}";
},
{
name = mark4;
position = "{0, 0}";
}
);
layerId = UUID0;
paths = (
{
closed = 1;
nodes = (
"766 0 LINE",
"441 705 LINE",
"312 705 LINE",
"-13 0 LINE",
"149 0 LINE",
"215 154 LINE",
"541 154 LINE",
"607 0 LINE"
);
},
{
closed = 1;
nodes = (
"268 276 LINE",
"378 533 LINE",
"488 276 LINE"
);
},
{
closed = 1;
nodes = (
"306 -200 LINE",
"448 -200 LINE",
"448 -65 LINE",
"306 -65 LINE"
);
}
);
width = 753;
}
);
leftKerningGroup = A;
rightKerningGroup = A;
unicode = 1EA0;
},
{
glyphname = Agrave;
lastChange = "2017-11-26 07:35:25 +0000";
layers = (
{
anchors = (
{
name = mark0;
position = "{377, 0}";
},
{
name = mark1;
position = "{706, 10}";
},
{
name = mark2;
position = "{376, 865}";
},
{
name = mark3;
position = "{0, 0}";
},
{
name = mark4;
position = "{0, 0}";
}
);
layerId = UUID0;
paths = (
{
closed = 1;
nodes = (
"424 765 LINE",
"321 921 LINE",
"178 921 LINE",
"328 765 LINE"
);
},
{
closed = 1;
nodes = (
"607 0 LINE",
"766 0 LINE",
"441 705 LINE",
"312 705 LINE",
"-13 0 LINE",
"149 0 LINE",
"215 154 LINE",
"541 154 LINE"
);
},
{
closed = 1;
nodes = (
"268 276 LINE",
"378 533 LINE",
"488 276 LINE"
);
}
);
width = 753;
}
);
leftKerningGroup = A;
rightKerningGroup = A;
unicode = 00C0;
},
{
glyphname = Ahookabove;
lastChange = "2017-11-26 07:35:25 +0000";
layers = (
{
anchors = (
{
name = mark0;
position = "{377, 0}";
},
{
name = mark1;
position = "{706, 10}";
},
{
name = mark2;
position = "{376, 865}";
},
{
name = mark3;
position = "{0, 0}";
},
{
name = mark4;
position = "{0, 0}";
}
);
layerId = UUID0;
paths = (
{
closed = 1;
nodes = (
"395 865 OFFCURVE",
"403 858 OFFCURVE",
"403 849 CURVE SMOOTH",
"403 831 OFFCURVE",
"338 831 OFFCURVE",
"338 787 CURVE SMOOTH",
"338 765 LINE",
"414 765 LINE",
"414 778 LINE SMOOTH",
"414 812 OFFCURVE",
"497 809 OFFCURVE",
"497 861 CURVE SMOOTH",
"497 896 OFFCURVE",
"456 925 OFFCURVE",
"390 925 CURVE SMOOTH",
"349 925 OFFCURVE",
"319 917 OFFCURVE",
"294 907 CURVE",
"314 854 LINE",
"337 862 OFFCURVE",
"357 865 OFFCURVE",
"371 865 CURVE SMOOTH"
);
},
{
closed = 1;
nodes = (
"607 0 LINE",
"766 0 LINE",
"441 705 LINE",
"312 705 LINE",
"-13 0 LINE",
"149 0 LINE",
"215 154 LINE",
"541 154 LINE"
);
},
{
closed = 1;
nodes = (
"268 276 LINE",
"378 533 LINE",
"488 276 LINE"
);
}
);
width = 753;
}
);
leftKerningGroup = A;
rightKerningGroup = A;
unicode = 1EA2;
},
{
glyphname = Ainvertedbreve;
lastChange = "2017-11-26 07:35:25 +0000";
layers = (
{
anchors = (
{
name = mark0;
position = "{377, 0}";
},
{
name = mark1;
position = "{706, 10}";
},
{
name = mark2;
position = "{376, 865}";
},
{
name = mark3;
position = "{0, 0}";
},
{
name = mark4;
position = "{0, 0}";
}
);
layerId = UUID0;
paths = (
{
closed = 1;
nodes = (
"420 822 OFFCURVE",
"461 810 OFFCURVE",
"484 774 CURVE",
"555 804 LINE",
"529 876 OFFCURVE",
"462 913 OFFCURVE",
"376 913 CURVE SMOOTH",
"290 913 OFFCURVE",
"223 876 OFFCURVE",
"197 804 CURVE",
"268 774 LINE",
"291 810 OFFCURVE",
"332 822 OFFCURVE",
"376 822 CURVE SMOOTH"
);
},
{
closed = 1;
nodes = (
"607 0 LINE",
"766 0 LINE",
"441 705 LINE",
"312 705 LINE",
"-13 0 LINE",
"149 0 LINE",
"215 154 LINE",
"541 154 LINE"
);
},
{
closed = 1;
nodes = (
"268 276 LINE",
"378 533 LINE",
"488 276 LINE"
);
}
);
width = 753;
}
);
leftKerningGroup = A;
rightKerningGroup = A;
unicode = 0202;
},
{
glyphname = Amacron;
lastChange = "2017-11-26 07:35:25 +0000";
layers = (
{
anchors = (
{
name = mark0;
position = "{377, 0}";
},
{
name = mark1;
position = "{706, 10}";
},
{
name = mark2;
position = "{376, 865}";
},
{
name = mark3;
position = "{0, 0}";
},
{
name = mark4;
position = "{0, 0}";
}
);
layerId = UUID0;
paths = (
{
closed = 1;
nodes = (
"533 891 LINE",
"219 891 LINE",
"219 795 LINE",
"533 795 LINE"
);
},
{
closed = 1;
nodes = (
"607 0 LINE",
"766 0 LINE",
"441 705 LINE",
"312 705 LINE",
"-13 0 LINE",
"149 0 LINE",
"215 154 LINE",
"541 154 LINE"
);
},
{
closed = 1;
nodes = (
"268 276 LINE",
"378 533 LINE",
"488 276 LINE"
);
}
);
width = 753;
}
);
leftKerningGroup = A;
rightKerningGroup = A;
unicode = 0100;
},
{
glyphname = Aogonek;
lastChange = "2017-11-26 07:35:25 +0000";
layers = (
{
layerId = UUID0;
paths = (
{
closed = 1;
nodes = (
"752 -105 LINE",
"733 -113 OFFCURVE",
"715 -117 OFFCURVE",
"698 -117 CURVE SMOOTH",
"660 -117 OFFCURVE",
"639 -99 OFFCURVE",
"639 -64 CURVE SMOOTH",
"639 -27 OFFCURVE",
"668 0 OFFCURVE",
"713 0 CURVE SMOOTH",
"766 0 LINE",
"441 705 LINE",
"312 705 LINE",
"-13 0 LINE",
"149 0 LINE",
"215 154 LINE",
"541 154 LINE",
"599 18 LINE",
"561 -6 OFFCURVE",
"540 -45 OFFCURVE",
"540 -87 CURVE SMOOTH",
"540 -154 OFFCURVE",
"596 -197 OFFCURVE",
"668 -197 CURVE SMOOTH",
"704 -197 OFFCURVE",
"739 -190 OFFCURVE",
"769 -177 CURVE"
);
},
{
closed = 1;
nodes = (
"268 276 LINE",
"378 533 LINE",
"488 276 LINE"
);
}
);
width = 753;
}
);
leftKerningGroup = A;
rightKerningGroup = A;
unicode = 0104;
},
{
glyphname = Aring;
lastChange = "2017-11-26 07:35:25 +0000";
layers = (
{
layerId = UUID0;
paths = (
{
closed = 1;
nodes = (
"607 0 LINE",
"766 0 LINE",
"446 694 LINE",
"471 713 OFFCURVE",
"487 743 OFFCURVE",
"487 778 CURVE SMOOTH",
"487 839 OFFCURVE",
"438 886 OFFCURVE",
"377 886 CURVE SMOOTH",
"316 886 OFFCURVE",
"267 839 OFFCURVE",
"267 778 CURVE SMOOTH",
"267 744 OFFCURVE",
"283 714 OFFCURVE",
"307 694 CURVE",
"-13 0 LINE",
"149 0 LINE",
"215 154 LINE",
"541 154 LINE"
);
},
{
closed = 1;
nodes = (
"402 823 OFFCURVE",
"420 803 OFFCURVE",
"420 778 CURVE SMOOTH",
"420 753 OFFCURVE",
"402 733 OFFCURVE",
"377 733 CURVE SMOOTH",
"352 733 OFFCURVE",
"334 753 OFFCURVE",
"334 778 CURVE SMOOTH",
"334 803 OFFCURVE",
"352 823 OFFCURVE",
"377 823 CURVE SMOOTH"
);
},
{
closed = 1;
nodes = (
"268 276 LINE",
"378 533 LINE",
"488 276 LINE"
);
}
);
width = 753;
}
);
leftKerningGroup = A;
rightKerningGroup = A;
unicode = 00C5;
},
{
glyphname = Aringacute;
lastChange = "2017-11-26 07:35:25 +0000";
layers = (
{
layerId = UUID0;
paths = (
{
closed = 1;
nodes = (
"607 0 LINE",
"766 0 LINE",
"446 694 LINE",
"471 713 OFFCURVE",
"487 743 OFFCURVE",
"487 778 CURVE SMOOTH",
"487 793 OFFCURVE",
"484 808 OFFCURVE",
"478 821 CURVE",
"629 946 LINE",
"486 946 LINE",
"423 876 LINE",
"409 883 OFFCURVE",
"393 886 OFFCURVE",
"377 886 CURVE SMOOTH",
"316 886 OFFCURVE",
"267 839 OFFCURVE",
"267 778 CURVE SMOOTH",
"267 744 OFFCURVE",
"283 714 OFFCURVE",
"307 694 CURVE",
"-13 0 LINE",
"149 0 LINE",
"215 154 LINE",
"541 154 LINE"
);
},
{
closed = 1;
nodes = (
"402 823 OFFCURVE",
"420 803 OFFCURVE",
"420 778 CURVE SMOOTH",
"420 753 OFFCURVE",
"402 733 OFFCURVE",
"377 733 CURVE SMOOTH",
"352 733 OFFCURVE",
"334 753 OFFCURVE",
"334 778 CURVE SMOOTH",
"334 803 OFFCURVE",
"352 823 OFFCURVE",
"377 823 CURVE SMOOTH"
);
},
{
closed = 1;
nodes = (
"268 276 LINE",
"378 533 LINE",
"488 276 LINE"
);
}
);
width = 753;
}
);
leftKerningGroup = A;
rightKerningGroup = A;
unicode = 01FA;
},
{
glyphname = Atilde;
lastChange = "2017-11-26 07:35:25 +0000";
layers = (
{
anchors = (
{
name = mark0;
position = "{377, 0}";
},
{
name = mark1;
position = "{706, 10}";
},
{
name = mark2;
position = "{376, 865}";
},
{
name = mark3;
position = "{0, 0}";
},
{
name = mark4;
position = "{0, 0}";
}
);
layerId = UUID0;
paths = (
{
closed = 1;
nodes = (
"347 820 OFFCURVE",
"390 768 OFFCURVE",
"441 768 CURVE SMOOTH",
"501 768 OFFCURVE",
"551 813 OFFCURVE",
"551 916 CURVE",
"485 916 LINE",
"482 885 OFFCURVE",
"467 867 OFFCURVE",
"443 867 CURVE SMOOTH",
"405 867 OFFCURVE",
"362 919 OFFCURVE",
"311 919 CURVE SMOOTH",
"251 919 OFFCURVE",
"201 874 OFFCURVE",
"201 771 CURVE",
"267 771 LINE",
"270 802 OFFCURVE",
"285 820 OFFCURVE",
"309 820 CURVE SMOOTH"
);
},
{
closed = 1;
nodes = (
"607 0 LINE",
"766 0 LINE",
"441 705 LINE",
"312 705 LINE",
"-13 0 LINE",
"149 0 LINE",
"215 154 LINE",
"541 154 LINE"
);
},
{
closed = 1;
nodes = (
"268 276 LINE",
"378 533 LINE",
"488 276 LINE"
);
}
);
width = 753;
}
);
leftKerningGroup = A;
rightKerningGroup = A;
unicode = 00C3;
},
{
glyphname = AE;
lastChange = "2017-11-26 07:35:25 +0000";
layers = (
{
anchors = (
{
name = mark0;
position = "{505, 0}";
},
{
name = mark1;
position = "{0, 0}";
},
{
name = mark2;
position = "{505, 705}";
},
{
name = mark3;
position = "{0, 0}";
},
{
name = mark4;
position = "{0, 0}";
}
);
layerId = UUID0;
paths = (
{
closed = 1;
nodes = (
"965 580 LINE",
"965 705 LINE",
"412 705 LINE",
"-33 0 LINE",
"142 0 LINE",
"233 154 LINE",
"529 154 LINE",
"563 0 LINE",
"965 0 LINE",
"965 125 LINE",
"682 125 LINE",
"644 296 LINE",
"945 296 LINE",
"945 421 LINE",
"616 421 LINE",
"580 580 LINE"
);
},
{
closed = 1;
nodes = (
"305 276 LINE",
"449 518 LINE",
"502 276 LINE"
);
}
);
width = 1001;
}
);
leftKerningGroup = A;
rightKerningGroup = AE;
unicode = 00C6;
},
{
glyphname = AEacute;
lastChange = "2017-11-26 07:35:25 +0000";
layers = (
{
anchors = (
{
name = mark0;
position = "{505, 0}";
},
{
name = mark1;
position = "{0, 0}";
},
{
name = mark2;
position = "{505, 865}";
},
{
name = mark3;
position = "{0, 0}";
},
{
name = mark4;
position = "{0, 0}";
}
);
layerId = UUID0;
paths = (
{
closed = 1;
nodes = (
"703 921 LINE",
"560 921 LINE",
"457 765 LINE",
"553 765 LINE"
);
},
{
closed = 1;
nodes = (
"965 580 LINE",
"965 705 LINE",
"412 705 LINE",
"-33 0 LINE",
"142 0 LINE",
"233 154 LINE",
"529 154 LINE",
"563 0 LINE",
"965 0 LINE",
"965 125 LINE",
"682 125 LINE",
"644 296 LINE",
"945 296 LINE",
"945 421 LINE",
"616 421 LINE",
"580 580 LINE"
);
},
{
closed = 1;
nodes = (
"305 276 LINE",
"449 518 LINE",
"502 276 LINE"
);
}
);
width = 1001;
}
);
leftKerningGroup = A;
rightKerningGroup = AE;
unicode = 01FC;
},
{
glyphname = B;
lastChange = "2017-11-26 07:35:25 +0000";
layers = (
{
anchors = (
{
name = mark0;
position = "{349, 0}";
},
{
name = mark1;
position = "{0, 0}";
},
{
name = mark2;
position = "{349, 705}";
},
{
name = mark3;
position = "{0, 0}";
},
{
name = mark4;
position = "{0, 0}";
}
);
layerId = UUID0;
paths = (
{
closed = 1;
nodes = (
"595 390 OFFCURVE",
"636 449 OFFCURVE",
"636 522 CURVE SMOOTH",
"636 635 OFFCURVE",
"544 705 OFFCURVE",
"397 705 CURVE SMOOTH",
"69 705 LINE",
"69 0 LINE",
"407 0 LINE SMOOTH",
"560 0 OFFCURVE",
"654 74 OFFCURVE",
"654 193 CURVE SMOOTH",
"654 279 OFFCURVE",
"608 341 OFFCURVE",
"526 365 CURVE"
);
},
{
closed = 1;
nodes = (
"226 582 LINE",
"370 582 LINE SMOOTH",
"448 582 OFFCURVE",
"484 556 OFFCURVE",
"484 500 CURVE SMOOTH",
"484 446 OFFCURVE",
"448 420 OFFCURVE",
"370 420 CURVE SMOOTH",
"226 420 LINE"
);
},
{
closed = 1;
nodes = (
"226 123 LINE",
"226 297 LINE",
"388 297 LINE SMOOTH",
"469 297 OFFCURVE",
"503 270 OFFCURVE",
"503 209 CURVE SMOOTH",
"503 149 OFFCURVE",
"469 123 OFFCURVE",
"388 123 CURVE"
);
}
);
width = 690;
}
);
unicode = 0042;
},
{
glyphname = C;
lastChange = "2017-11-26 07:35:25 +0000";
layers = (
{
anchors = (
{
name = mark0;
position = "{395, 0}";
},
{
name = mark1;
position = "{0, 0}";
},
{
name = mark2;
position = "{395, 705}";
},
{
name = mark3;
position = "{0, 0}";
},
{
name = mark4;
position = "{0, 0}";
}
);
layerId = UUID0;
paths = (
{
closed = 1;
nodes = (
"495 -9 OFFCURVE",
"586 21 OFFCURVE",
"641 71 CURVE",
"590 186 LINE",
"528 140 OFFCURVE",
"469 120 OFFCURVE",
"405 120 CURVE SMOOTH",
"282 120 OFFCURVE",
"213 200 OFFCURVE",
"213 353 CURVE SMOOTH",
"213 506 OFFCURVE",
"282 585 OFFCURVE",
"405 585 CURVE SMOOTH",
"469 585 OFFCURVE",
"528 565 OFFCURVE",
"590 519 CURVE",
"641 634 LINE",
"586 684 OFFCURVE",
"495 714 OFFCURVE",
"402 714 CURVE SMOOTH",
"184 714 OFFCURVE",
"49 571 OFFCURVE",
"49 353 CURVE SMOOTH",
"49 135 OFFCURVE",
"184 -9 OFFCURVE",
"402 -9 CURVE SMOOTH"
);
}
);
width = 678;
}
);
leftKerningGroup = C;
rightKerningGroup = C;
unicode = 0043;
},
{
glyphname = Cacute;
lastChange = "2017-11-26 07:35:25 +0000";
layers = (
{
anchors = (
{
name = mark0;
position = "{395, 0}";
},
{
name = mark1;
position = "{0, 0}";
},
{
name = mark2;
position = "{395, 865}";
},
{
name = mark3;
position = "{0, 0}";
},
{
name = mark4;
position = "{0, 0}";
}
);
layerId = UUID0;
paths = (
{
closed = 1;
nodes = (
"443 765 LINE",
"593 921 LINE",
"450 921 LINE",
"347 765 LINE"
);
},
{
closed = 1;
nodes = (
"495 -9 OFFCURVE",
"586 21 OFFCURVE",
"641 71 CURVE",
"590 186 LINE",
"528 140 OFFCURVE",
"469 120 OFFCURVE",
"405 120 CURVE SMOOTH",
"282 120 OFFCURVE",
"213 200 OFFCURVE",
"213 353 CURVE SMOOTH",
"213 506 OFFCURVE",
"282 585 OFFCURVE",
"405 585 CURVE SMOOTH",
"469 585 OFFCURVE",
"528 565 OFFCURVE",
"590 519 CURVE",
"641 634 LINE",
"586 684 OFFCURVE",
"495 714 OFFCURVE",
"402 714 CURVE SMOOTH",
"184 714 OFFCURVE",
"49 571 OFFCURVE",
"49 353 CURVE SMOOTH",
"49 135 OFFCURVE",
"184 -9 OFFCURVE",
"402 -9 CURVE SMOOTH"
);
}
);
width = 678;
}
);
leftKerningGroup = C;
rightKerningGroup = C;
unicode = 0106;
},
{
glyphname = Ccaron;
lastChange = "2017-11-26 07:35:25 +0000";
layers = (
{
anchors = (
{
name = mark0;
position = "{395, 0}";
},
{
name = mark1;
position = "{0, 0}";
},
{
name = mark2;
position = "{395, 865}";
},
{
name = mark3;
position = "{0, 0}";
},
{
name = mark4;
position = "{0, 0}";
}
);
layerId = UUID0;
paths = (
{
closed = 1;
nodes = (
"456 921 LINE",
"395 837 LINE",
"334 921 LINE",
"218 921 LINE",
"351 765 LINE",
"439 765 LINE",
"572 921 LINE"
);
},
{
closed = 1;
nodes = (
"495 -9 OFFCURVE",
"586 21 OFFCURVE",
"641 71 CURVE",
"590 186 LINE",
"528 140 OFFCURVE",
"469 120 OFFCURVE",
"405 120 CURVE SMOOTH",
"282 120 OFFCURVE",
"213 200 OFFCURVE",
"213 353 CURVE SMOOTH",
"213 506 OFFCURVE",
"282 585 OFFCURVE",
"405 585 CURVE SMOOTH",
"469 585 OFFCURVE",
"528 565 OFFCURVE",
"590 519 CURVE",
"641 634 LINE",
"586 684 OFFCURVE",
"495 714 OFFCURVE",
"402 714 CURVE SMOOTH",
"184 714 OFFCURVE",
"49 571 OFFCURVE",
"49 353 CURVE SMOOTH",
"49 135 OFFCURVE",
"184 -9 OFFCURVE",
"402 -9 CURVE SMOOTH"
);
}
);
width = 678;
}
);
leftKerningGroup = C;
rightKerningGroup = C;
unicode = 010C;
},
{
glyphname = Ccedilla;
lastChange = "2017-11-26 07:35:25 +0000";
layers = (
{
anchors = (
{
name = mark0;
position = "{395, 0}";
},
{
name = mark1;
position = "{0, 0}";
},
{
name = mark2;
position = "{395, 705}";
},
{
name = mark3;
position = "{0, 0}";
},
{
name = mark4;
position = "{0, 0}";
}
);
layerId = UUID0;
paths = (
{
closed = 1;
nodes = (
"590 186 LINE",
"528 140 OFFCURVE",
"469 120 OFFCURVE",
"405 120 CURVE SMOOTH",
"282 120 OFFCURVE",
"213 200 OFFCURVE",
"213 353 CURVE SMOOTH",
"213 506 OFFCURVE",
"282 585 OFFCURVE",
"405 585 CURVE SMOOTH",
"469 585 OFFCURVE",
"528 565 OFFCURVE",
"590 519 CURVE",
"641 634 LINE",
"586 684 OFFCURVE",
"495 714 OFFCURVE",
"402 714 CURVE SMOOTH",
"184 714 OFFCURVE",
"49 571 OFFCURVE",
"49 353 CURVE SMOOTH",
"49 155 OFFCURVE",
"160 19 OFFCURVE",
"343 -5 CURVE",
"334 -75 LINE",
"354 -96 LINE",
"363 -93 OFFCURVE",
"377 -90 OFFCURVE",
"389 -90 CURVE SMOOTH",
"410 -90 OFFCURVE",
"421 -97 OFFCURVE",
"421 -109 CURVE SMOOTH",
"421 -128 OFFCURVE",
"401 -134 OFFCURVE",
"376 -134 CURVE SMOOTH",
"354 -134 OFFCURVE",
"330 -130 OFFCURVE",
"297 -120 CURVE",
"286 -179 LINE",
"314 -191 OFFCURVE",
"353 -197 OFFCURVE",
"380 -197 CURVE SMOOTH",
"470 -197 OFFCURVE",
"516 -159 OFFCURVE",
"516 -109 CURVE SMOOTH",
"516 -66 OFFCURVE",
"484 -40 OFFCURVE",
"432 -40 CURVE SMOOTH",
"428 -40 OFFCURVE",
"424 -40 OFFCURVE",
"420 -41 CURVE",
"425 -8 LINE",
"510 -4 OFFCURVE",
"591 25 OFFCURVE",
"641 71 CURVE"
);
}
);
width = 678;
}
);
leftKerningGroup = C;
rightKerningGroup = C;
unicode = 00C7;
},
{
glyphname = Ccedillaacute;
lastChange = "2017-11-26 07:35:25 +0000";
layers = (
{
anchors = (
{
name = mark0;
position = "{395, 0}";
},
{
name = mark1;
position = "{0, 0}";
},
{
name = mark2;
position = "{395, 865}";
},
{
name = mark3;
position = "{0, 0}";
},
{
name = mark4;
position = "{0, 0}";
}
);
layerId = UUID0;
paths = (
{
closed = 1;
nodes = (
"593 921 LINE",
"450 921 LINE",
"347 765 LINE",
"443 765 LINE"
);
},
{
closed = 1;
nodes = (
"590 186 LINE",
"528 140 OFFCURVE",
"469 120 OFFCURVE",
"405 120 CURVE SMOOTH",
"282 120 OFFCURVE",
"213 200 OFFCURVE",
"213 353 CURVE SMOOTH",
"213 506 OFFCURVE",
"282 585 OFFCURVE",
"405 585 CURVE SMOOTH",
"469 585 OFFCURVE",
"528 565 OFFCURVE",
"590 519 CURVE",
"641 634 LINE",
"586 684 OFFCURVE",
"495 714 OFFCURVE",
"402 714 CURVE SMOOTH",
"184 714 OFFCURVE",
"49 571 OFFCURVE",
"49 353 CURVE SMOOTH",
"49 155 OFFCURVE",
"160 19 OFFCURVE",
"343 -5 CURVE",
"334 -75 LINE",
"354 -96 LINE",
"363 -93 OFFCURVE",
"377 -90 OFFCURVE",
"389 -90 CURVE SMOOTH",
"410 -90 OFFCURVE",
"421 -97 OFFCURVE",
"421 -109 CURVE SMOOTH",
"421 -128 OFFCURVE",
"401 -134 OFFCURVE",
"376 -134 CURVE SMOOTH",
"354 -134 OFFCURVE",
"330 -130 OFFCURVE",
"297 -120 CURVE",
"286 -179 LINE",
"314 -191 OFFCURVE",
"353 -197 OFFCURVE",
"380 -197 CURVE SMOOTH",
"470 -197 OFFCURVE",
"516 -159 OFFCURVE",
"516 -109 CURVE SMOOTH",
"516 -66 OFFCURVE",
"484 -40 OFFCURVE",
"432 -40 CURVE SMOOTH",
"428 -40 OFFCURVE",
"424 -40 OFFCURVE",
"420 -41 CURVE",
"425 -8 LINE",
"510 -4 OFFCURVE",
"591 25 OFFCURVE",
"641 71 CURVE"
);
}
);
width = 678;
}
);
leftKerningGroup = C;
rightKerningGroup = C;
unicode = 1E08;
},
{
glyphname = Ccircumflex;
lastChange = "2017-11-26 07:35:25 +0000";
layers = (
{
anchors = (
{
name = mark0;
position = "{395, 0}";
},
{
name = mark1;
position = "{0, 0}";
},
{
name = mark2;
position = "{395, 865}";
},
{
name = mark3;
position = "{0, 0}";
},
{
name = mark4;
position = "{0, 0}";
}
);
layerId = UUID0;
paths = (
{
closed = 1;
nodes = (
"334 765 LINE",
"395 849 LINE",
"456 765 LINE",
"572 765 LINE",
"439 921 LINE",
"351 921 LINE",
"218 765 LINE"
);
},
{
closed = 1;
nodes = (
"495 -9 OFFCURVE",
"586 21 OFFCURVE",
"641 71 CURVE",
"590 186 LINE",
"528 140 OFFCURVE",
"469 120 OFFCURVE",
"405 120 CURVE SMOOTH",
"282 120 OFFCURVE",
"213 200 OFFCURVE",
"213 353 CURVE SMOOTH",
"213 506 OFFCURVE",
"282 585 OFFCURVE",
"405 585 CURVE SMOOTH",
"469 585 OFFCURVE",
"528 565 OFFCURVE",
"590 519 CURVE",
"641 634 LINE",
"586 684 OFFCURVE",
"495 714 OFFCURVE",
"402 714 CURVE SMOOTH",
"184 714 OFFCURVE",
"49 571 OFFCURVE",
"49 353 CURVE SMOOTH",
"49 135 OFFCURVE",
"184 -9 OFFCURVE",
"402 -9 CURVE SMOOTH"
);
}
);
width = 678;
}
);
leftKerningGroup = C;
rightKerningGroup = C;
unicode = 0108;
},
{
glyphname = Cdotaccent;
lastChange = "2017-11-26 07:35:25 +0000";
layers = (
{
anchors = (
{
name = mark0;
position = "{395, 0}";
},
{
name = mark1;
position = "{0, 0}";
},
{
name = mark2;
position = "{395, 865}";
},
{
name = mark3;
position = "{0, 0}";
},
{
name = mark4;
position = "{0, 0}";
}
);
layerId = UUID0;
paths = (
{
closed = 1;
nodes = (
"312 916 LINE",
"312 771 LINE",
"478 771 LINE",
"478 916 LINE"
);
},
{
closed = 1;
nodes = (
"495 -9 OFFCURVE",
"586 21 OFFCURVE",
"641 71 CURVE",
"590 186 LINE",
"528 140 OFFCURVE",
"469 120 OFFCURVE",
"405 120 CURVE SMOOTH",
"282 120 OFFCURVE",
"213 200 OFFCURVE",
"213 353 CURVE SMOOTH",
"213 506 OFFCURVE",
"282 585 OFFCURVE",
"405 585 CURVE SMOOTH",
"469 585 OFFCURVE",
"528 565 OFFCURVE",
"590 519 CURVE",
"641 634 LINE",
"586 684 OFFCURVE",
"495 714 OFFCURVE",
"402 714 CURVE SMOOTH",
"184 714 OFFCURVE",
"49 571 OFFCURVE",
"49 353 CURVE SMOOTH",
"49 135 OFFCURVE",
"184 -9 OFFCURVE",
"402 -9 CURVE SMOOTH"
);
}
);
width = 678;
}
);
leftKerningGroup = C;
rightKerningGroup = C;
unicode = 010A;
},
{
glyphname = D;
lastChange = "2017-11-26 07:35:25 +0000";
layers = (
{
anchors = (
{
name = mark0;
position = "{382, 0}";
},
{
name = mark1;
position = "{0, 0}";
},
{
name = mark2;
position = "{382, 705}";
},
{
name = mark3;
position = "{382, 353}";
},
{
name = mark4;
position = "{0, 0}";
}
);
layerId = UUID0;
paths = (
{
closed = 1;
nodes = (
"69 0 LINE",
"345 0 LINE SMOOTH",
"579 0 OFFCURVE",
"716 131 OFFCURVE",
"716 353 CURVE SMOOTH",
"716 574 OFFCURVE",
"578 705 OFFCURVE",
"345 705 CURVE SMOOTH",
"69 705 LINE"
);
},
{
closed = 1;
nodes = (
"230 130 LINE",
"230 575 LINE",
"334 575 LINE SMOOTH",
"482 575 OFFCURVE",
"555 502 OFFCURVE",
"555 353 CURVE SMOOTH",
"555 204 OFFCURVE",
"482 130 OFFCURVE",
"334 130 CURVE SMOOTH"
);
}
);
width = 765;
}
);
rightKerningGroup = D;
unicode = 0044;
},
{
glyphname = DZcaron;
lastChange = "2017-11-26 07:35:25 +0000";
layers = (
{
anchors = (
{
name = mark0;
position = "{1053, 0}";
},
{
name = mark1;
position = "{0, 0}";
},
{
name = mark2;
position = "{1057, 865}";
},
{
name = mark3;
position = "{382, 353}";
},
{
name = mark4;
position = "{0, 0}";
}
);
layerId = UUID0;
paths = (
{
closed = 1;
nodes = (
"1101 765 LINE",
"1234 921 LINE",
"1118 921 LINE",
"1057 837 LINE",
"996 921 LINE",
"880 921 LINE",
"1013 765 LINE"
);
},
{
closed = 1;
nodes = (
"69 705 LINE",
"69 0 LINE",
"345 0 LINE SMOOTH",
"579 0 OFFCURVE",
"716 131 OFFCURVE",
"716 353 CURVE SMOOTH",
"716 574 OFFCURVE",
"578 705 OFFCURVE",
"345 705 CURVE"
);
},
{
closed = 1;
nodes = (
"979 127 LINE",
"1315 589 LINE",
"1315 705 LINE",
"800 705 LINE",
"800 578 LINE",
"1134 578 LINE",
"800 118 LINE",
"800 0 LINE",
"1326 0 LINE",
"1326 127 LINE"
);
},
{
closed = 1;
nodes = (
"230 130 LINE",
"230 575 LINE",
"334 575 LINE SMOOTH",
"482 575 OFFCURVE",
"555 502 OFFCURVE",
"555 353 CURVE SMOOTH",
"555 204 OFFCURVE",
"482 130 OFFCURVE",
"334 130 CURVE"
);
}
);
width = 1361;
}
);
rightKerningGroup = uni01C4;
unicode = 01C4;
},
{
glyphname = Eth;
lastChange = "2017-11-26 07:35:25 +0000";
layers = (
{
layerId = UUID0;
paths = (
{
closed = 1;
nodes = (
"100 705 LINE",
"100 417 LINE",
"15 417 LINE",
"15 295 LINE",
"100 295 LINE",
"100 0 LINE",
"376 0 LINE SMOOTH",
"610 0 OFFCURVE",
"747 131 OFFCURVE",
"747 353 CURVE SMOOTH",
"747 574 OFFCURVE",
"609 705 OFFCURVE",
"376 705 CURVE"
);
},
{
closed = 1;
nodes = (
"261 130 LINE",
"261 295 LINE",
"446 295 LINE",
"446 417 LINE",
"261 417 LINE",
"261 575 LINE",
"365 575 LINE SMOOTH",
"513 575 OFFCURVE",
"586 502 OFFCURVE",
"586 353 CURVE SMOOTH",
"586 204 OFFCURVE",
"513 130 OFFCURVE",
"365 130 CURVE"
);
}
);
width = 796;
}
);
rightKerningGroup = D;
unicode = 00D0;
},
{
glyphname = Dcaron;
lastChange = "2017-11-26 07:35:25 +0000";
layers = (
{
anchors = (
{
name = mark0;
position = "{382, 0}";
},
{
name = mark1;
position = "{0, 0}";
},
{
name = mark2;
position = "{382, 865}";
},
{
name = mark3;
position = "{382, 353}";
},
{
name = mark4;
position = "{0, 0}";
}
);
layerId = UUID0;
paths = (
{
closed = 1;
nodes = (
"443 921 LINE",
"382 837 LINE",
"321 921 LINE",
"205 921 LINE",
"338 765 LINE",
"426 765 LINE",
"559 921 LINE"
);
},
{
closed = 1;
nodes = (
"69 0 LINE",
"345 0 LINE SMOOTH",
"579 0 OFFCURVE",
"716 131 OFFCURVE",
"716 353 CURVE SMOOTH",
"716 574 OFFCURVE",
"578 705 OFFCURVE",
"345 705 CURVE SMOOTH",
"69 705 LINE"
);
},
{
closed = 1;
nodes = (
"230 130 LINE",
"230 575 LINE",
"334 575 LINE SMOOTH",
"482 575 OFFCURVE",
"555 502 OFFCURVE",
"555 353 CURVE SMOOTH",
"555 204 OFFCURVE",
"482 130 OFFCURVE",
"334 130 CURVE SMOOTH"
);
}
);
width = 765;
}
);
rightKerningGroup = D;
unicode = 010E;
},
{
glyphname = Dcroat;
lastChange = "2017-11-26 07:35:25 +0000";
layers = (
{
layerId = UUID0;
paths = (
{
closed = 1;
nodes = (
"100 705 LINE",
"100 417 LINE",
"15 417 LINE",
"15 295 LINE",
"100 295 LINE",
"100 0 LINE",
"376 0 LINE SMOOTH",
"610 0 OFFCURVE",
"747 131 OFFCURVE",
"747 353 CURVE SMOOTH",
"747 574 OFFCURVE",
"609 705 OFFCURVE",
"376 705 CURVE"
);
},
{
closed = 1;
nodes = (
"261 130 LINE",
"261 295 LINE",
"446 295 LINE",
"446 417 LINE",
"261 417 LINE",
"261 575 LINE",
"365 575 LINE SMOOTH",
"513 575 OFFCURVE",
"586 502 OFFCURVE",
"586 353 CURVE SMOOTH",
"586 204 OFFCURVE",
"513 130 OFFCURVE",
"365 130 CURVE"
);
}
);
width = 796;
}
);
rightKerningGroup = D;
unicode = 0110;
},
{
glyphname = Ddotbelow;
lastChange = "2017-11-26 07:35:25 +0000";
layers = (
{
anchors = (
{
name = mark0;
position = "{382, -170}";
},
{
name = mark1;
position = "{0, 0}";
},
{
name = mark2;
position = "{382, 705}";
},
{
name = mark3;
position = "{382, 353}";
},
{
name = mark4;
position = "{0, 0}";
}
);
layerId = UUID0;
paths = (
{
closed = 1;
nodes = (
"69 0 LINE",
"345 0 LINE SMOOTH",
"579 0 OFFCURVE",
"716 131 OFFCURVE",
"716 353 CURVE SMOOTH",
"716 574 OFFCURVE",
"578 705 OFFCURVE",
"345 705 CURVE SMOOTH",
"69 705 LINE"
);
},
{
closed = 1;
nodes = (
"230 130 LINE",
"230 575 LINE",
"334 575 LINE SMOOTH",
"482 575 OFFCURVE",
"555 502 OFFCURVE",
"555 353 CURVE SMOOTH",
"555 204 OFFCURVE",
"482 130 OFFCURVE",
"334 130 CURVE SMOOTH"
);
},
{
closed = 1;
nodes = (
"311 -65 LINE",
"311 -200 LINE",
"453 -200 LINE",
"453 -65 LINE"
);
}
);
width = 765;
}
);
rightKerningGroup = D;
unicode = 1E0C;
},
{
glyphname = Dlinebelow;
lastChange = "2017-11-26 07:35:25 +0000";
layers = (
{
anchors = (
{
name = mark0;
position = "{382, -170}";
},
{
name = mark1;
position = "{0, 0}";
},
{
name = mark2;
position = "{382, 705}";
},
{
name = mark3;
position = "{382, 353}";
},
{
name = mark4;
position = "{0, 0}";
}
);
layerId = UUID0;
paths = (
{
closed = 1;
nodes = (
"69 0 LINE",
"345 0 LINE SMOOTH",
"579 0 OFFCURVE",
"716 131 OFFCURVE",
"716 353 CURVE SMOOTH",
"716 574 OFFCURVE",
"578 705 OFFCURVE",
"345 705 CURVE SMOOTH",
"69 705 LINE"
);
},
{
closed = 1;
nodes = (
"230 130 LINE",
"230 575 LINE",
"334 575 LINE SMOOTH",
"482 575 OFFCURVE",
"555 502 OFFCURVE",
"555 353 CURVE SMOOTH",
"555 204 OFFCURVE",
"482 130 OFFCURVE",
"334 130 CURVE SMOOTH"
);
},
{
closed = 1;
nodes = (
"225 -178 LINE",
"539 -178 LINE",
"539 -88 LINE",
"225 -88 LINE"
);
}
);
width = 765;
}
);
rightKerningGroup = D;
unicode = 1E0E;
},
{
glyphname = Dzcaron;
lastChange = "2017-11-26 07:35:25 +0000";
layers = (
{
anchors = (
{
name = mark0;
position = "{1020, 0}";
},
{
name = mark1;
position = "{0, 0}";
},
{
name = mark2;
position = "{1031, 685}";
},
{
name = mark3;
position = "{382, 353}";
},
{
name = mark4;
position = "{0, 0}";
}
);
layerId = UUID0;
paths = (
{
closed = 1;
nodes = (
"1077 555 LINE",
"1208 760 LINE",
"1088 760 LINE",
"1031 646 LINE",
"974 760 LINE",
"854 760 LINE",
"985 555 LINE"
);
},
{
closed = 1;
nodes = (
"69 705 LINE",
"69 0 LINE",
"345 0 LINE SMOOTH",
"579 0 OFFCURVE",
"716 131 OFFCURVE",
"716 353 CURVE SMOOTH",
"716 574 OFFCURVE",
"578 705 OFFCURVE",
"345 705 CURVE"
);
},
{
closed = 1;
nodes = (
"230 130 LINE",
"230 575 LINE",
"334 575 LINE SMOOTH",
"482 575 OFFCURVE",
"555 502 OFFCURVE",
"555 353 CURVE SMOOTH",
"555 204 OFFCURVE",
"482 130 OFFCURVE",
"334 130 CURVE"
);
},
{
closed = 1;
nodes = (
"993 116 LINE",
"1237 387 LINE",
"1237 491 LINE",
"813 491 LINE",
"813 375 LINE",
"1051 375 LINE",
"811 109 LINE",
"811 0 LINE",
"1247 0 LINE",
"1247 116 LINE"
);
}
);
width = 1280;
}
);
rightKerningGroup = uni01C5;
unicode = 01C5;
},
{
glyphname = E;
lastChange = "2017-11-26 07:35:25 +0000";
layers = (
{
anchors = (
{
name = mark0;
position = "{331, 0}";
},
{
name = mark1;
position = "{536, 10}";
},
{
name = mark2;
position = "{331, 705}";
},
{
name = mark3;
position = "{0, 0}";
},
{
name = mark4;
position = "{0, 0}";
}
);
layerId = UUID0;
paths = (
{
closed = 1;
nodes = (
"69 0 LINE",
"558 0 LINE",
"558 125 LINE",
"226 125 LINE",
"226 296 LINE",
"538 296 LINE",
"538 421 LINE",
"226 421 LINE",
"226 580 LINE",
"558 580 LINE",
"558 705 LINE",
"69 705 LINE"
);
}
);
width = 594;
}
);
rightKerningGroup = AE;
unicode = 0045;
},
{
glyphname = Eacute;
lastChange = "2017-11-26 07:35:25 +0000";
layers = (
{
anchors = (
{
name = mark0;
position = "{331, 0}";
},
{
name = mark1;
position = "{536, 10}";
},
{
name = mark2;
position = "{331, 865}";
},
{
name = mark3;
position = "{0, 0}";
},
{
name = mark4;
position = "{0, 0}";
}
);
layerId = UUID0;
paths = (
{
closed = 1;
nodes = (
"379 765 LINE",
"529 921 LINE",
"386 921 LINE",
"283 765 LINE"
);
},
{
closed = 1;
nodes = (
"69 0 LINE",
"558 0 LINE",
"558 125 LINE",
"226 125 LINE",
"226 296 LINE",
"538 296 LINE",
"538 421 LINE",
"226 421 LINE",
"226 580 LINE",
"558 580 LINE",
"558 705 LINE",
"69 705 LINE"
);
}
);
width = 594;
}
);
rightKerningGroup = AE;
unicode = 00C9;
},
{
glyphname = Ebreve;
lastChange = "2017-11-26 07:35:25 +0000";
layers = (
{
anchors = (
{
name = mark0;
position = "{331, 0}";
},
{
name = mark1;
position = "{536, 10}";
},
{
name = mark2;
position = "{331, 865}";
},
{
name = mark3;
position = "{0, 0}";
},
{
name = mark4;
position = "{0, 0}";
}
);
layerId = UUID0;
paths = (
{
closed = 1;
nodes = (
"417 774 OFFCURVE",
"484 811 OFFCURVE",
"510 883 CURVE",
"439 913 LINE",
"416 877 OFFCURVE",
"375 865 OFFCURVE",
"331 865 CURVE SMOOTH",
"287 865 OFFCURVE",
"246 877 OFFCURVE",
"223 913 CURVE",
"152 883 LINE",
"178 811 OFFCURVE",
"245 774 OFFCURVE",
"331 774 CURVE SMOOTH"
);
},
{
closed = 1;
nodes = (
"69 0 LINE",
"558 0 LINE",
"558 125 LINE",
"226 125 LINE",
"226 296 LINE",
"538 296 LINE",
"538 421 LINE",
"226 421 LINE",
"226 580 LINE",
"558 580 LINE",
"558 705 LINE",
"69 705 LINE"
);
}
);
width = 594;
}
);
rightKerningGroup = AE;
unicode = 0114;
},
{
glyphname = Ecaron;
lastChange = "2017-11-26 07:35:25 +0000";
layers = (
{
anchors = (
{
name = mark0;
position = "{331, 0}";
},
{
name = mark1;
position = "{536, 10}";
},
{
name = mark2;
position = "{331, 865}";
},
{
name = mark3;
position = "{0, 0}";
},
{
name = mark4;
position = "{0, 0}";
}
);
layerId = UUID0;
paths = (
{
closed = 1;
nodes = (
"392 921 LINE",
"331 837 LINE",
"270 921 LINE",
"154 921 LINE",
"287 765 LINE",
"375 765 LINE",
"508 921 LINE"
);
},
{
closed = 1;
nodes = (
"69 0 LINE",
"558 0 LINE",
"558 125 LINE",
"226 125 LINE",
"226 296 LINE",
"538 296 LINE",
"538 421 LINE",
"226 421 LINE",
"226 580 LINE",
"558 580 LINE",
"558 705 LINE",
"69 705 LINE"
);
}
);
width = 594;
}
);
rightKerningGroup = AE;
unicode = 011A;
},
{
glyphname = Ecedilla;
lastChange = "2017-11-26 07:35:25 +0000";
layers = (
{
anchors = (
{
name = mark0;
position = "{331, 0}";
},
{
name = mark1;
position = "{536, 10}";
},
{
name = mark2;
position = "{331, 705}";
},
{
name = mark3;
position = "{0, 0}";
},
{
name = mark4;
position = "{0, 0}";
}
);
layerId = UUID0;
paths = (
{
closed = 1;
nodes = (
"558 580 LINE",
"558 705 LINE",
"69 705 LINE",
"69 0 LINE",
"279 0 LINE",
"270 -75 LINE",
"290 -96 LINE",
"299 -93 OFFCURVE",
"313 -90 OFFCURVE",
"325 -90 CURVE SMOOTH",
"346 -90 OFFCURVE",
"357 -97 OFFCURVE",
"357 -109 CURVE SMOOTH",
"357 -128 OFFCURVE",
"337 -134 OFFCURVE",
"312 -134 CURVE SMOOTH",
"290 -134 OFFCURVE",
"266 -130 OFFCURVE",
"233 -120 CURVE",
"222 -179 LINE",
"250 -191 OFFCURVE",
"289 -197 OFFCURVE",
"316 -197 CURVE SMOOTH",
"406 -197 OFFCURVE",
"452 -159 OFFCURVE",
"452 -109 CURVE SMOOTH",
"452 -66 OFFCURVE",
"420 -40 OFFCURVE",
"368 -40 CURVE SMOOTH",
"364 -40 OFFCURVE",
"360 -40 OFFCURVE",
"356 -41 CURVE",
"362 0 LINE",
"558 0 LINE",
"558 125 LINE",
"226 125 LINE",
"226 296 LINE",
"538 296 LINE",
"538 421 LINE",
"226 421 LINE",
"226 580 LINE"
);
}
);
width = 594;
}
);
rightKerningGroup = AE;
unicode = 0228;
},
{
glyphname = Ecedillabreve;
lastChange = "2017-11-26 07:35:25 +0000";
layers = (
{
anchors = (
{
name = mark0;
position = "{331, 0}";
},
{
name = mark1;
position = "{536, 10}";
},
{
name = mark2;
position = "{331, 865}";
},
{
name = mark3;
position = "{0, 0}";
},
{
name = mark4;
position = "{0, 0}";
}
);
layerId = UUID0;
paths = (
{
closed = 1;
nodes = (
"417 774 OFFCURVE",
"484 811 OFFCURVE",
"510 883 CURVE",
"439 913 LINE",
"416 877 OFFCURVE",
"375 865 OFFCURVE",
"331 865 CURVE SMOOTH",
"287 865 OFFCURVE",
"246 877 OFFCURVE",
"223 913 CURVE",
"152 883 LINE",
"178 811 OFFCURVE",
"245 774 OFFCURVE",
"331 774 CURVE SMOOTH"
);
},
{
closed = 1;
nodes = (
"558 580 LINE",
"558 705 LINE",
"69 705 LINE",
"69 0 LINE",
"279 0 LINE",
"270 -75 LINE",
"290 -96 LINE",
"299 -93 OFFCURVE",
"313 -90 OFFCURVE",
"325 -90 CURVE SMOOTH",
"346 -90 OFFCURVE",
"357 -97 OFFCURVE",
"357 -109 CURVE SMOOTH",
"357 -128 OFFCURVE",
"337 -134 OFFCURVE",
"312 -134 CURVE SMOOTH",
"290 -134 OFFCURVE",
"266 -130 OFFCURVE",
"233 -120 CURVE",
"222 -179 LINE",
"250 -191 OFFCURVE",
"289 -197 OFFCURVE",
"316 -197 CURVE SMOOTH",
"406 -197 OFFCURVE",
"452 -159 OFFCURVE",
"452 -109 CURVE SMOOTH",
"452 -66 OFFCURVE",
"420 -40 OFFCURVE",
"368 -40 CURVE SMOOTH",
"364 -40 OFFCURVE",
"360 -40 OFFCURVE",
"356 -41 CURVE",
"362 0 LINE",
"558 0 LINE",
"558 125 LINE",
"226 125 LINE",
"226 296 LINE",
"538 296 LINE",
"538 421 LINE",
"226 421 LINE",
"226 580 LINE"
);
}
);
width = 594;
}
);
rightKerningGroup = AE;
unicode = 1E1C;
},
{
glyphname = Ecircumflex;
lastChange = "2017-11-26 07:35:25 +0000";
layers = (
{
anchors = (
{
name = mark0;
position = "{331, 0}";
},
{
name = mark1;
position = "{536, 10}";
},
{
name = mark2;
position = "{331, 865}";
},
{
name = mark3;
position = "{0, 0}";
},
{
name = mark4;
position = "{0, 0}";
}
);
layerId = UUID0;
paths = (
{
closed = 1;
nodes = (
"270 765 LINE",
"331 849 LINE",
"392 765 LINE",
"508 765 LINE",
"375 921 LINE",
"287 921 LINE",
"154 765 LINE"
);
},
{
closed = 1;
nodes = (
"69 0 LINE",
"558 0 LINE",
"558 125 LINE",
"226 125 LINE",
"226 296 LINE",
"538 296 LINE",
"538 421 LINE",
"226 421 LINE",
"226 580 LINE",
"558 580 LINE",
"558 705 LINE",
"69 705 LINE"
);
}
);
width = 594;
}
);
rightKerningGroup = AE;
unicode = 00CA;
},
{
glyphname = Ecircumflexacute;
lastChange = "2017-11-26 07:35:25 +0000";
layers = (
{
anchors = (
{
name = mark0;
position = "{331, 0}";
},
{
name = mark1;
position = "{536, 10}";
},
{
name = mark2;
position = "{331, 865}";
},
{
name = mark3;
position = "{0, 0}";
},
{
name = mark4;
position = "{0, 0}";
}
);
layerId = UUID0;
paths = (
{
closed = 1;
nodes = (
"501 872 LINE",
"624 1013 LINE",
"496 1013 LINE",
"426 872 LINE"
);
},
{
closed = 1;
nodes = (
"268 765 LINE",
"331 834 LINE",
"394 765 LINE",
"508 765 LINE",
"375 903 LINE",
"287 903 LINE",
"154 765 LINE"
);
},
{
closed = 1;
nodes = (
"69 0 LINE",
"558 0 LINE",
"558 125 LINE",
"226 125 LINE",
"226 296 LINE",
"538 296 LINE",
"538 421 LINE",
"226 421 LINE",
"226 580 LINE",
"558 580 LINE",
"558 705 LINE",
"69 705 LINE"
);
}
);
width = 594;
}
);
rightKerningGroup = AE;
unicode = 1EBE;
},
{
glyphname = Ecircumflexdotbelow;
lastChange = "2017-11-26 07:35:25 +0000";
layers = (
{
anchors = (
{
name = mark0;
position = "{331, -170}";
},
{
name = mark1;
position = "{536, 10}";
},
{
name = mark2;
position = "{331, 865}";
},
{
name = mark3;
position = "{0, 0}";
},
{
name = mark4;
position = "{0, 0}";
}
);
layerId = UUID0;
paths = (
{
closed = 1;
nodes = (
"270 765 LINE",
"331 849 LINE",
"392 765 LINE",
"508 765 LINE",
"375 921 LINE",
"287 921 LINE",
"154 765 LINE"
);
},
{
closed = 1;
nodes = (
"69 0 LINE",
"558 0 LINE",
"558 125 LINE",
"226 125 LINE",
"226 296 LINE",
"538 296 LINE",
"538 421 LINE",
"226 421 LINE",
"226 580 LINE",
"558 580 LINE",
"558 705 LINE",
"69 705 LINE"
);
},
{
closed = 1;
nodes = (
"260 -65 LINE",
"260 -200 LINE",
"402 -200 LINE",
"402 -65 LINE"
);
}
);
width = 594;
}
);
rightKerningGroup = AE;
unicode = 1EC6;
},
{
glyphname = Ecircumflexgrave;
lastChange = "2017-11-26 07:35:25 +0000";
layers = (
{
anchors = (
{
name = mark0;
position = "{331, 0}";
},
{
name = mark1;
position = "{536, 10}";
},
{
name = mark2;
position = "{331, 865}";
},
{
name = mark3;
position = "{0, 0}";
},
{
name = mark4;
position = "{0, 0}";
}
);
layerId = UUID0;
paths = (
{
closed = 1;
nodes = (
"468 872 LINE",
"543 872 LINE",
"473 1013 LINE",
"345 1013 LINE"
);
},
{
closed = 1;
nodes = (
"268 765 LINE",
"331 834 LINE",
"394 765 LINE",
"508 765 LINE",
"375 903 LINE",
"287 903 LINE",
"154 765 LINE"
);
},
{
closed = 1;
nodes = (
"69 0 LINE",
"558 0 LINE",
"558 125 LINE",
"226 125 LINE",
"226 296 LINE",
"538 296 LINE",
"538 421 LINE",
"226 421 LINE",
"226 580 LINE",
"558 580 LINE",
"558 705 LINE",
"69 705 LINE"
);
}
);
width = 594;
}
);
rightKerningGroup = AE;
unicode = 1EC0;
},
{
glyphname = Ecircumflexhookabove;
lastChange = "2017-11-26 07:35:25 +0000";
layers = (
{
anchors = (
{
name = mark0;
position = "{331, 0}";
},
{
name = mark1;
position = "{536, 10}";
},
{
name = mark2;
position = "{331, 865}";
},
{
name = mark3;
position = "{0, 0}";
},
{
name = mark4;
position = "{0, 0}";
}
);
layerId = UUID0;
paths = (
{
closed = 1;
nodes = (
"501 881 LINE",
"501 915 OFFCURVE",
"584 907 OFFCURVE",
"584 959 CURVE SMOOTH",
"584 994 OFFCURVE",
"543 1019 OFFCURVE",
"477 1019 CURVE SMOOTH",
"436 1019 OFFCURVE",
"406 1011 OFFCURVE",
"381 1001 CURVE",
"401 950 LINE",
"424 958 OFFCURVE",
"444 961 OFFCURVE",
"458 961 CURVE SMOOTH",
"482 961 OFFCURVE",
"490 954 OFFCURVE",
"490 948 CURVE SMOOTH",
"490 937 OFFCURVE",
"425 936 OFFCURVE",
"425 893 CURVE SMOOTH",
"425 873 LINE",
"501 873 LINE"
);
},
{
closed = 1;
nodes = (
"268 765 LINE",
"331 834 LINE",
"394 765 LINE",
"508 765 LINE",
"375 903 LINE",
"287 903 LINE",
"154 765 LINE"
);
},
{
closed = 1;
nodes = (
"69 0 LINE",
"558 0 LINE",
"558 125 LINE",
"226 125 LINE",
"226 296 LINE",
"538 296 LINE",
"538 421 LINE",
"226 421 LINE",
"226 580 LINE",
"558 580 LINE",
"558 705 LINE",
"69 705 LINE"
);
}
);
width = 594;
}
);
rightKerningGroup = AE;
unicode = 1EC2;
},
{
glyphname = Ecircumflextilde;
lastChange = "2017-11-26 07:35:25 +0000";
layers = (
{
anchors = (
{
name = mark0;
position = "{331, 0}";
},
{
name = mark1;
position = "{536, 10}";
},
{
name = mark2;
position = "{331, 865}";
},
{
name = mark3;
position = "{0, 0}";
},
{
name = mark4;
position = "{0, 0}";
}
);
layerId = UUID0;
paths = (
{
closed = 1;
nodes = (
"222 921 LINE",
"225 942 OFFCURVE",
"240 950 OFFCURVE",
"264 950 CURVE SMOOTH",
"302 950 OFFCURVE",
"345 918 OFFCURVE",
"396 918 CURVE SMOOTH",
"456 918 OFFCURVE",
"506 963 OFFCURVE",
"506 1023 CURVE",
"440 1023 LINE",
"437 1002 OFFCURVE",
"422 994 OFFCURVE",
"398 994 CURVE SMOOTH",
"360 994 OFFCURVE",
"317 1026 OFFCURVE",
"266 1026 CURVE SMOOTH",
"206 1026 OFFCURVE",
"156 981 OFFCURVE",
"156 921 CURVE"
);
},
{
closed = 1;
nodes = (
"268 765 LINE",
"331 834 LINE",
"394 765 LINE",
"508 765 LINE",
"375 903 LINE",
"287 903 LINE",
"154 765 LINE"
);
},
{
closed = 1;
nodes = (
"69 0 LINE",
"558 0 LINE",
"558 125 LINE",
"226 125 LINE",
"226 296 LINE",
"538 296 LINE",
"538 421 LINE",
"226 421 LINE",
"226 580 LINE",
"558 580 LINE",
"558 705 LINE",
"69 705 LINE"
);
}
);
width = 594;
}
);
rightKerningGroup = AE;
unicode = 1EC4;
},
{
glyphname = Edblgrave;
lastChange = "2017-11-26 07:35:25 +0000";
layers = (
{
anchors = (
{
name = mark0;
position = "{331, 0}";
},
{
name = mark1;
position = "{536, 10}";
},
{
name = mark2;
position = "{331, 865}";
},
{
name = mark3;
position = "{0, 0}";
},
{
name = mark4;
position = "{0, 0}";
}
);
layerId = UUID0;
paths = (
{
closed = 1;
nodes = (
"223 765 LINE",
"299 765 LINE",
"226 921 LINE",
"123 921 LINE"
);
},
{
closed = 1;
nodes = (
"363 765 LINE",
"439 765 LINE",
"366 921 LINE",
"263 921 LINE"
);
},
{
closed = 1;
nodes = (
"69 0 LINE",
"558 0 LINE",
"558 125 LINE",
"226 125 LINE",
"226 296 LINE",
"538 296 LINE",
"538 421 LINE",
"226 421 LINE",
"226 580 LINE",
"558 580 LINE",
"558 705 LINE",
"69 705 LINE"
);
}
);
width = 594;
}
);
rightKerningGroup = AE;
unicode = 0204;
},
{
glyphname = Edieresis;
lastChange = "2017-11-26 07:35:25 +0000";
layers = (
{
anchors = (
{
name = mark0;
position = "{331, 0}";
},
{
name = mark1;
position = "{536, 10}";
},
{
name = mark2;
position = "{331, 865}";
},
{
name = mark3;
position = "{0, 0}";
},
{
name = mark4;
position = "{0, 0}";
}
);
layerId = UUID0;
paths = (
{
closed = 1;
nodes = (
"164 911 LINE",
"164 776 LINE",
"306 776 LINE",
"306 911 LINE"
);
},
{
closed = 1;
nodes = (
"356 911 LINE",
"356 776 LINE",
"498 776 LINE",
"498 911 LINE"
);
},
{
closed = 1;
nodes = (
"69 0 LINE",
"558 0 LINE",
"558 125 LINE",
"226 125 LINE",
"226 296 LINE",
"538 296 LINE",
"538 421 LINE",
"226 421 LINE",
"226 580 LINE",
"558 580 LINE",
"558 705 LINE",
"69 705 LINE"
);
}
);
width = 594;
}
);
rightKerningGroup = AE;
unicode = 00CB;
},
{
glyphname = Edotaccent;
lastChange = "2017-11-26 07:35:25 +0000";
layers = (
{
anchors = (
{
name = mark0;
position = "{331, 0}";
},
{
name = mark1;
position = "{536, 10}";
},
{
name = mark2;
position = "{331, 865}";
},
{
name = mark3;
position = "{0, 0}";
},
{
name = mark4;
position = "{0, 0}";
}
);
layerId = UUID0;
paths = (
{
closed = 1;
nodes = (
"248 916 LINE",
"248 771 LINE",
"414 771 LINE",
"414 916 LINE"
);
},
{
closed = 1;
nodes = (
"69 0 LINE",
"558 0 LINE",
"558 125 LINE",
"226 125 LINE",
"226 296 LINE",
"538 296 LINE",
"538 421 LINE",
"226 421 LINE",
"226 580 LINE",
"558 580 LINE",
"558 705 LINE",
"69 705 LINE"
);
}
);
width = 594;
}
);
rightKerningGroup = AE;
unicode = 0116;
},
{
glyphname = Edotbelow;
lastChange = "2017-11-26 07:35:25 +0000";
layers = (
{
anchors = (
{
name = mark0;
position = "{331, -170}";
},
{
name = mark1;
position = "{536, 10}";
},
{
name = mark2;
position = "{331, 705}";
},
{
name = mark3;
position = "{0, 0}";
},
{
name = mark4;
position = "{0, 0}";
}
);
layerId = UUID0;
paths = (
{
closed = 1;
nodes = (
"69 0 LINE",
"558 0 LINE",
"558 125 LINE",
"226 125 LINE",
"226 296 LINE",
"538 296 LINE",
"538 421 LINE",
"226 421 LINE",
"226 580 LINE",
"558 580 LINE",
"558 705 LINE",
"69 705 LINE"
);
},
{
closed = 1;
nodes = (
"260 -65 LINE",
"260 -200 LINE",
"402 -200 LINE",
"402 -65 LINE"
);
}
);
width = 594;
}
);
rightKerningGroup = AE;
unicode = 1EB8;
},
{
glyphname = Egrave;
lastChange = "2017-11-26 07:35:25 +0000";
layers = (
{
anchors = (
{
name = mark0;
position = "{331, 0}";
},
{
name = mark1;
position = "{536, 10}";
},
{
name = mark2;
position = "{331, 865}";
},
{
name = mark3;
position = "{0, 0}";
},
{
name = mark4;
position = "{0, 0}";
}
);
layerId = UUID0;
paths = (
{
closed = 1;
nodes = (
"283 765 LINE",
"379 765 LINE",
"276 921 LINE",
"133 921 LINE"
);
},
{
closed = 1;
nodes = (
"69 0 LINE",
"558 0 LINE",
"558 125 LINE",
"226 125 LINE",
"226 296 LINE",
"538 296 LINE",
"538 421 LINE",
"226 421 LINE",
"226 580 LINE",
"558 580 LINE",
"558 705 LINE",
"69 705 LINE"
);
}
);
width = 594;
}
);
rightKerningGroup = AE;
unicode = 00C8;
},
{
glyphname = Ehookabove;
lastChange = "2017-11-26 07:35:25 +0000";
layers = (
{
anchors = (
{
name = mark0;
position = "{331, 0}";
},
{
name = mark1;
position = "{536, 10}";
},
{
name = mark2;
position = "{331, 865}";
},
{
name = mark3;
position = "{0, 0}";
},
{
name = mark4;
position = "{0, 0}";
}
);
layerId = UUID0;
paths = (
{
closed = 1;
nodes = (
"369 778 LINE",
"369 812 OFFCURVE",
"452 809 OFFCURVE",
"452 861 CURVE SMOOTH",
"452 896 OFFCURVE",
"411 925 OFFCURVE",
"345 925 CURVE SMOOTH",
"304 925 OFFCURVE",
"274 917 OFFCURVE",
"249 907 CURVE",
"269 854 LINE",
"292 862 OFFCURVE",
"312 865 OFFCURVE",
"326 865 CURVE SMOOTH",
"350 865 OFFCURVE",
"358 858 OFFCURVE",
"358 849 CURVE SMOOTH",
"358 831 OFFCURVE",
"293 831 OFFCURVE",
"293 787 CURVE SMOOTH",
"293 765 LINE",
"369 765 LINE"
);
},
{
closed = 1;
nodes = (
"69 0 LINE",
"558 0 LINE",
"558 125 LINE",
"226 125 LINE",
"226 296 LINE",
"538 296 LINE",
"538 421 LINE",
"226 421 LINE",
"226 580 LINE",
"558 580 LINE",
"558 705 LINE",
"69 705 LINE"
);
}
);
width = 594;
}
);
rightKerningGroup = AE;
unicode = 1EBA;
},
{
glyphname = Einvertedbreve;
lastChange = "2017-11-26 07:35:25 +0000";
layers = (
{
anchors = (
{
name = mark0;
position = "{331, 0}";
},
{
name = mark1;
position = "{536, 10}";
},
{
name = mark2;
position = "{331, 865}";
},
{
name = mark3;
position = "{0, 0}";
},
{
name = mark4;
position = "{0, 0}";
}
);
layerId = UUID0;
paths = (
{
closed = 1;
nodes = (
"245 913 OFFCURVE",
"178 876 OFFCURVE",
"152 804 CURVE",
"223 774 LINE",
"246 810 OFFCURVE",
"287 822 OFFCURVE",
"331 822 CURVE SMOOTH",
"375 822 OFFCURVE",
"416 810 OFFCURVE",
"439 774 CURVE",
"510 804 LINE",
"484 876 OFFCURVE",
"417 913 OFFCURVE",
"331 913 CURVE SMOOTH"
);
},
{
closed = 1;
nodes = (
"69 0 LINE",
"558 0 LINE",
"558 125 LINE",
"226 125 LINE",
"226 296 LINE",
"538 296 LINE",
"538 421 LINE",
"226 421 LINE",
"226 580 LINE",
"558 580 LINE",
"558 705 LINE",
"69 705 LINE"
);
}
);
width = 594;
}
);
rightKerningGroup = AE;
unicode = 0206;
},
{
glyphname = Emacron;
lastChange = "2017-11-26 07:35:25 +0000";
layers = (
{
anchors = (
{
name = mark0;
position = "{331, 0}";
},
{
name = mark1;
position = "{536, 10}";
},
{
name = mark2;
position = "{331, 865}";
},
{
name = mark3;
position = "{0, 0}";
},
{
name = mark4;
position = "{0, 0}";
}
);
layerId = UUID0;
paths = (
{
closed = 1;
nodes = (
"174 795 LINE",
"488 795 LINE",
"488 891 LINE",
"174 891 LINE"
);
},
{
closed = 1;
nodes = (
"69 0 LINE",
"558 0 LINE",
"558 125 LINE",
"226 125 LINE",
"226 296 LINE",
"538 296 LINE",
"538 421 LINE",
"226 421 LINE",
"226 580 LINE",
"558 580 LINE",
"558 705 LINE",
"69 705 LINE"
);
}
);
width = 594;
}
);
rightKerningGroup = AE;
unicode = 0112;
},
{
glyphname = Emacronacute;
lastChange = "2017-11-26 07:35:25 +0000";
layers = (
{
anchors = (
{
name = mark0;
position = "{331, 0}";
},
{
name = mark1;
position = "{536, 10}";
},
{
name = mark2;
position = "{331, 1025}";
},
{
name = mark3;
position = "{0, 0}";
},
{
name = mark4;
position = "{0, 0}";
}
);
layerId = UUID0;
paths = (
{
closed = 1;
nodes = (
"379 925 LINE",
"529 1081 LINE",
"386 1081 LINE",
"283 925 LINE"
);
},
{
closed = 1;
nodes = (
"174 795 LINE",
"488 795 LINE",
"488 891 LINE",
"174 891 LINE"
);
},
{
closed = 1;
nodes = (
"69 0 LINE",
"558 0 LINE",
"558 125 LINE",
"226 125 LINE",
"226 296 LINE",
"538 296 LINE",
"538 421 LINE",
"226 421 LINE",
"226 580 LINE",
"558 580 LINE",
"558 705 LINE",
"69 705 LINE"
);
}
);
width = 594;
}
);
rightKerningGroup = AE;
unicode = 1E16;
},
{
glyphname = Emacrongrave;
lastChange = "2017-11-26 07:35:25 +0000";
layers = (
{
anchors = (
{
name = mark0;
position = "{331, 0}";
},
{
name = mark1;
position = "{536, 10}";
},
{
name = mark2;
position = "{331, 1025}";
},
{
name = mark3;
position = "{0, 0}";
},
{
name = mark4;
position = "{0, 0}";
}
);
layerId = UUID0;
paths = (
{
closed = 1;
nodes = (
"283 925 LINE",
"379 925 LINE",
"276 1081 LINE",
"133 1081 LINE"
);
},
{
closed = 1;
nodes = (
"174 795 LINE",
"488 795 LINE",
"488 891 LINE",
"174 891 LINE"
);
},
{
closed = 1;
nodes = (
"69 0 LINE",
"558 0 LINE",
"558 125 LINE",
"226 125 LINE",
"226 296 LINE",
"538 296 LINE",
"538 421 LINE",
"226 421 LINE",
"226 580 LINE",
"558 580 LINE",
"558 705 LINE",
"69 705 LINE"
);
}
);
width = 594;
}
);
rightKerningGroup = AE;
unicode = 1E14;
},
{
glyphname = Eogonek;
lastChange = "2017-11-26 07:35:25 +0000";
layers = (
{
anchors = (
{
name = mark0;
position = "{0, 0}";
},
{
name = mark1;
position = "{0, 0}";
},
{
name = mark2;
position = "{331, 705}";
},
{
name = mark3;
position = "{0, 0}";
},
{
name = mark4;
position = "{0, 0}";
}
);
layerId = UUID0;
paths = (
{
closed = 1;
nodes = (
"580 -105 LINE",
"561 -113 OFFCURVE",
"543 -117 OFFCURVE",
"526 -117 CURVE SMOOTH",
"488 -117 OFFCURVE",
"467 -99 OFFCURVE",
"467 -64 CURVE SMOOTH",
"467 -25 OFFCURVE",
"494 0 OFFCURVE",
"536 0 CURVE SMOOTH",
"558 0 LINE",
"558 125 LINE",
"226 125 LINE",
"226 296 LINE",
"538 296 LINE",
"538 421 LINE",
"226 421 LINE",
"226 580 LINE",
"558 580 LINE",
"558 705 LINE",
"69 705 LINE",
"69 0 LINE",
"406 0 LINE",
"381 -23 OFFCURVE",
"368 -53 OFFCURVE",
"368 -87 CURVE SMOOTH",
"368 -151 OFFCURVE",
"421 -197 OFFCURVE",
"496 -197 CURVE SMOOTH",
"532 -197 OFFCURVE",
"567 -190 OFFCURVE",
"597 -177 CURVE"
);
}
);
width = 594;
}
);
rightKerningGroup = AE;
unicode = 0118;
},
{
glyphname = Etilde;
lastChange = "2017-11-26 07:35:25 +0000";
layers = (
{
anchors = (
{
name = mark0;
position = "{331, 0}";
},
{
name = mark1;
position = "{536, 10}";
},
{
name = mark2;
position = "{331, 865}";
},
{
name = mark3;
position = "{0, 0}";
},
{
name = mark4;
position = "{0, 0}";
}
);
layerId = UUID0;
paths = (
{
closed = 1;
nodes = (
"222 771 LINE",
"225 802 OFFCURVE",
"240 820 OFFCURVE",
"264 820 CURVE SMOOTH",
"302 820 OFFCURVE",
"345 768 OFFCURVE",
"396 768 CURVE SMOOTH",
"456 768 OFFCURVE",
"506 813 OFFCURVE",
"506 916 CURVE",
"440 916 LINE",
"437 885 OFFCURVE",
"422 867 OFFCURVE",
"398 867 CURVE SMOOTH",
"360 867 OFFCURVE",
"317 919 OFFCURVE",
"266 919 CURVE SMOOTH",
"206 919 OFFCURVE",
"156 874 OFFCURVE",
"156 771 CURVE"
);
},
{
closed = 1;
nodes = (
"69 0 LINE",
"558 0 LINE",
"558 125 LINE",
"226 125 LINE",
"226 296 LINE",
"538 296 LINE",
"538 421 LINE",
"226 421 LINE",
"226 580 LINE",
"558 580 LINE",
"558 705 LINE",
"69 705 LINE"
);
}
);
width = 594;
}
);
rightKerningGroup = AE;
unicode = 1EBC;
},
{
glyphname = F;
lastChange = "2017-11-26 07:35:25 +0000";
layers = (
{
anchors = (
{
name = mark0;
position = "{316, 0}";
},
{
name = mark1;
position = "{0, 0}";
},
{
name = mark2;
position = "{288, 705}";
},
{
name = mark3;
position = "{0, 0}";
},
{
name = mark4;
position = "{0, 0}";
}
);
layerId = UUID0;
paths = (
{
closed = 1;
nodes = (
"69 0 LINE",
"228 0 LINE",
"228 295 LINE",
"528 295 LINE",
"528 422 LINE",
"228 422 LINE",
"228 578 LINE",
"548 578 LINE",
"548 705 LINE",
"69 705 LINE"
);
}
);
width = 573;
}
);
unicode = 0046;
},
{
glyphname = G;
lastChange = "2017-11-26 07:35:25 +0000";
layers = (
{
anchors = (
{
name = mark0;
position = "{415, 0}";
},
{
name = mark1;
position = "{0, 0}";
},
{
name = mark2;
position = "{408, 705}";
},
{
name = mark3;
position = "{0, 0}";
},
{
name = mark4;
position = "{0, 0}";
}
);
layerId = UUID0;
paths = (
{
closed = 1;
nodes = (
"398 391 LINE",
"398 279 LINE",
"534 279 LINE",
"534 129 LINE",
"497 120 OFFCURVE",
"458 115 OFFCURVE",
"422 115 CURVE SMOOTH",
"281 115 OFFCURVE",
"212 193 OFFCURVE",
"212 353 CURVE SMOOTH",
"212 509 OFFCURVE",
"279 586 OFFCURVE",
"413 586 CURVE SMOOTH",
"484 586 OFFCURVE",
"542 567 OFFCURVE",
"608 521 CURVE",
"659 636 LINE",
"602 685 OFFCURVE",
"509 714 OFFCURVE",
"408 714 CURVE SMOOTH",
"189 714 OFFCURVE",
"49 575 OFFCURVE",
"49 353 CURVE SMOOTH",
"49 127 OFFCURVE",
"188 -9 OFFCURVE",
"415 -9 CURVE SMOOTH",
"511 -9 OFFCURVE",
"608 10 OFFCURVE",
"678 44 CURVE",
"678 391 LINE"
);
}
);
width = 739;
}
);
leftKerningGroup = C;
rightKerningGroup = G;
unicode = 0047;
},
{
glyphname = Gbreve;
lastChange = "2017-11-26 07:35:25 +0000";
layers = (
{
anchors = (
{
name = mark0;
position = "{415, 0}";
},
{
name = mark1;
position = "{0, 0}";
},
{
name = mark2;
position = "{408, 865}";
},
{
name = mark3;
position = "{0, 0}";
},
{
name = mark4;
position = "{0, 0}";
}
);
layerId = UUID0;
paths = (
{
closed = 1;
nodes = (
"494 774 OFFCURVE",
"561 811 OFFCURVE",
"587 883 CURVE",
"516 913 LINE",
"493 877 OFFCURVE",
"452 865 OFFCURVE",
"408 865 CURVE SMOOTH",
"364 865 OFFCURVE",
"323 877 OFFCURVE",
"300 913 CURVE",
"229 883 LINE",
"255 811 OFFCURVE",
"322 774 OFFCURVE",
"408 774 CURVE SMOOTH"
);
},
{
closed = 1;
nodes = (
"398 391 LINE",
"398 279 LINE",
"534 279 LINE",
"534 129 LINE",
"497 120 OFFCURVE",
"458 115 OFFCURVE",
"422 115 CURVE SMOOTH",
"281 115 OFFCURVE",
"212 193 OFFCURVE",
"212 353 CURVE SMOOTH",
"212 509 OFFCURVE",
"279 586 OFFCURVE",
"413 586 CURVE SMOOTH",
"484 586 OFFCURVE",
"542 567 OFFCURVE",
"608 521 CURVE",
"659 636 LINE",
"602 685 OFFCURVE",
"509 714 OFFCURVE",
"408 714 CURVE SMOOTH",
"189 714 OFFCURVE",
"49 575 OFFCURVE",
"49 353 CURVE SMOOTH",
"49 127 OFFCURVE",
"188 -9 OFFCURVE",
"415 -9 CURVE SMOOTH",
"511 -9 OFFCURVE",
"608 10 OFFCURVE",
"678 44 CURVE",
"678 391 LINE"
);
}
);
width = 739;
}
);
leftKerningGroup = C;
rightKerningGroup = G;
unicode = 011E;
},
{
glyphname = Gcaron;
lastChange = "2017-11-26 07:35:25 +0000";
layers = (
{
anchors = (
{
name = mark0;
position = "{415, 0}";
},
{
name = mark1;
position = "{0, 0}";
},
{
name = mark2;
position = "{408, 865}";
},
{
name = mark3;
position = "{0, 0}";
},
{
name = mark4;
position = "{0, 0}";
}
);
layerId = UUID0;
paths = (
{
closed = 1;
nodes = (
"452 765 LINE",
"585 921 LINE",
"469 921 LINE",
"408 837 LINE",
"347 921 LINE",
"231 921 LINE",
"364 765 LINE"
);
},
{
closed = 1;
nodes = (
"398 391 LINE",
"398 279 LINE",
"534 279 LINE",
"534 129 LINE",
"497 120 OFFCURVE",
"458 115 OFFCURVE",
"422 115 CURVE SMOOTH",
"281 115 OFFCURVE",
"212 193 OFFCURVE",
"212 353 CURVE SMOOTH",
"212 509 OFFCURVE",
"279 586 OFFCURVE",
"413 586 CURVE SMOOTH",
"484 586 OFFCURVE",
"542 567 OFFCURVE",
"608 521 CURVE",
"659 636 LINE",
"602 685 OFFCURVE",
"509 714 OFFCURVE",
"408 714 CURVE SMOOTH",
"189 714 OFFCURVE",
"49 575 OFFCURVE",
"49 353 CURVE SMOOTH",
"49 127 OFFCURVE",
"188 -9 OFFCURVE",
"415 -9 CURVE SMOOTH",
"511 -9 OFFCURVE",
"608 10 OFFCURVE",
"678 44 CURVE",
"678 391 LINE"
);
}
);
width = 739;
}
);
leftKerningGroup = C;
rightKerningGroup = G;
unicode = 01E6;
},
{
glyphname = Gcircumflex;
lastChange = "2017-11-26 07:35:25 +0000";
layers = (
{
anchors = (
{
name = mark0;
position = "{415, 0}";
},
{
name = mark1;
position = "{0, 0}";
},
{
name = mark2;
position = "{408, 865}";
},
{
name = mark3;
position = "{0, 0}";
},
{
name = mark4;
position = "{0, 0}";
}
);
layerId = UUID0;
paths = (
{
closed = 1;
nodes = (
"408 849 LINE",
"469 765 LINE",
"585 765 LINE",
"452 921 LINE",
"364 921 LINE",
"231 765 LINE",
"347 765 LINE"
);
},
{
closed = 1;
nodes = (
"398 391 LINE",
"398 279 LINE",
"534 279 LINE",
"534 129 LINE",
"497 120 OFFCURVE",
"458 115 OFFCURVE",
"422 115 CURVE SMOOTH",
"281 115 OFFCURVE",
"212 193 OFFCURVE",
"212 353 CURVE SMOOTH",
"212 509 OFFCURVE",
"279 586 OFFCURVE",
"413 586 CURVE SMOOTH",
"484 586 OFFCURVE",
"542 567 OFFCURVE",
"608 521 CURVE",
"659 636 LINE",
"602 685 OFFCURVE",
"509 714 OFFCURVE",
"408 714 CURVE SMOOTH",
"189 714 OFFCURVE",
"49 575 OFFCURVE",
"49 353 CURVE SMOOTH",
"49 127 OFFCURVE",
"188 -9 OFFCURVE",
"415 -9 CURVE SMOOTH",
"511 -9 OFFCURVE",
"608 10 OFFCURVE",
"678 44 CURVE",
"678 391 LINE"
);
}
);
width = 739;
}
);
leftKerningGroup = C;
rightKerningGroup = G;
unicode = 011C;
},
{
glyphname = Gcommaaccent;
lastChange = "2017-11-26 07:35:25 +0000";
layers = (
{
anchors = (
{
name = mark0;
position = "{415, -170}";
},
{
name = mark1;
position = "{0, 0}";
},
{
name = mark2;
position = "{408, 705}";
},
{
name = mark3;
position = "{0, 0}";
},
{
name = mark4;
position = "{0, 0}";
}
);
layerId = UUID0;
paths = (
{
closed = 1;
nodes = (
"398 391 LINE",
"398 279 LINE",
"534 279 LINE",
"534 129 LINE",
"497 120 OFFCURVE",
"458 115 OFFCURVE",
"422 115 CURVE SMOOTH",
"281 115 OFFCURVE",
"212 193 OFFCURVE",
"212 353 CURVE SMOOTH",
"212 509 OFFCURVE",
"279 586 OFFCURVE",
"413 586 CURVE SMOOTH",
"484 586 OFFCURVE",
"542 567 OFFCURVE",
"608 521 CURVE",
"659 636 LINE",
"602 685 OFFCURVE",
"509 714 OFFCURVE",
"408 714 CURVE SMOOTH",
"189 714 OFFCURVE",
"49 575 OFFCURVE",
"49 353 CURVE SMOOTH",
"49 127 OFFCURVE",
"188 -9 OFFCURVE",
"415 -9 CURVE SMOOTH",
"511 -9 OFFCURVE",
"608 10 OFFCURVE",
"678 44 CURVE",
"678 391 LINE"
);
},
{
closed = 1;
nodes = (
"338 -181 LINE",
"410 -181 LINE",
"406 -201 OFFCURVE",
"396 -219 OFFCURVE",
"375 -238 CURVE",
"430 -276 LINE",
"477 -235 OFFCURVE",
"491 -189 OFFCURVE",
"491 -130 CURVE SMOOTH",
"491 -65 LINE",
"338 -65 LINE"
);
}
);
width = 739;
}
);
leftKerningGroup = C;
rightKerningGroup = G;
unicode = 0122;
},
{
glyphname = Gdotaccent;
lastChange = "2017-11-26 07:35:25 +0000";
layers = (
{
anchors = (
{
name = mark0;
position = "{415, 0}";
},
{
name = mark1;
position = "{0, 0}";
},
{
name = mark2;
position = "{408, 865}";
},
{
name = mark3;
position = "{0, 0}";
},
{
name = mark4;
position = "{0, 0}";
}
);
layerId = UUID0;
paths = (
{
closed = 1;
nodes = (
"491 916 LINE",
"325 916 LINE",
"325 771 LINE",
"491 771 LINE"
);
},
{
closed = 1;
nodes = (
"398 391 LINE",
"398 279 LINE",
"534 279 LINE",
"534 129 LINE",
"497 120 OFFCURVE",
"458 115 OFFCURVE",
"422 115 CURVE SMOOTH",
"281 115 OFFCURVE",
"212 193 OFFCURVE",
"212 353 CURVE SMOOTH",
"212 509 OFFCURVE",
"279 586 OFFCURVE",
"413 586 CURVE SMOOTH",
"484 586 OFFCURVE",
"542 567 OFFCURVE",
"608 521 CURVE",
"659 636 LINE",
"602 685 OFFCURVE",
"509 714 OFFCURVE",
"408 714 CURVE SMOOTH",
"189 714 OFFCURVE",
"49 575 OFFCURVE",
"49 353 CURVE SMOOTH",
"49 127 OFFCURVE",
"188 -9 OFFCURVE",
"415 -9 CURVE SMOOTH",
"511 -9 OFFCURVE",
"608 10 OFFCURVE",
"678 44 CURVE",
"678 391 LINE"
);
}
);
width = 739;
}
);
leftKerningGroup = C;
rightKerningGroup = G;
unicode = 0120;
},
{
glyphname = Gmacron;
lastChange = "2017-11-26 07:35:25 +0000";
layers = (
{
anchors = (
{
name = mark0;
position = "{415, 0}";
},
{
name = mark1;
position = "{0, 0}";
},
{
name = mark2;
position = "{408, 865}";
},
{
name = mark3;
position = "{0, 0}";
},
{
name = mark4;
position = "{0, 0}";
}
);
layerId = UUID0;
paths = (
{
closed = 1;
nodes = (
"565 891 LINE",
"251 891 LINE",
"251 795 LINE",
"565 795 LINE"
);
},
{
closed = 1;
nodes = (
"398 391 LINE",
"398 279 LINE",
"534 279 LINE",
"534 129 LINE",
"497 120 OFFCURVE",
"458 115 OFFCURVE",
"422 115 CURVE SMOOTH",
"281 115 OFFCURVE",
"212 193 OFFCURVE",
"212 353 CURVE SMOOTH",
"212 509 OFFCURVE",
"279 586 OFFCURVE",
"413 586 CURVE SMOOTH",
"484 586 OFFCURVE",
"542 567 OFFCURVE",
"608 521 CURVE",
"659 636 LINE",
"602 685 OFFCURVE",
"509 714 OFFCURVE",
"408 714 CURVE SMOOTH",
"189 714 OFFCURVE",
"49 575 OFFCURVE",
"49 353 CURVE SMOOTH",
"49 127 OFFCURVE",
"188 -9 OFFCURVE",
"415 -9 CURVE SMOOTH",
"511 -9 OFFCURVE",
"608 10 OFFCURVE",
"678 44 CURVE",
"678 391 LINE"
);
}
);
width = 739;
}
);
leftKerningGroup = C;
rightKerningGroup = G;
unicode = 1E20;
},
{
glyphname = H;
lastChange = "2017-11-26 07:35:25 +0000";
layers = (
{
anchors = (
{
name = mark0;
position = "{386, 0}";
},
{
name = mark1;
position = "{0, 0}";
},
{
name = mark2;
position = "{386, 705}";
},
{
name = mark3;
position = "{386, 358}";
},
{
name = mark4;
position = "{0, 0}";
}
);
layerId = UUID0;
paths = (
{
closed = 1;
nodes = (
"545 705 LINE",
"545 422 LINE",
"227 422 LINE",
"227 705 LINE",
"69 705 LINE",
"69 0 LINE",
"227 0 LINE",
"227 294 LINE",
"545 294 LINE",
"545 0 LINE",
"703 0 LINE",
"703 705 LINE"
);
}
);
width = 772;
}
);
unicode = 0048;
},
{
glyphname = Hbar;
lastChange = "2017-11-26 07:35:25 +0000";
layers = (
{
layerId = UUID0;
paths = (
{
closed = 1;
nodes = (
"819 625 LINE",
"734 625 LINE",
"734 705 LINE",
"576 705 LINE",
"576 625 LINE",
"258 625 LINE",
"258 705 LINE",
"100 705 LINE",
"100 625 LINE",
"15 625 LINE",
"15 507 LINE",
"100 507 LINE",
"100 0 LINE",
"258 0 LINE",
"258 294 LINE",
"576 294 LINE",
"576 0 LINE",
"734 0 LINE",
"734 507 LINE",
"819 507 LINE"
);
},
{
closed = 1;
nodes = (
"576 422 LINE",
"258 422 LINE",
"258 507 LINE",
"576 507 LINE"
);
}
);
width = 834;
}
);
unicode = 0126;
},
{
glyphname = Hbrevebelow;
lastChange = "2017-11-26 07:35:25 +0000";
layers = (
{
anchors = (
{
name = mark0;
position = "{386, -170}";
},
{
name = mark1;
position = "{0, 0}";
},
{
name = mark2;
position = "{386, 705}";
},
{
name = mark3;
position = "{386, 358}";
},
{
name = mark4;
position = "{0, 0}";
}
);
layerId = UUID0;
paths = (
{
closed = 1;
nodes = (
"545 705 LINE",
"545 422 LINE",
"227 422 LINE",
"227 705 LINE",
"69 705 LINE",
"69 0 LINE",
"227 0 LINE",
"227 294 LINE",
"545 294 LINE",
"545 0 LINE",
"703 0 LINE",
"703 705 LINE"
);
},
{
closed = 1;
nodes = (
"342 -131 OFFCURVE",
"301 -109 OFFCURVE",
"270 -52 CURVE",
"199 -82 LINE",
"223 -181 OFFCURVE",
"303 -228 OFFCURVE",
"386 -228 CURVE SMOOTH",
"469 -228 OFFCURVE",
"549 -181 OFFCURVE",
"573 -82 CURVE",
"502 -52 LINE",
"471 -109 OFFCURVE",
"430 -131 OFFCURVE",
"386 -131 CURVE SMOOTH"
);
}
);
width = 772;
}
);
unicode = 1E2A;
},
{
glyphname = Hcircumflex;
lastChange = "2017-11-26 07:35:25 +0000";
layers = (
{
anchors = (
{
name = mark0;
position = "{386, 0}";
},
{
name = mark1;
position = "{0, 0}";
},
{
name = mark2;
position = "{386, 865}";
},
{
name = mark3;
position = "{386, 358}";
},
{
name = mark4;
position = "{0, 0}";
}
);
layerId = UUID0;
paths = (
{
closed = 1;
nodes = (
"386 849 LINE",
"447 765 LINE",
"563 765 LINE",
"430 921 LINE",
"342 921 LINE",
"209 765 LINE",
"325 765 LINE"
);
},
{
closed = 1;
nodes = (
"545 705 LINE",
"545 422 LINE",
"227 422 LINE",
"227 705 LINE",
"69 705 LINE",
"69 0 LINE",
"227 0 LINE",
"227 294 LINE",
"545 294 LINE",
"545 0 LINE",
"703 0 LINE",
"703 705 LINE"
);
}
);
width = 772;
}
);
unicode = 0124;
},
{
glyphname = Hdotbelow;
lastChange = "2017-11-26 07:35:25 +0000";
layers = (
{
anchors = (
{
name = mark0;
position = "{386, -170}";
},
{
name = mark1;
position = "{0, 0}";
},
{
name = mark2;
position = "{386, 705}";
},
{
name = mark3;
position = "{386, 358}";
},
{
name = mark4;
position = "{0, 0}";
}
);
layerId = UUID0;
paths = (
{
closed = 1;
nodes = (
"545 705 LINE",
"545 422 LINE",
"227 422 LINE",
"227 705 LINE",
"69 705 LINE",
"69 0 LINE",
"227 0 LINE",
"227 294 LINE",
"545 294 LINE",
"545 0 LINE",
"703 0 LINE",
"703 705 LINE"
);
},
{
closed = 1;
nodes = (
"315 -200 LINE",
"457 -200 LINE",
"457 -65 LINE",
"315 -65 LINE"
);
}
);
width = 772;
}
);
unicode = 1E24;
},
{
glyphname = I;
lastChange = "2017-11-26 07:35:25 +0000";
layers = (
{
anchors = (
{
name = mark0;
position = "{149, 0}";
},
{
name = mark1;
position = "{200, 10}";
},
{
name = mark2;
position = "{149, 705}";
},
{
name = mark3;
position = "{0, 0}";
},
{
name = mark4;
position = "{0, 0}";
}
);
layerId = UUID0;
paths = (
{
closed = 1;
nodes = (
"69 0 LINE",
"230 0 LINE",
"230 705 LINE",
"69 705 LINE"
);
}
);
width = 299;
}
);
unicode = 0049;
},
{
glyphname = Iacute;
lastChange = "2017-11-26 07:35:25 +0000";
layers = (
{
anchors = (
{
name = mark0;
position = "{149, 0}";
},
{
name = mark1;
position = "{200, 10}";
},
{
name = mark2;
position = "{149, 865}";
},
{
name = mark3;
position = "{0, 0}";
},
{
name = mark4;
position = "{0, 0}";
}
);
layerId = UUID0;
paths = (
{
closed = 1;
nodes = (
"197 765 LINE",
"347 921 LINE",
"204 921 LINE",
"101 765 LINE"
);
},
{
closed = 1;
nodes = (
"69 0 LINE",
"230 0 LINE",
"230 705 LINE",
"69 705 LINE"
);
}
);
width = 299;
}
);
unicode = 00CD;
},
{
glyphname = Ibreve;
lastChange = "2017-11-26 07:35:25 +0000";
layers = (
{
anchors = (
{
name = mark0;
position = "{149, 0}";
},
{
name = mark1;
position = "{200, 10}";
},
{
name = mark2;
position = "{149, 865}";
},
{
name = mark3;
position = "{0, 0}";
},
{
name = mark4;
position = "{0, 0}";
}
);
layerId = UUID0;
paths = (
{
closed = 1;
nodes = (
"235 774 OFFCURVE",
"302 811 OFFCURVE",
"328 883 CURVE",
"257 913 LINE",
"234 877 OFFCURVE",
"193 865 OFFCURVE",
"149 865 CURVE SMOOTH",
"105 865 OFFCURVE",
"64 877 OFFCURVE",
"41 913 CURVE",
"-30 883 LINE",
"-4 811 OFFCURVE",
"63 774 OFFCURVE",
"149 774 CURVE SMOOTH"
);
},
{
closed = 1;
nodes = (
"69 0 LINE",
"230 0 LINE",
"230 705 LINE",
"69 705 LINE"
);
}
);
width = 299;
}
);
unicode = 012C;
},
{
glyphname = Icircumflex;
lastChange = "2017-11-26 07:35:25 +0000";
layers = (
{
anchors = (
{
name = mark0;
position = "{149, 0}";
},
{
name = mark1;
position = "{200, 10}";
},
{
name = mark2;
position = "{149, 865}";
},
{
name = mark3;
position = "{0, 0}";
},
{
name = mark4;
position = "{0, 0}";
}
);
layerId = UUID0;
paths = (
{
closed = 1;
nodes = (
"88 765 LINE",
"149 849 LINE",
"210 765 LINE",
"326 765 LINE",
"193 921 LINE",
"105 921 LINE",
"-28 765 LINE"
);
},
{
closed = 1;
nodes = (
"69 0 LINE",
"230 0 LINE",
"230 705 LINE",
"69 705 LINE"
);
}
);
width = 299;
}
);
unicode = 00CE;
},
{
glyphname = Idblgrave;
lastChange = "2017-11-26 07:35:25 +0000";
layers = (
{
anchors = (
{
name = mark0;
position = "{149, 0}";
},
{
name = mark1;
position = "{200, 10}";
},
{
name = mark2;
position = "{149, 865}";
},
{
name = mark3;
position = "{0, 0}";
},
{
name = mark4;
position = "{0, 0}";
}
);
layerId = UUID0;
paths = (
{
closed = 1;
nodes = (
"41 765 LINE",
"117 765 LINE",
"44 921 LINE",
"-59 921 LINE"
);
},
{
closed = 1;
nodes = (
"181 765 LINE",
"257 765 LINE",
"184 921 LINE",
"81 921 LINE"
);
},
{
closed = 1;
nodes = (
"69 0 LINE",
"230 0 LINE",
"230 705 LINE",
"69 705 LINE"
);
}
);
width = 299;
}
);
unicode = 0208;
},
{
glyphname = Idieresis;
lastChange = "2017-11-26 07:35:25 +0000";
layers = (
{
anchors = (
{
name = mark0;
position = "{149, 0}";
},
{
name = mark1;
position = "{200, 10}";
},
{
name = mark2;
position = "{149, 865}";
},
{
name = mark3;
position = "{0, 0}";
},
{
name = mark4;
position = "{0, 0}";
}
);
layerId = UUID0;
paths = (
{
closed = 1;
nodes = (
"-18 911 LINE",
"-18 776 LINE",
"124 776 LINE",
"124 911 LINE"
);
},
{
closed = 1;
nodes = (
"174 911 LINE",
"174 776 LINE",
"316 776 LINE",
"316 911 LINE"
);
},
{
closed = 1;
nodes = (
"69 0 LINE",
"230 0 LINE",
"230 705 LINE",
"69 705 LINE"
);
}
);
width = 299;
}
);
unicode = 00CF;
},
{
glyphname = Idieresisacute;
lastChange = "2017-11-26 07:35:25 +0000";
layers = (
{
anchors = (
{
name = mark0;
position = "{149, 0}";
},
{
name = mark1;
position = "{200, 10}";
},
{
name = mark2;
position = "{149, 1025}";
},
{
name = mark3;
position = "{0, 0}";
},
{
name = mark4;
position = "{0, 0}";
}
);
layerId = UUID0;
paths = (
{
closed = 1;
nodes = (
"197 925 LINE",
"347 1081 LINE",
"204 1081 LINE",
"101 925 LINE"
);
},
{
closed = 1;
nodes = (
"-18 911 LINE",
"-18 776 LINE",
"124 776 LINE",
"124 911 LINE"
);
},
{
closed = 1;
nodes = (
"174 911 LINE",
"174 776 LINE",
"316 776 LINE",
"316 911 LINE"
);
},
{
closed = 1;
nodes = (
"69 0 LINE",
"230 0 LINE",
"230 705 LINE",
"69 705 LINE"
);
}
);
width = 299;
}
);
unicode = 1E2E;
},
{
glyphname = Idotaccent;
lastChange = "2017-11-26 07:35:25 +0000";
layers = (
{
anchors = (
{
name = mark0;
position = "{149, 0}";
},
{
name = mark1;
position = "{200, 10}";
},
{
name = mark2;
position = "{149, 865}";
},
{
name = mark3;
position = "{0, 0}";
},
{
name = mark4;
position = "{0, 0}";
}
);
layerId = UUID0;
paths = (
{
closed = 1;
nodes = (
"66 916 LINE",
"66 771 LINE",
"232 771 LINE",
"232 916 LINE"
);
},
{
closed = 1;
nodes = (
"69 0 LINE",
"230 0 LINE",
"230 705 LINE",
"69 705 LINE"
);
}
);
width = 299;
}
);
unicode = 0130;
},
{
glyphname = Idotbelow;
lastChange = "2017-11-26 07:35:25 +0000";
layers = (
{
anchors = (
{
name = mark0;
position = "{149, -170}";
},
{
name = mark1;
position = "{200, 10}";
},
{
name = mark2;
position = "{149, 705}";
},
{
name = mark3;
position = "{0, 0}";
},
{
name = mark4;
position = "{0, 0}";
}
);
layerId = UUID0;
paths = (
{
closed = 1;
nodes = (
"69 0 LINE",
"230 0 LINE",
"230 705 LINE",
"69 705 LINE"
);
},
{
closed = 1;
nodes = (
"78 -65 LINE",
"78 -200 LINE",
"220 -200 LINE",
"220 -65 LINE"
);
}
);
width = 299;
}
);
unicode = 1ECA;
},
{
glyphname = Igrave;
lastChange = "2017-11-26 07:35:25 +0000";
layers = (
{
anchors = (
{
name = mark0;
position = "{149, 0}";
},
{
name = mark1;
position = "{200, 10}";
},
{
name = mark2;
position = "{149, 865}";
},
{
name = mark3;
position = "{0, 0}";
},
{
name = mark4;
position = "{0, 0}";
}
);
layerId = UUID0;
paths = (
{
closed = 1;
nodes = (
"101 765 LINE",
"197 765 LINE",
"94 921 LINE",
"-49 921 LINE"
);
},
{
closed = 1;
nodes = (
"69 0 LINE",
"230 0 LINE",
"230 705 LINE",
"69 705 LINE"
);
}
);
width = 299;
}
);
unicode = 00CC;
},
{
glyphname = Ihookabove;
lastChange = "2017-11-26 07:35:25 +0000";
layers = (
{
anchors = (
{
name = mark0;
position = "{149, 0}";
},
{
name = mark1;
position = "{200, 10}";
},
{
name = mark2;
position = "{149, 865}";
},
{
name = mark3;
position = "{0, 0}";
},
{
name = mark4;
position = "{0, 0}";
}
);
layerId = UUID0;
paths = (
{
closed = 1;
nodes = (
"187 778 LINE",
"187 812 OFFCURVE",
"270 809 OFFCURVE",
"270 861 CURVE SMOOTH",
"270 896 OFFCURVE",
"229 925 OFFCURVE",
"163 925 CURVE SMOOTH",
"122 925 OFFCURVE",
"92 917 OFFCURVE",
"67 907 CURVE",
"87 854 LINE",
"110 862 OFFCURVE",
"130 865 OFFCURVE",
"144 865 CURVE SMOOTH",
"168 865 OFFCURVE",
"176 858 OFFCURVE",
"176 849 CURVE SMOOTH",
"176 831 OFFCURVE",
"111 831 OFFCURVE",
"111 787 CURVE SMOOTH",
"111 765 LINE",
"187 765 LINE"
);
},
{
closed = 1;
nodes = (
"69 0 LINE",
"230 0 LINE",
"230 705 LINE",
"69 705 LINE"
);
}
);
width = 299;
}
);
unicode = 1EC8;
},
{
glyphname = Iinvertedbreve;
lastChange = "2017-11-26 07:35:25 +0000";
layers = (
{
anchors = (
{
name = mark0;
position = "{149, 0}";
},
{
name = mark1;
position = "{200, 10}";
},
{
name = mark2;
position = "{149, 865}";
},
{
name = mark3;
position = "{0, 0}";
},
{
name = mark4;
position = "{0, 0}";
}
);
layerId = UUID0;
paths = (
{
closed = 1;
nodes = (
"63 913 OFFCURVE",
"-4 876 OFFCURVE",
"-30 804 CURVE",
"41 774 LINE",
"64 810 OFFCURVE",
"105 822 OFFCURVE",
"149 822 CURVE SMOOTH",
"193 822 OFFCURVE",
"234 810 OFFCURVE",
"257 774 CURVE",
"328 804 LINE",
"302 876 OFFCURVE",
"235 913 OFFCURVE",
"149 913 CURVE SMOOTH"
);
},
{
closed = 1;
nodes = (
"69 0 LINE",
"230 0 LINE",
"230 705 LINE",
"69 705 LINE"
);
}
);
width = 299;
}
);
unicode = 020A;
},
{
glyphname = Imacron;
lastChange = "2017-11-26 07:35:25 +0000";
layers = (
{
anchors = (
{
name = mark0;
position = "{149, 0}";
},
{
name = mark1;
position = "{200, 10}";
},
{
name = mark2;
position = "{149, 865}";
},
{
name = mark3;
position = "{0, 0}";
},
{
name = mark4;
position = "{0, 0}";
}
);
layerId = UUID0;
paths = (
{
closed = 1;
nodes = (
"-8 795 LINE",
"306 795 LINE",
"306 891 LINE",
"-8 891 LINE"
);
},
{
closed = 1;
nodes = (
"69 0 LINE",
"230 0 LINE",
"230 705 LINE",
"69 705 LINE"
);
}
);
width = 299;
}
);
unicode = 012A;
},
{
glyphname = Iogonek;
lastChange = "2017-11-26 07:35:25 +0000";
layers = (
{
layerId = UUID0;
paths = (
{
closed = 1;
nodes = (
"245 -105 LINE",
"226 -113 OFFCURVE",
"208 -117 OFFCURVE",
"191 -117 CURVE SMOOTH",
"153 -117 OFFCURVE",
"132 -99 OFFCURVE",
"132 -64 CURVE SMOOTH",
"132 -27 OFFCURVE",
"164 0 OFFCURVE",
"215 0 CURVE SMOOTH",
"230 0 LINE",
"230 705 LINE",
"69 705 LINE",
"69 0 LINE",
"45 -24 OFFCURVE",
"33 -54 OFFCURVE",
"33 -85 CURVE SMOOTH",
"33 -154 OFFCURVE",
"89 -197 OFFCURVE",
"161 -197 CURVE SMOOTH",
"197 -197 OFFCURVE",
"232 -190 OFFCURVE",
"262 -177 CURVE"
);
}
);
width = 299;
}
);
unicode = 012E;
},
{
glyphname = Itilde;
lastChange = "2017-11-26 07:35:25 +0000";
layers = (
{
anchors = (
{
name = mark0;
position = "{149, 0}";
},
{
name = mark1;
position = "{200, 10}";
},
{
name = mark2;
position = "{149, 865}";
},
{
name = mark3;
position = "{0, 0}";
},
{
name = mark4;
position = "{0, 0}";
}
);
layerId = UUID0;
paths = (
{
closed = 1;
nodes = (
"40 771 LINE",
"43 802 OFFCURVE",
"58 820 OFFCURVE",
"82 820 CURVE SMOOTH",
"120 820 OFFCURVE",
"163 768 OFFCURVE",
"214 768 CURVE SMOOTH",
"274 768 OFFCURVE",
"324 813 OFFCURVE",
"324 916 CURVE",
"258 916 LINE",
"255 885 OFFCURVE",
"240 867 OFFCURVE",
"216 867 CURVE SMOOTH",
"178 867 OFFCURVE",
"135 919 OFFCURVE",
"84 919 CURVE SMOOTH",
"24 919 OFFCURVE",
"-26 874 OFFCURVE",
"-26 771 CURVE"
);
},
{
closed = 1;
nodes = (
"69 0 LINE",
"230 0 LINE",
"230 705 LINE",
"69 705 LINE"
);
}
);
width = 299;
}
);
unicode = 0128;
},
{
glyphname = J;
lastChange = "2017-11-26 07:35:25 +0000";
layers = (
{
anchors = (
{
name = mark0;
position = "{231, 0}";
},
{
name = mark1;
position = "{0, 0}";
},
{
name = mark2;
position = "{231, 705}";
},
{
name = mark3;
position = "{0, 0}";
},
{
name = mark4;
position = "{0, 0}";
}
);
layerId = UUID0;
paths = (
{
closed = 1;
nodes = (
"6 -10 LINE",
"100 -5 LINE SMOOTH",
"241 3 OFFCURVE",
"312 74 OFFCURVE",
"312 207 CURVE SMOOTH",
"312 705 LINE",
"150 705 LINE",
"150 205 LINE SMOOTH",
"150 152 OFFCURVE",
"126 127 OFFCURVE",
"73 124 CURVE SMOOTH",
"-4 119 LINE"
);
}
);
width = 381;
}
);
leftKerningGroup = J;
rightKerningGroup = J;
unicode = 004A;
},
{
glyphname = Jcircumflex;
lastChange = "2017-11-26 07:35:25 +0000";
layers = (
{
anchors = (
{
name = mark0;
position = "{231, 0}";
},
{
name = mark1;
position = "{0, 0}";
},
{
name = mark2;
position = "{231, 865}";
},
{
name = mark3;
position = "{0, 0}";
},
{
name = mark4;
position = "{0, 0}";
}
);
layerId = UUID0;
paths = (
{
closed = 1;
nodes = (
"170 765 LINE",
"231 849 LINE",
"292 765 LINE",
"408 765 LINE",
"275 921 LINE",
"187 921 LINE",
"54 765 LINE"
);
},
{
closed = 1;
nodes = (
"6 -10 LINE",
"100 -5 LINE SMOOTH",
"241 3 OFFCURVE",
"312 74 OFFCURVE",
"312 207 CURVE SMOOTH",
"312 705 LINE",
"150 705 LINE",
"150 205 LINE SMOOTH",
"150 152 OFFCURVE",
"126 127 OFFCURVE",
"73 124 CURVE SMOOTH",
"-4 119 LINE"
);
}
);
width = 381;
}
);
leftKerningGroup = J;
rightKerningGroup = J;
unicode = 0134;
},
{
glyphname = K;
lastChange = "2017-11-26 07:35:25 +0000";
layers = (
{
anchors = (
{
name = mark0;
position = "{343, 0}";
},
{
name = mark1;
position = "{0, 0}";
},
{
name = mark2;
position = "{343, 705}";
},
{
name = mark3;
position = "{0, 0}";
},
{
name = mark4;
position = "{0, 0}";
}
);
layerId = UUID0;
paths = (
{
closed = 1;
nodes = (
"725 0 LINE",
"388 368 LINE",
"712 705 LINE",
"522 705 LINE",
"230 396 LINE",
"230 705 LINE",
"69 705 LINE",
"69 0 LINE",
"230 0 LINE",
"230 324 LINE",
"532 0 LINE"
);
}
);
width = 682;
}
);
rightKerningGroup = K;
unicode = 004B;
},
{
glyphname = Kcommaaccent;
lastChange = "2017-11-26 07:35:25 +0000";
layers = (
{
anchors = (
{
name = mark0;
position = "{343, -170}";
},
{
name = mark1;
position = "{0, 0}";
},
{
name = mark2;
position = "{343, 705}";
},
{
name = mark3;
position = "{0, 0}";
},
{
name = mark4;
position = "{0, 0}";
}
);
layerId = UUID0;
paths = (
{
closed = 1;
nodes = (
"388 368 LINE",
"712 705 LINE",
"522 705 LINE",
"230 396 LINE",
"230 705 LINE",
"69 705 LINE",
"69 0 LINE",
"230 0 LINE",
"230 324 LINE",
"532 0 LINE",
"725 0 LINE"
);
},
{
closed = 1;
nodes = (
"266 -181 LINE",
"338 -181 LINE",
"334 -201 OFFCURVE",
"324 -219 OFFCURVE",
"303 -238 CURVE",
"358 -276 LINE",
"405 -235 OFFCURVE",
"419 -189 OFFCURVE",
"419 -130 CURVE SMOOTH",
"419 -65 LINE",
"266 -65 LINE"
);
}
);
width = 682;
}
);
rightKerningGroup = K;
unicode = 0136;
},
{
glyphname = L;
lastChange = "2017-11-26 07:35:25 +0000";
layers = (
{
anchors = (
{
name = mark0;
position = "{313, 0}";
},
{
name = mark1;
position = "{0, 0}";
},
{
name = mark2;
position = "{149, 705}";
},
{
name = mark3;
position = "{394, 353}";
},
{
name = mark4;
position = "{320, 705}";
}
);
layerId = UUID0;
paths = (
{
closed = 1;
nodes = (
"69 0 LINE",
"542 0 LINE",
"542 131 LINE",
"230 131 LINE",
"230 705 LINE",
"69 705 LINE"
);
}
);
width = 565;
}
);
rightKerningGroup = L;
unicode = 004C;
},
{
glyphname = LJ;
lastChange = "2017-11-26 07:35:25 +0000";
layers = (
{
layerId = UUID0;
paths = (
{
closed = 1;
nodes = (
"69 0 LINE",
"512 0 LINE",
"512 131 LINE",
"230 131 LINE",
"230 705 LINE",
"69 705 LINE"
);
},
{
closed = 1;
nodes = (
"574 -10 LINE",
"668 -5 LINE SMOOTH",
"809 3 OFFCURVE",
"880 74 OFFCURVE",
"880 207 CURVE SMOOTH",
"880 705 LINE",
"718 705 LINE",
"718 205 LINE SMOOTH",
"718 152 OFFCURVE",
"694 127 OFFCURVE",
"641 124 CURVE SMOOTH",
"564 119 LINE"
);
}
);
width = 949;
}
);
rightKerningGroup = J;
unicode = 01C7;
},
{
glyphname = Lacute;
lastChange = "2017-11-26 07:35:25 +0000";
layers = (
{
anchors = (
{
name = mark0;
position = "{313, 0}";
},
{
name = mark1;
position = "{0, 0}";
},
{
name = mark2;
position = "{149, 865}";
},
{
name = mark3;
position = "{394, 353}";
},
{
name = mark4;
position = "{320, 705}";
}
);
layerId = UUID0;
paths = (
{
closed = 1;
nodes = (
"197 765 LINE",
"347 921 LINE",
"204 921 LINE",
"101 765 LINE"
);
},
{
closed = 1;
nodes = (
"69 0 LINE",
"542 0 LINE",
"542 131 LINE",
"230 131 LINE",
"230 705 LINE",
"69 705 LINE"
);
}
);
width = 565;
}
);
rightKerningGroup = L;
unicode = 0139;
},
{
glyphname = Lcaron;
lastChange = "2017-11-26 07:35:25 +0000";
layers = (
{
anchors = (
{
name = mark0;
position = "{313, 0}";
},
{
name = mark1;
position = "{0, 0}";
},
{
name = mark2;
position = "{149, 705}";
},
{
name = mark3;
position = "{394, 353}";
},
{
name = mark4;
position = "{320, 705}";
}
);
layerId = UUID0;
paths = (
{
closed = 1;
nodes = (
"69 0 LINE",
"542 0 LINE",
"542 131 LINE",
"230 131 LINE",
"230 705 LINE",
"69 705 LINE"
);
},
{
closed = 1;
nodes = (
"390 511 LINE",
"416 705 LINE",
"317 705 LINE",
"317 511 LINE"
);
}
);
width = 565;
}
);
rightKerningGroup = L;
unicode = 013D;
},
{
glyphname = Lcommaaccent;
lastChange = "2017-11-26 07:35:25 +0000";
layers = (
{
anchors = (
{
name = mark0;
position = "{313, -170}";
},
{
name = mark1;
position = "{0, 0}";
},
{
name = mark2;
position = "{149, 705}";
},
{
name = mark3;
position = "{394, 353}";
},
{
name = mark4;
position = "{320, 705}";
}
);
layerId = UUID0;
paths = (
{
closed = 1;
nodes = (
"230 131 LINE",
"230 705 LINE",
"69 705 LINE",
"69 0 LINE",
"542 0 LINE",
"542 131 LINE"
);
},
{
closed = 1;
nodes = (
"236 -181 LINE",
"308 -181 LINE",
"304 -201 OFFCURVE",
"294 -219 OFFCURVE",
"273 -238 CURVE",
"328 -276 LINE",
"375 -235 OFFCURVE",
"389 -189 OFFCURVE",
"389 -130 CURVE SMOOTH",
"389 -65 LINE",
"236 -65 LINE"
);
}
);
width = 565;
}
);
rightKerningGroup = L;
unicode = 013B;
},
{
glyphname = Ldot;
lastChange = "2017-11-26 07:35:25 +0000";
layers = (
{
anchors = (
{
name = mark0;
position = "{313, 0}";
},
{
name = mark1;
position = "{0, 0}";
},
{
name = mark2;
position = "{149, 705}";
},
{
name = mark3;
position = "{394, 353}";
},
{
name = mark4;
position = "{320, 705}";
}
);
layerId = UUID0;
paths = (
{
closed = 1;
nodes = (
"69 0 LINE",
"542 0 LINE",
"542 131 LINE",
"230 131 LINE",
"230 705 LINE",
"69 705 LINE"
);
},
{
closed = 1;
nodes = (
"311 425 LINE",
"311 281 LINE",
"477 281 LINE",
"477 425 LINE"
);
}
);
width = 565;
}
);
rightKerningGroup = L;
unicode = 013F;
},
{
glyphname = Ldotbelow;
lastChange = "2017-11-26 07:35:25 +0000";
layers = (
{
anchors = (
{
name = mark0;
position = "{313, -170}";
},
{
name = mark1;
position = "{0, 0}";
},
{
name = mark2;
position = "{149, 705}";
},
{
name = mark3;
position = "{394, 353}";
},
{
name = mark4;
position = "{320, 705}";
}
);
layerId = UUID0;
paths = (
{
closed = 1;
nodes = (
"69 0 LINE",
"542 0 LINE",
"542 131 LINE",
"230 131 LINE",
"230 705 LINE",
"69 705 LINE"
);
},
{
closed = 1;
nodes = (
"242 -65 LINE",
"242 -200 LINE",
"384 -200 LINE",
"384 -65 LINE"
);
}
);
width = 565;
}
);
rightKerningGroup = L;
unicode = 1E36;
},
{
glyphname = Lj;
lastChange = "2017-11-26 07:35:25 +0000";
layers = (
{
anchors = (
{
name = mark0;
position = "{699, 0}";
},
{
name = mark1;
position = "{0, 0}";
},
{
name = mark2;
position = "{699, 685}";
},
{
name = mark3;
position = "{394, 353}";
},
{
name = mark4;
position = "{320, 705}";
}
);
layerId = UUID0;
paths = (
{
closed = 1;
nodes = (
"616 729 LINE",
"616 584 LINE",
"782 584 LINE",
"782 729 LINE"
);
},
{
closed = 1;
nodes = (
"69 0 LINE",
"542 0 LINE",
"542 131 LINE",
"230 131 LINE",
"230 705 LINE",
"69 705 LINE"
);
},
{
closed = 1;
nodes = (
"778 491 LINE",
"622 491 LINE",
"622 5 LINE SMOOTH",
"622 -46 OFFCURVE",
"600 -67 OFFCURVE",
"544 -71 CURVE SMOOTH",
"492 -75 LINE",
"503 -186 LINE",
"551 -183 LINE SMOOTH",
"718 -173 OFFCURVE",
"778 -116 OFFCURVE",
"778 34 CURVE SMOOTH"
);
}
);
width = 835;
}
);
unicode = 01C8;
},
{
glyphname = Llinebelow;
lastChange = "2017-11-26 07:35:25 +0000";
layers = (
{
anchors = (
{
name = mark0;
position = "{313, -170}";
},
{
name = mark1;
position = "{0, 0}";
},
{
name = mark2;
position = "{149, 705}";
},
{
name = mark3;
position = "{394, 353}";
},
{
name = mark4;
position = "{320, 705}";
}
);
layerId = UUID0;
paths = (
{
closed = 1;
nodes = (
"69 0 LINE",
"542 0 LINE",
"542 131 LINE",
"230 131 LINE",
"230 705 LINE",
"69 705 LINE"
);
},
{
closed = 1;
nodes = (
"156 -178 LINE",
"470 -178 LINE",
"470 -88 LINE",
"156 -88 LINE"
);
}
);
width = 565;
}
);
rightKerningGroup = L;
unicode = 1E3A;
},
{
glyphname = Lslash;
lastChange = "2017-11-26 07:35:25 +0000";
layers = (
{
layerId = UUID0;
paths = (
{
closed = 1;
nodes = (
"261 131 LINE",
"261 333 LINE",
"470 454 LINE",
"412 558 LINE",
"261 471 LINE",
"261 705 LINE",
"100 705 LINE",
"100 378 LINE",
"-16 311 LINE",
"42 207 LINE",
"100 240 LINE",
"100 0 LINE",
"573 0 LINE",
"573 131 LINE"
);
}
);
width = 596;
}
);
rightKerningGroup = L;
unicode = 0141;
},
{
glyphname = M;
lastChange = "2017-11-26 07:35:25 +0000";
layers = (
{
anchors = (
{
name = mark0;
position = "{421, 0}";
},
{
name = mark1;
position = "{0, 0}";
},
{
name = mark2;
position = "{421, 705}";
},
{
name = mark3;
position = "{0, 0}";
},
{
name = mark4;
position = "{0, 0}";
}
);
layerId = UUID0;
paths = (
{
closed = 1;
nodes = (
"646 705 LINE",
"422 279 LINE",
"198 705 LINE",
"71 705 LINE",
"71 0 LINE",
"212 0 LINE",
"212 405 LINE",
"369 116 LINE",
"473 116 LINE",
"630 409 LINE",
"630 0 LINE",
"771 0 LINE",
"771 705 LINE"
);
}
);
width = 842;
}
);
unicode = 004D;
},
{
glyphname = Mdotbelow;
lastChange = "2017-11-26 07:35:25 +0000";
layers = (
{
anchors = (
{
name = mark0;
position = "{421, -170}";
},
{
name = mark1;
position = "{0, 0}";
},
{
name = mark2;
position = "{421, 705}";
},
{
name = mark3;
position = "{0, 0}";
},
{
name = mark4;
position = "{0, 0}";
}
);
layerId = UUID0;
paths = (
{
closed = 1;
nodes = (
"646 705 LINE",
"422 279 LINE",
"198 705 LINE",
"71 705 LINE",
"71 0 LINE",
"212 0 LINE",
"212 405 LINE",
"369 116 LINE",
"473 116 LINE",
"630 409 LINE",
"630 0 LINE",
"771 0 LINE",
"771 705 LINE"
);
},
{
closed = 1;
nodes = (
"350 -200 LINE",
"492 -200 LINE",
"492 -65 LINE",
"350 -65 LINE"
);
}
);
width = 842;
}
);
unicode = 1E42;
},
{
glyphname = N;
lastChange = "2017-11-26 07:35:25 +0000";
layers = (
{
anchors = (
{
name = mark0;
position = "{377, 0}";
},
{
name = mark1;
position = "{0, 0}";
},
{
name = mark2;
position = "{376, 705}";
},
{
name = mark3;
position = "{0, 0}";
},
{
name = mark4;
position = "{0, 0}";
}
);
layerId = UUID0;
paths = (
{
closed = 1;
nodes = (
"533 705 LINE",
"533 266 LINE",
"187 705 LINE",
"69 705 LINE",
"69 0 LINE",
"219 0 LINE",
"219 440 LINE",
"564 0 LINE",
"684 0 LINE",
"684 705 LINE"
);
}
);
width = 753;
}
);
unicode = 004E;
},
{
glyphname = NJ;
lastChange = "2017-11-26 07:35:25 +0000";
layers = (
{
anchors = (
{
name = mark0;
position = "{984, 0}";
},
{
name = mark1;
position = "{0, 0}";
},
{
name = mark2;
position = "{984, 705}";
},
{
name = mark3;
position = "{0, 0}";
},
{
name = mark4;
position = "{0, 0}";
}
);
layerId = UUID0;
paths = (
{
closed = 1;
nodes = (
"533 266 LINE",
"187 705 LINE",
"69 705 LINE",
"69 0 LINE",
"219 0 LINE",
"219 440 LINE",
"564 0 LINE",
"684 0 LINE",
"684 705 LINE",
"533 705 LINE"
);
},
{
closed = 1;
nodes = (
"903 705 LINE",
"903 205 LINE SMOOTH",
"903 152 OFFCURVE",
"879 127 OFFCURVE",
"826 124 CURVE SMOOTH",
"749 119 LINE",
"759 -10 LINE",
"853 -5 LINE SMOOTH",
"994 3 OFFCURVE",
"1065 74 OFFCURVE",
"1065 207 CURVE SMOOTH",
"1065 705 LINE"
);
}
);
width = 1134;
}
);
rightKerningGroup = J;
unicode = 01CA;
},
{
glyphname = Nacute;
lastChange = "2017-11-26 07:35:25 +0000";
layers = (
{
anchors = (
{
name = mark0;
position = "{377, 0}";
},
{
name = mark1;
position = "{0, 0}";
},
{
name = mark2;
position = "{376, 865}";
},
{
name = mark3;
position = "{0, 0}";
},
{
name = mark4;
position = "{0, 0}";
}
);
layerId = UUID0;
paths = (
{
closed = 1;
nodes = (
"574 921 LINE",
"431 921 LINE",
"328 765 LINE",
"424 765 LINE"
);
},
{
closed = 1;
nodes = (
"533 705 LINE",
"533 266 LINE",
"187 705 LINE",
"69 705 LINE",
"69 0 LINE",
"219 0 LINE",
"219 440 LINE",
"564 0 LINE",
"684 0 LINE",
"684 705 LINE"
);
}
);
width = 753;
}
);
unicode = 0143;
},
{
glyphname = Ncaron;
lastChange = "2017-11-26 07:35:25 +0000";
layers = (
{
anchors = (
{
name = mark0;
position = "{377, 0}";
},
{
name = mark1;
position = "{0, 0}";
},
{
name = mark2;
position = "{376, 865}";
},
{
name = mark3;
position = "{0, 0}";
},
{
name = mark4;
position = "{0, 0}";
}
);
layerId = UUID0;
paths = (
{
closed = 1;
nodes = (
"420 765 LINE",
"553 921 LINE",
"437 921 LINE",
"376 837 LINE",
"315 921 LINE",
"199 921 LINE",
"332 765 LINE"
);
},
{
closed = 1;
nodes = (
"533 705 LINE",
"533 266 LINE",
"187 705 LINE",
"69 705 LINE",
"69 0 LINE",
"219 0 LINE",
"219 440 LINE",
"564 0 LINE",
"684 0 LINE",
"684 705 LINE"
);
}
);
width = 753;
}
);
unicode = 0147;
},
{
glyphname = Ncommaaccent;
lastChange = "2017-11-26 07:35:25 +0000";
layers = (
{
anchors = (
{
name = mark0;
position = "{377, -170}";
},
{
name = mark1;
position = "{0, 0}";
},
{
name = mark2;
position = "{376, 705}";
},
{
name = mark3;
position = "{0, 0}";
},
{
name = mark4;
position = "{0, 0}";
}
);
layerId = UUID0;
paths = (
{
closed = 1;
nodes = (
"533 705 LINE",
"533 266 LINE",
"187 705 LINE",
"69 705 LINE",
"69 0 LINE",
"219 0 LINE",
"219 440 LINE",
"564 0 LINE",
"684 0 LINE",
"684 705 LINE"
);
},
{
closed = 1;
nodes = (
"300 -181 LINE",
"372 -181 LINE",
"368 -201 OFFCURVE",
"358 -219 OFFCURVE",
"337 -238 CURVE",
"392 -276 LINE",
"439 -235 OFFCURVE",
"453 -189 OFFCURVE",
"453 -130 CURVE SMOOTH",
"453 -65 LINE",
"300 -65 LINE"
);
}
);
width = 753;
}
);
unicode = 0145;
},
{
glyphname = Ndotaccent;
lastChange = "2017-11-26 07:35:25 +0000";
layers = (
{
anchors = (
{
name = mark0;
position = "{377, 0}";
},
{
name = mark1;
position = "{0, 0}";
},
{
name = mark2;
position = "{376, 865}";
},
{
name = mark3;
position = "{0, 0}";
},
{
name = mark4;
position = "{0, 0}";
}
);
layerId = UUID0;
paths = (
{
closed = 1;
nodes = (
"459 916 LINE",
"293 916 LINE",
"293 771 LINE",
"459 771 LINE"
);
},
{
closed = 1;
nodes = (
"533 705 LINE",
"533 266 LINE",
"187 705 LINE",
"69 705 LINE",
"69 0 LINE",
"219 0 LINE",
"219 440 LINE",
"564 0 LINE",
"684 0 LINE",
"684 705 LINE"
);
}
);
width = 753;
}
);
unicode = 1E44;
},
{
glyphname = Ndotbelow;
lastChange = "2017-11-26 07:35:25 +0000";
layers = (
{
anchors = (
{
name = mark0;
position = "{377, -170}";
},
{
name = mark1;
position = "{0, 0}";
},
{
name = mark2;
position = "{376, 705}";
},
{
name = mark3;
position = "{0, 0}";
},
{
name = mark4;
position = "{0, 0}";
}
);
layerId = UUID0;
paths = (
{
closed = 1;
nodes = (
"533 705 LINE",
"533 266 LINE",
"187 705 LINE",
"69 705 LINE",
"69 0 LINE",
"219 0 LINE",
"219 440 LINE",
"564 0 LINE",
"684 0 LINE",
"684 705 LINE"
);
},
{
closed = 1;
nodes = (
"306 -200 LINE",
"448 -200 LINE",
"448 -65 LINE",
"306 -65 LINE"
);
}
);
width = 753;
}
);
unicode = 1E46;
},
{
glyphname = Eng;
lastChange = "2017-11-26 07:35:25 +0000";
layers = (
{
layerId = UUID0;
paths = (
{
closed = 1;
nodes = (
"533 705 LINE",
"533 266 LINE",
"187 705 LINE",
"69 705 LINE",
"69 0 LINE",
"219 0 LINE",
"219 440 LINE",
"532 41 LINE",
"532 24 LINE SMOOTH",
"532 -27 OFFCURVE",
"500 -59 OFFCURVE",
"445 -62 CURVE SMOOTH",
"368 -67 LINE",
"378 -188 LINE",
"472 -183 LINE SMOOTH",
"613 -175 OFFCURVE",
"684 -104 OFFCURVE",
"684 30 CURVE SMOOTH",
"684 705 LINE"
);
}
);
width = 753;
}
);
unicode = 014A;
},
{
glyphname = Nj;
lastChange = "2017-11-26 07:35:25 +0000";
layers = (
{
anchors = (
{
name = mark0;
position = "{887, 0}";
},
{
name = mark1;
position = "{0, 0}";
},
{
name = mark2;
position = "{887, 685}";
},
{
name = mark3;
position = "{0, 0}";
},
{
name = mark4;
position = "{0, 0}";
}
);
layerId = UUID0;
paths = (
{
closed = 1;
nodes = (
"804 729 LINE",
"804 584 LINE",
"970 584 LINE",
"970 729 LINE"
);
},
{
closed = 1;
nodes = (
"684 0 LINE",
"684 705 LINE",
"533 705 LINE",
"533 266 LINE",
"187 705 LINE",
"69 705 LINE",
"69 0 LINE",
"219 0 LINE",
"219 440 LINE",
"564 0 LINE"
);
},
{
closed = 1;
nodes = (
"810 5 LINE",
"810 -46 OFFCURVE",
"788 -67 OFFCURVE",
"732 -71 CURVE SMOOTH",
"680 -75 LINE",
"691 -186 LINE",
"739 -183 LINE SMOOTH",
"906 -173 OFFCURVE",
"966 -116 OFFCURVE",
"966 34 CURVE SMOOTH",
"966 491 LINE",
"810 491 LINE"
);
}
);
width = 1023;
}
);
unicode = 01CB;
},
{
glyphname = Nlinebelow;
lastChange = "2017-11-26 07:35:25 +0000";
layers = (
{
anchors = (
{
name = mark0;
position = "{377, -170}";
},
{
name = mark1;
position = "{0, 0}";
},
{
name = mark2;
position = "{376, 705}";
},
{
name = mark3;
position = "{0, 0}";
},
{
name = mark4;
position = "{0, 0}";
}
);
layerId = UUID0;
paths = (
{
closed = 1;
nodes = (
"533 705 LINE",
"533 266 LINE",
"187 705 LINE",
"69 705 LINE",
"69 0 LINE",
"219 0 LINE",
"219 440 LINE",
"564 0 LINE",
"684 0 LINE",
"684 705 LINE"
);
},
{
closed = 1;
nodes = (
"220 -178 LINE",
"534 -178 LINE",
"534 -88 LINE",
"220 -88 LINE"
);
}
);
width = 753;
}
);
unicode = 1E48;
},
{
glyphname = Ntilde;
lastChange = "2017-11-26 07:35:25 +0000";
layers = (
{
anchors = (
{
name = mark0;
position = "{377, 0}";
},
{
name = mark1;
position = "{0, 0}";
},
{
name = mark2;
position = "{376, 865}";
},
{
name = mark3;
position = "{0, 0}";
},
{
name = mark4;
position = "{0, 0}";
}
);
layerId = UUID0;
paths = (
{
closed = 1;
nodes = (
"347 820 OFFCURVE",
"390 768 OFFCURVE",
"441 768 CURVE SMOOTH",
"501 768 OFFCURVE",
"551 813 OFFCURVE",
"551 916 CURVE",
"485 916 LINE",
"482 885 OFFCURVE",
"467 867 OFFCURVE",
"443 867 CURVE SMOOTH",
"405 867 OFFCURVE",
"362 919 OFFCURVE",
"311 919 CURVE SMOOTH",
"251 919 OFFCURVE",
"201 874 OFFCURVE",
"201 771 CURVE",
"267 771 LINE",
"270 802 OFFCURVE",
"285 820 OFFCURVE",
"309 820 CURVE SMOOTH"
);
},
{
closed = 1;
nodes = (
"533 705 LINE",
"533 266 LINE",
"187 705 LINE",
"69 705 LINE",
"69 0 LINE",
"219 0 LINE",
"219 440 LINE",
"564 0 LINE",
"684 0 LINE",
"684 705 LINE"
);
}
);
width = 753;
}
);
unicode = 00D1;
},
{
glyphname = O;
lastChange = "2017-11-26 07:35:25 +0000";
layers = (
{
anchors = (
{
name = mark0;
position = "{395, 0}";
},
{
name = mark1;
position = "{513, 10}";
},
{
name = mark2;
position = "{394, 705}";
},
{
name = mark3;
position = "{395, 353}";
},
{
name = mark4;
position = "{425, 705}";
}
);
layerId = UUID0;
paths = (
{
closed = 1;
nodes = (
"608 -9 OFFCURVE",
"740 132 OFFCURVE",
"740 353 CURVE SMOOTH",
"740 574 OFFCURVE",
"608 714 OFFCURVE",
"395 714 CURVE SMOOTH",
"182 714 OFFCURVE",
"49 574 OFFCURVE",
"49 353 CURVE SMOOTH",
"49 132 OFFCURVE",
"182 -9 OFFCURVE",
"395 -9 CURVE SMOOTH"
);
},
{
closed = 1;
nodes = (
"281 116 OFFCURVE",
"210 196 OFFCURVE",
"210 353 CURVE SMOOTH",
"210 510 OFFCURVE",
"281 589 OFFCURVE",
"395 589 CURVE SMOOTH",
"509 589 OFFCURVE",
"580 509 OFFCURVE",
"580 353 CURVE SMOOTH",
"580 197 OFFCURVE",
"509 116 OFFCURVE",
"395 116 CURVE SMOOTH"
);
}
);
width = 789;
}
);
leftKerningGroup = C;
rightKerningGroup = D;
unicode = 004F;
},
{
glyphname = Oacute;
lastChange = "2017-11-26 07:35:25 +0000";
layers = (
{
anchors = (
{
name = mark0;
position = "{395, 0}";
},
{
name = mark1;
position = "{513, 10}";
},
{
name = mark2;
position = "{394, 865}";
},
{
name = mark3;
position = "{395, 353}";
},
{
name = mark4;
position = "{425, 705}";
}
);
layerId = UUID0;
paths = (
{
closed = 1;
nodes = (
"442 765 LINE",
"592 921 LINE",
"449 921 LINE",
"346 765 LINE"
);
},
{
closed = 1;
nodes = (
"608 -9 OFFCURVE",
"740 132 OFFCURVE",
"740 353 CURVE SMOOTH",
"740 574 OFFCURVE",
"608 714 OFFCURVE",
"395 714 CURVE SMOOTH",
"182 714 OFFCURVE",
"49 574 OFFCURVE",
"49 353 CURVE SMOOTH",
"49 132 OFFCURVE",
"182 -9 OFFCURVE",
"395 -9 CURVE SMOOTH"
);
},
{
closed = 1;
nodes = (
"281 116 OFFCURVE",
"210 196 OFFCURVE",
"210 353 CURVE SMOOTH",
"210 510 OFFCURVE",
"281 589 OFFCURVE",
"395 589 CURVE SMOOTH",
"509 589 OFFCURVE",
"580 509 OFFCURVE",
"580 353 CURVE SMOOTH",
"580 197 OFFCURVE",
"509 116 OFFCURVE",
"395 116 CURVE SMOOTH"
);
}
);
width = 789;
}
);
leftKerningGroup = C;
rightKerningGroup = D;
unicode = 00D3;
},
{
glyphname = Obreve;
lastChange = "2017-11-26 07:35:25 +0000";
layers = (
{
anchors = (
{
name = mark0;
position = "{395, 0}";
},
{
name = mark1;
position = "{513, 10}";
},
{
name = mark2;
position = "{394, 865}";
},
{
name = mark3;
position = "{395, 353}";
},
{
name = mark4;
position = "{425, 705}";
}
);
layerId = UUID0;
paths = (
{
closed = 1;
nodes = (
"480 774 OFFCURVE",
"547 811 OFFCURVE",
"573 883 CURVE",
"502 913 LINE",
"479 877 OFFCURVE",
"438 865 OFFCURVE",
"394 865 CURVE SMOOTH",
"350 865 OFFCURVE",
"309 877 OFFCURVE",
"286 913 CURVE",
"215 883 LINE",
"241 811 OFFCURVE",
"308 774 OFFCURVE",
"394 774 CURVE SMOOTH"
);
},
{
closed = 1;
nodes = (
"608 -9 OFFCURVE",
"740 132 OFFCURVE",
"740 353 CURVE SMOOTH",
"740 574 OFFCURVE",
"608 714 OFFCURVE",
"395 714 CURVE SMOOTH",
"182 714 OFFCURVE",
"49 574 OFFCURVE",
"49 353 CURVE SMOOTH",
"49 132 OFFCURVE",
"182 -9 OFFCURVE",
"395 -9 CURVE SMOOTH"
);
},
{
closed = 1;
nodes = (
"281 116 OFFCURVE",
"210 196 OFFCURVE",
"210 353 CURVE SMOOTH",
"210 510 OFFCURVE",
"281 589 OFFCURVE",
"395 589 CURVE SMOOTH",
"509 589 OFFCURVE",
"580 509 OFFCURVE",
"580 353 CURVE SMOOTH",
"580 197 OFFCURVE",
"509 116 OFFCURVE",
"395 116 CURVE SMOOTH"
);
}
);
width = 789;
}
);
leftKerningGroup = C;
rightKerningGroup = D;
unicode = 014E;
},
{
glyphname = Ocircumflex;
lastChange = "2017-11-26 07:35:25 +0000";
layers = (
{
anchors = (
{
name = mark0;
position = "{395, 0}";
},
{
name = mark1;
position = "{513, 10}";
},
{
name = mark2;
position = "{394, 865}";
},
{
name = mark3;
position = "{395, 353}";
},
{
name = mark4;
position = "{425, 705}";
}
);
layerId = UUID0;
paths = (
{
closed = 1;
nodes = (
"333 765 LINE",
"394 849 LINE",
"455 765 LINE",
"571 765 LINE",
"438 921 LINE",
"350 921 LINE",
"217 765 LINE"
);
},
{
closed = 1;
nodes = (
"608 -9 OFFCURVE",
"740 132 OFFCURVE",
"740 353 CURVE SMOOTH",
"740 574 OFFCURVE",
"608 714 OFFCURVE",
"395 714 CURVE SMOOTH",
"182 714 OFFCURVE",
"49 574 OFFCURVE",
"49 353 CURVE SMOOTH",
"49 132 OFFCURVE",
"182 -9 OFFCURVE",
"395 -9 CURVE SMOOTH"
);
},
{
closed = 1;
nodes = (
"281 116 OFFCURVE",
"210 196 OFFCURVE",
"210 353 CURVE SMOOTH",
"210 510 OFFCURVE",
"281 589 OFFCURVE",
"395 589 CURVE SMOOTH",
"509 589 OFFCURVE",
"580 509 OFFCURVE",
"580 353 CURVE SMOOTH",
"580 197 OFFCURVE",
"509 116 OFFCURVE",
"395 116 CURVE SMOOTH"
);
}
);
width = 789;
}
);
leftKerningGroup = C;
rightKerningGroup = D;
unicode = 00D4;
},
{
glyphname = Ocircumflexacute;
lastChange = "2017-11-26 07:35:25 +0000";
layers = (
{
anchors = (
{
name = mark0;
position = "{395, 0}";
},
{
name = mark1;
position = "{513, 10}";
},
{
name = mark2;
position = "{394, 865}";
},
{
name = mark3;
position = "{395, 353}";
},
{
name = mark4;
position = "{425, 705}";
}
);
layerId = UUID0;
paths = (
{
closed = 1;
nodes = (
"564 872 LINE",
"687 1013 LINE",
"559 1013 LINE",
"489 872 LINE"
);
},
{
closed = 1;
nodes = (
"331 765 LINE",
"394 834 LINE",
"457 765 LINE",
"571 765 LINE",
"438 903 LINE",
"350 903 LINE",
"217 765 LINE"
);
},
{
closed = 1;
nodes = (
"608 -9 OFFCURVE",
"740 132 OFFCURVE",
"740 353 CURVE SMOOTH",
"740 574 OFFCURVE",
"608 714 OFFCURVE",
"395 714 CURVE SMOOTH",
"182 714 OFFCURVE",
"49 574 OFFCURVE",
"49 353 CURVE SMOOTH",
"49 132 OFFCURVE",
"182 -9 OFFCURVE",
"395 -9 CURVE SMOOTH"
);
},
{
closed = 1;
nodes = (
"281 116 OFFCURVE",
"210 196 OFFCURVE",
"210 353 CURVE SMOOTH",
"210 510 OFFCURVE",
"281 589 OFFCURVE",
"395 589 CURVE SMOOTH",
"509 589 OFFCURVE",
"580 509 OFFCURVE",
"580 353 CURVE SMOOTH",
"580 197 OFFCURVE",
"509 116 OFFCURVE",
"395 116 CURVE SMOOTH"
);
}
);
width = 789;
}
);
leftKerningGroup = C;
rightKerningGroup = D;
unicode = 1ED0;
},
{
glyphname = Ocircumflexdotbelow;
lastChange = "2017-11-26 07:35:25 +0000";
layers = (
{
anchors = (
{
name = mark0;
position = "{395, -170}";
},
{
name = mark1;
position = "{513, 10}";
},
{
name = mark2;
position = "{394, 865}";
},
{
name = mark3;
position = "{395, 353}";
},
{
name = mark4;
position = "{425, 705}";
}
);
layerId = UUID0;
paths = (
{
closed = 1;
nodes = (
"333 765 LINE",
"394 849 LINE",
"455 765 LINE",
"571 765 LINE",
"438 921 LINE",
"350 921 LINE",
"217 765 LINE"
);
},
{
closed = 1;
nodes = (
"608 -9 OFFCURVE",
"740 132 OFFCURVE",
"740 353 CURVE SMOOTH",
"740 574 OFFCURVE",
"608 714 OFFCURVE",
"395 714 CURVE SMOOTH",
"182 714 OFFCURVE",
"49 574 OFFCURVE",
"49 353 CURVE SMOOTH",
"49 132 OFFCURVE",
"182 -9 OFFCURVE",
"395 -9 CURVE SMOOTH"
);
},
{
closed = 1;
nodes = (
"281 116 OFFCURVE",
"210 196 OFFCURVE",
"210 353 CURVE SMOOTH",
"210 510 OFFCURVE",
"281 589 OFFCURVE",
"395 589 CURVE SMOOTH",
"509 589 OFFCURVE",
"580 509 OFFCURVE",
"580 353 CURVE SMOOTH",
"580 197 OFFCURVE",
"509 116 OFFCURVE",
"395 116 CURVE SMOOTH"
);
},
{
closed = 1;
nodes = (
"324 -65 LINE",
"324 -200 LINE",
"466 -200 LINE",
"466 -65 LINE"
);
}
);
width = 789;
}
);
leftKerningGroup = C;
rightKerningGroup = D;
unicode = 1ED8;
},
{
glyphname = Ocircumflexgrave;
lastChange = "2017-11-26 07:35:25 +0000";
layers = (
{
anchors = (
{
name = mark0;
position = "{395, 0}";
},
{
name = mark1;
position = "{513, 10}";
},
{
name = mark2;
position = "{394, 865}";
},
{
name = mark3;
position = "{395, 353}";
},
{
name = mark4;
position = "{425, 705}";
}
);
layerId = UUID0;
paths = (
{
closed = 1;
nodes = (
"531 872 LINE",
"606 872 LINE",
"536 1013 LINE",
"408 1013 LINE"
);
},
{
closed = 1;
nodes = (
"331 765 LINE",
"394 834 LINE",
"457 765 LINE",
"571 765 LINE",
"438 903 LINE",
"350 903 LINE",
"217 765 LINE"
);
},
{
closed = 1;
nodes = (
"608 -9 OFFCURVE",
"740 132 OFFCURVE",
"740 353 CURVE SMOOTH",
"740 574 OFFCURVE",
"608 714 OFFCURVE",
"395 714 CURVE SMOOTH",
"182 714 OFFCURVE",
"49 574 OFFCURVE",
"49 353 CURVE SMOOTH",
"49 132 OFFCURVE",
"182 -9 OFFCURVE",
"395 -9 CURVE SMOOTH"
);
},
{
closed = 1;
nodes = (
"281 116 OFFCURVE",
"210 196 OFFCURVE",
"210 353 CURVE SMOOTH",
"210 510 OFFCURVE",
"281 589 OFFCURVE",
"395 589 CURVE SMOOTH",
"509 589 OFFCURVE",
"580 509 OFFCURVE",
"580 353 CURVE SMOOTH",
"580 197 OFFCURVE",
"509 116 OFFCURVE",
"395 116 CURVE SMOOTH"
);
}
);
width = 789;
}
);
leftKerningGroup = C;
rightKerningGroup = D;
unicode = 1ED2;
},
{
glyphname = Ocircumflexhookabove;
lastChange = "2017-11-26 07:35:25 +0000";
layers = (
{
anchors = (
{
name = mark0;
position = "{395, 0}";
},
{
name = mark1;
position = "{513, 10}";
},
{
name = mark2;
position = "{394, 865}";
},
{
name = mark3;
position = "{395, 353}";
},
{
name = mark4;
position = "{425, 705}";
}
);
layerId = UUID0;
paths = (
{
closed = 1;
nodes = (
"564 881 LINE",
"564 915 OFFCURVE",
"647 907 OFFCURVE",
"647 959 CURVE SMOOTH",
"647 994 OFFCURVE",
"606 1019 OFFCURVE",
"540 1019 CURVE SMOOTH",
"499 1019 OFFCURVE",
"469 1011 OFFCURVE",
"444 1001 CURVE",
"464 950 LINE",
"487 958 OFFCURVE",
"507 961 OFFCURVE",
"521 961 CURVE SMOOTH",
"545 961 OFFCURVE",
"553 954 OFFCURVE",
"553 948 CURVE SMOOTH",
"553 937 OFFCURVE",
"488 936 OFFCURVE",
"488 893 CURVE SMOOTH",
"488 873 LINE",
"564 873 LINE"
);
},
{
closed = 1;
nodes = (
"331 765 LINE",
"394 834 LINE",
"457 765 LINE",
"571 765 LINE",
"438 903 LINE",
"350 903 LINE",
"217 765 LINE"
);
},
{
closed = 1;
nodes = (
"608 -9 OFFCURVE",
"740 132 OFFCURVE",
"740 353 CURVE SMOOTH",
"740 574 OFFCURVE",
"608 714 OFFCURVE",
"395 714 CURVE SMOOTH",
"182 714 OFFCURVE",
"49 574 OFFCURVE",
"49 353 CURVE SMOOTH",
"49 132 OFFCURVE",
"182 -9 OFFCURVE",
"395 -9 CURVE SMOOTH"
);
},
{
closed = 1;
nodes = (
"281 116 OFFCURVE",
"210 196 OFFCURVE",
"210 353 CURVE SMOOTH",
"210 510 OFFCURVE",
"281 589 OFFCURVE",
"395 589 CURVE SMOOTH",
"509 589 OFFCURVE",
"580 509 OFFCURVE",
"580 353 CURVE SMOOTH",
"580 197 OFFCURVE",
"509 116 OFFCURVE",
"395 116 CURVE SMOOTH"
);
}
);
width = 789;
}
);
leftKerningGroup = C;
rightKerningGroup = D;
unicode = 1ED4;
},
{
glyphname = Ocircumflextilde;
lastChange = "2017-11-26 07:35:25 +0000";
layers = (
{
anchors = (
{
name = mark0;
position = "{395, 0}";
},
{
name = mark1;
position = "{513, 10}";
},
{
name = mark2;
position = "{394, 865}";
},
{
name = mark3;
position = "{395, 353}";
},
{
name = mark4;
position = "{425, 705}";
}
);
layerId = UUID0;
paths = (
{
closed = 1;
nodes = (
"285 921 LINE",
"288 942 OFFCURVE",
"303 950 OFFCURVE",
"327 950 CURVE SMOOTH",
"365 950 OFFCURVE",
"408 918 OFFCURVE",
"459 918 CURVE SMOOTH",
"519 918 OFFCURVE",
"569 963 OFFCURVE",
"569 1023 CURVE",
"503 1023 LINE",
"500 1002 OFFCURVE",
"485 994 OFFCURVE",
"461 994 CURVE SMOOTH",
"423 994 OFFCURVE",
"380 1026 OFFCURVE",
"329 1026 CURVE SMOOTH",
"269 1026 OFFCURVE",
"219 981 OFFCURVE",
"219 921 CURVE"
);
},
{
closed = 1;
nodes = (
"331 765 LINE",
"394 834 LINE",
"457 765 LINE",
"571 765 LINE",
"438 903 LINE",
"350 903 LINE",
"217 765 LINE"
);
},
{
closed = 1;
nodes = (
"608 -9 OFFCURVE",
"740 132 OFFCURVE",
"740 353 CURVE SMOOTH",
"740 574 OFFCURVE",
"608 714 OFFCURVE",
"395 714 CURVE SMOOTH",
"182 714 OFFCURVE",
"49 574 OFFCURVE",
"49 353 CURVE SMOOTH",
"49 132 OFFCURVE",
"182 -9 OFFCURVE",
"395 -9 CURVE SMOOTH"
);
},
{
closed = 1;
nodes = (
"281 116 OFFCURVE",
"210 196 OFFCURVE",
"210 353 CURVE SMOOTH",
"210 510 OFFCURVE",
"281 589 OFFCURVE",
"395 589 CURVE SMOOTH",
"509 589 OFFCURVE",
"580 509 OFFCURVE",
"580 353 CURVE SMOOTH",
"580 197 OFFCURVE",
"509 116 OFFCURVE",
"395 116 CURVE SMOOTH"
);
}
);
width = 789;
}
);
leftKerningGroup = C;
rightKerningGroup = D;
unicode = 1ED6;
},
{
glyphname = Odblgrave;
lastChange = "2017-11-26 07:35:25 +0000";
layers = (
{
anchors = (
{
name = mark0;
position = "{395, 0}";
},
{
name = mark1;
position = "{513, 10}";
},
{
name = mark2;
position = "{394, 865}";
},
{
name = mark3;
position = "{395, 353}";
},
{
name = mark4;
position = "{425, 705}";
}
);
layerId = UUID0;
paths = (
{
closed = 1;
nodes = (
"286 765 LINE",
"362 765 LINE",
"289 921 LINE",
"186 921 LINE"
);
},
{
closed = 1;
nodes = (
"426 765 LINE",
"502 765 LINE",
"429 921 LINE",
"326 921 LINE"
);
},
{
closed = 1;
nodes = (
"608 -9 OFFCURVE",
"740 132 OFFCURVE",
"740 353 CURVE SMOOTH",
"740 574 OFFCURVE",
"608 714 OFFCURVE",
"395 714 CURVE SMOOTH",
"182 714 OFFCURVE",
"49 574 OFFCURVE",
"49 353 CURVE SMOOTH",
"49 132 OFFCURVE",
"182 -9 OFFCURVE",
"395 -9 CURVE SMOOTH"
);
},
{
closed = 1;
nodes = (
"281 116 OFFCURVE",
"210 196 OFFCURVE",
"210 353 CURVE SMOOTH",
"210 510 OFFCURVE",
"281 589 OFFCURVE",
"395 589 CURVE SMOOTH",
"509 589 OFFCURVE",
"580 509 OFFCURVE",
"580 353 CURVE SMOOTH",
"580 197 OFFCURVE",
"509 116 OFFCURVE",
"395 116 CURVE SMOOTH"
);
}
);
width = 789;
}
);
leftKerningGroup = C;
rightKerningGroup = D;
unicode = 020C;
},
{
glyphname = Odieresis;
lastChange = "2017-11-26 07:35:25 +0000";
layers = (
{
anchors = (
{
name = mark0;
position = "{395, 0}";
},
{
name = mark1;
position = "{513, 10}";
},
{
name = mark2;
position = "{394, 865}";
},
{
name = mark3;
position = "{395, 353}";
},
{
name = mark4;
position = "{425, 705}";
}
);
layerId = UUID0;
paths = (
{
closed = 1;
nodes = (
"227 911 LINE",
"227 776 LINE",
"369 776 LINE",
"369 911 LINE"
);
},
{
closed = 1;
nodes = (
"419 911 LINE",
"419 776 LINE",
"561 776 LINE",
"561 911 LINE"
);
},
{
closed = 1;
nodes = (
"608 -9 OFFCURVE",
"740 132 OFFCURVE",
"740 353 CURVE SMOOTH",
"740 574 OFFCURVE",
"608 714 OFFCURVE",
"395 714 CURVE SMOOTH",
"182 714 OFFCURVE",
"49 574 OFFCURVE",
"49 353 CURVE SMOOTH",
"49 132 OFFCURVE",
"182 -9 OFFCURVE",
"395 -9 CURVE SMOOTH"
);
},
{
closed = 1;
nodes = (
"281 116 OFFCURVE",
"210 196 OFFCURVE",
"210 353 CURVE SMOOTH",
"210 510 OFFCURVE",
"281 589 OFFCURVE",
"395 589 CURVE SMOOTH",
"509 589 OFFCURVE",
"580 509 OFFCURVE",
"580 353 CURVE SMOOTH",
"580 197 OFFCURVE",
"509 116 OFFCURVE",
"395 116 CURVE SMOOTH"
);
}
);
width = 789;
}
);
leftKerningGroup = C;
rightKerningGroup = D;
unicode = 00D6;
},
{
glyphname = Odieresismacron;
lastChange = "2017-11-26 07:35:25 +0000";
layers = (
{
anchors = (
{
name = mark0;
position = "{395, 0}";
},
{
name = mark1;
position = "{513, 10}";
},
{
name = mark2;
position = "{394, 1025}";
},
{
name = mark3;
position = "{395, 353}";
},
{
name = mark4;
position = "{425, 705}";
}
);
layerId = UUID0;
paths = (
{
closed = 1;
nodes = (
"237 955 LINE",
"551 955 LINE",
"551 1051 LINE",
"237 1051 LINE"
);
},
{
closed = 1;
nodes = (
"227 911 LINE",
"227 776 LINE",
"369 776 LINE",
"369 911 LINE"
);
},
{
closed = 1;
nodes = (
"419 911 LINE",
"419 776 LINE",
"561 776 LINE",
"561 911 LINE"
);
},
{
closed = 1;
nodes = (
"608 -9 OFFCURVE",
"740 132 OFFCURVE",
"740 353 CURVE SMOOTH",
"740 574 OFFCURVE",
"608 714 OFFCURVE",
"395 714 CURVE SMOOTH",
"182 714 OFFCURVE",
"49 574 OFFCURVE",
"49 353 CURVE SMOOTH",
"49 132 OFFCURVE",
"182 -9 OFFCURVE",
"395 -9 CURVE SMOOTH"
);
},
{
closed = 1;
nodes = (
"281 116 OFFCURVE",
"210 196 OFFCURVE",
"210 353 CURVE SMOOTH",
"210 510 OFFCURVE",
"281 589 OFFCURVE",
"395 589 CURVE SMOOTH",
"509 589 OFFCURVE",
"580 509 OFFCURVE",
"580 353 CURVE SMOOTH",
"580 197 OFFCURVE",
"509 116 OFFCURVE",
"395 116 CURVE SMOOTH"
);
}
);
width = 789;
}
);
leftKerningGroup = C;
rightKerningGroup = D;
unicode = 022A;
},
{
glyphname = Odotaccentmacron;
lastChange = "2017-11-26 07:35:25 +0000";
layers = (
{
anchors = (
{
name = mark0;
position = "{395, 0}";
},
{
name = mark1;
position = "{513, 10}";
},
{
name = mark2;
position = "{394, 1025}";
},
{
name = mark3;
position = "{395, 353}";
},
{
name = mark4;
position = "{425, 705}";
}
);
layerId = UUID0;
paths = (
{
closed = 1;
nodes = (
"237 955 LINE",
"551 955 LINE",
"551 1051 LINE",
"237 1051 LINE"
);
},
{
closed = 1;
nodes = (
"311 916 LINE",
"311 771 LINE",
"477 771 LINE",
"477 916 LINE"
);
},
{
closed = 1;
nodes = (
"608 -9 OFFCURVE",
"740 132 OFFCURVE",
"740 353 CURVE SMOOTH",
"740 574 OFFCURVE",
"608 714 OFFCURVE",
"395 714 CURVE SMOOTH",
"182 714 OFFCURVE",
"49 574 OFFCURVE",
"49 353 CURVE SMOOTH",
"49 132 OFFCURVE",
"182 -9 OFFCURVE",
"395 -9 CURVE SMOOTH"
);
},
{
closed = 1;
nodes = (
"281 116 OFFCURVE",
"210 196 OFFCURVE",
"210 353 CURVE SMOOTH",
"210 510 OFFCURVE",
"281 589 OFFCURVE",
"395 589 CURVE SMOOTH",
"509 589 OFFCURVE",
"580 509 OFFCURVE",
"580 353 CURVE SMOOTH",
"580 197 OFFCURVE",
"509 116 OFFCURVE",
"395 116 CURVE SMOOTH"
);
}
);
width = 789;
}
);
leftKerningGroup = C;
rightKerningGroup = D;
unicode = 0230;
},
{
glyphname = Odotbelow;
lastChange = "2017-11-26 07:35:25 +0000";
layers = (
{
anchors = (
{
name = mark0;
position = "{395, -170}";
},
{
name = mark1;
position = "{513, 10}";
},
{
name = mark2;
position = "{394, 705}";
},
{
name = mark3;
position = "{395, 353}";
},
{
name = mark4;
position = "{425, 705}";
}
);
layerId = UUID0;
paths = (
{
closed = 1;
nodes = (
"608 -9 OFFCURVE",
"740 132 OFFCURVE",
"740 353 CURVE SMOOTH",
"740 574 OFFCURVE",
"608 714 OFFCURVE",
"395 714 CURVE SMOOTH",
"182 714 OFFCURVE",
"49 574 OFFCURVE",
"49 353 CURVE SMOOTH",
"49 132 OFFCURVE",
"182 -9 OFFCURVE",
"395 -9 CURVE SMOOTH"
);
},
{
closed = 1;
nodes = (
"281 116 OFFCURVE",
"210 196 OFFCURVE",
"210 353 CURVE SMOOTH",
"210 510 OFFCURVE",
"281 589 OFFCURVE",
"395 589 CURVE SMOOTH",
"509 589 OFFCURVE",
"580 509 OFFCURVE",
"580 353 CURVE SMOOTH",
"580 197 OFFCURVE",
"509 116 OFFCURVE",
"395 116 CURVE SMOOTH"
);
},
{
closed = 1;
nodes = (
"324 -65 LINE",
"324 -200 LINE",
"466 -200 LINE",
"466 -65 LINE"
);
}
);
width = 789;
}
);
leftKerningGroup = C;
rightKerningGroup = D;
unicode = 1ECC;
},
{
glyphname = Ograve;
lastChange = "2017-11-26 07:35:25 +0000";
layers = (
{
anchors = (
{
name = mark0;
position = "{395, 0}";
},
{
name = mark1;
position = "{513, 10}";
},
{
name = mark2;
position = "{394, 865}";
},
{
name = mark3;
position = "{395, 353}";
},
{
name = mark4;
position = "{425, 705}";
}
);
layerId = UUID0;
paths = (
{
closed = 1;
nodes = (
"346 765 LINE",
"442 765 LINE",
"339 921 LINE",
"196 921 LINE"
);
},
{
closed = 1;
nodes = (
"608 -9 OFFCURVE",
"740 132 OFFCURVE",
"740 353 CURVE SMOOTH",
"740 574 OFFCURVE",
"608 714 OFFCURVE",
"395 714 CURVE SMOOTH",
"182 714 OFFCURVE",
"49 574 OFFCURVE",
"49 353 CURVE SMOOTH",
"49 132 OFFCURVE",
"182 -9 OFFCURVE",
"395 -9 CURVE SMOOTH"
);
},
{
closed = 1;
nodes = (
"281 116 OFFCURVE",
"210 196 OFFCURVE",
"210 353 CURVE SMOOTH",
"210 510 OFFCURVE",
"281 589 OFFCURVE",
"395 589 CURVE SMOOTH",
"509 589 OFFCURVE",
"580 509 OFFCURVE",
"580 353 CURVE SMOOTH",
"580 197 OFFCURVE",
"509 116 OFFCURVE",
"395 116 CURVE SMOOTH"
);
}
);
width = 789;
}
);
leftKerningGroup = C;
rightKerningGroup = D;
unicode = 00D2;
},
{
glyphname = Ohookabove;
lastChange = "2017-11-26 07:35:25 +0000";
layers = (
{
anchors = (
{
name = mark0;
position = "{395, 0}";
},
{
name = mark1;
position = "{513, 10}";
},
{
name = mark2;
position = "{394, 865}";
},
{
name = mark3;
position = "{395, 353}";
},
{
name = mark4;
position = "{425, 705}";
}
);
layerId = UUID0;
paths = (
{
closed = 1;
nodes = (
"432 778 LINE",
"432 812 OFFCURVE",
"515 809 OFFCURVE",
"515 861 CURVE SMOOTH",
"515 896 OFFCURVE",
"474 925 OFFCURVE",
"408 925 CURVE SMOOTH",
"367 925 OFFCURVE",
"337 917 OFFCURVE",
"312 907 CURVE",
"332 854 LINE",
"355 862 OFFCURVE",
"375 865 OFFCURVE",
"389 865 CURVE SMOOTH",
"413 865 OFFCURVE",
"421 858 OFFCURVE",
"421 849 CURVE SMOOTH",
"421 831 OFFCURVE",
"356 831 OFFCURVE",
"356 787 CURVE SMOOTH",
"356 765 LINE",
"432 765 LINE"
);
},
{
closed = 1;
nodes = (
"608 -9 OFFCURVE",
"740 132 OFFCURVE",
"740 353 CURVE SMOOTH",
"740 574 OFFCURVE",
"608 714 OFFCURVE",
"395 714 CURVE SMOOTH",
"182 714 OFFCURVE",
"49 574 OFFCURVE",
"49 353 CURVE SMOOTH",
"49 132 OFFCURVE",
"182 -9 OFFCURVE",
"395 -9 CURVE SMOOTH"
);
},
{
closed = 1;
nodes = (
"281 116 OFFCURVE",
"210 196 OFFCURVE",
"210 353 CURVE SMOOTH",
"210 510 OFFCURVE",
"281 589 OFFCURVE",
"395 589 CURVE SMOOTH",
"509 589 OFFCURVE",
"580 509 OFFCURVE",
"580 353 CURVE SMOOTH",
"580 197 OFFCURVE",
"509 116 OFFCURVE",
"395 116 CURVE SMOOTH"
);
}
);
width = 789;
}
);
leftKerningGroup = C;
rightKerningGroup = D;
unicode = 1ECE;
},
{
glyphname = Ohorn;
lastChange = "2017-11-26 07:35:25 +0000";
layers = (
{
anchors = (
{
name = mark0;
position = "{395, 0}";
},
{
name = mark1;
position = "{0, 0}";
},
{
name = mark2;
position = "{394, 705}";
},
{
name = mark3;
position = "{0, 0}";
},
{
name = mark4;
position = "{0, 0}";
}
);
layerId = UUID0;
paths = (
{
closed = 1;
nodes = (
"740 826 LINE",
"606 826 LINE",
"606 806 LINE SMOOTH",
"606 732 OFFCURVE",
"583 705 OFFCURVE",
"520 705 CURVE SMOOTH",
"476 705 OFFCURVE",
"445 714 OFFCURVE",
"397 714 CURVE SMOOTH",
"182 714 OFFCURVE",
"49 574 OFFCURVE",
"49 353 CURVE SMOOTH",
"49 132 OFFCURVE",
"182 -9 OFFCURVE",
"395 -9 CURVE SMOOTH",
"608 -9 OFFCURVE",
"740 132 OFFCURVE",
"740 353 CURVE SMOOTH",
"740 475 OFFCURVE",
"702 572 OFFCURVE",
"626 634 CURVE",
"695 650 OFFCURVE",
"740 709 OFFCURVE",
"740 787 CURVE"
);
},
{
closed = 1;
nodes = (
"281 116 OFFCURVE",
"210 196 OFFCURVE",
"210 353 CURVE SMOOTH",
"210 510 OFFCURVE",
"281 589 OFFCURVE",
"395 589 CURVE SMOOTH",
"509 589 OFFCURVE",
"580 509 OFFCURVE",
"580 353 CURVE SMOOTH",
"580 197 OFFCURVE",
"509 116 OFFCURVE",
"395 116 CURVE SMOOTH"
);
}
);
width = 789;
}
);
leftKerningGroup = C;
rightKerningGroup = D;
unicode = 01A0;
},
{
glyphname = Ohornacute;
lastChange = "2017-11-26 07:35:25 +0000";
layers = (
{
anchors = (
{
name = mark0;
position = "{395, 0}";
},
{
name = mark1;
position = "{0, 0}";
},
{
name = mark2;
position = "{394, 865}";
},
{
name = mark3;
position = "{0, 0}";
},
{
name = mark4;
position = "{0, 0}";
}
);
layerId = UUID0;
paths = (
{
closed = 1;
nodes = (
"592 921 LINE",
"449 921 LINE",
"346 765 LINE",
"442 765 LINE"
);
},
{
closed = 1;
nodes = (
"740 826 LINE",
"606 826 LINE",
"606 806 LINE SMOOTH",
"606 732 OFFCURVE",
"583 705 OFFCURVE",
"520 705 CURVE SMOOTH",
"476 705 OFFCURVE",
"445 714 OFFCURVE",
"397 714 CURVE SMOOTH",
"182 714 OFFCURVE",
"49 574 OFFCURVE",
"49 353 CURVE SMOOTH",
"49 132 OFFCURVE",
"182 -9 OFFCURVE",
"395 -9 CURVE SMOOTH",
"608 -9 OFFCURVE",
"740 132 OFFCURVE",
"740 353 CURVE SMOOTH",
"740 475 OFFCURVE",
"702 572 OFFCURVE",
"626 634 CURVE",
"695 650 OFFCURVE",
"740 709 OFFCURVE",
"740 787 CURVE"
);
},
{
closed = 1;
nodes = (
"281 116 OFFCURVE",
"210 196 OFFCURVE",
"210 353 CURVE SMOOTH",
"210 510 OFFCURVE",
"281 589 OFFCURVE",
"395 589 CURVE SMOOTH",
"509 589 OFFCURVE",
"580 509 OFFCURVE",
"580 353 CURVE SMOOTH",
"580 197 OFFCURVE",
"509 116 OFFCURVE",
"395 116 CURVE SMOOTH"
);
}
);
width = 789;
}
);
leftKerningGroup = C;
rightKerningGroup = D;
unicode = 1EDA;
},
{
glyphname = Ohorndotbelow;
lastChange = "2017-11-26 07:35:25 +0000";
layers = (
{
anchors = (
{
name = mark0;
position = "{395, -170}";
},
{
name = mark1;
position = "{0, 0}";
},
{
name = mark2;
position = "{394, 705}";
},
{
name = mark3;
position = "{0, 0}";
},
{
name = mark4;
position = "{0, 0}";
}
);
layerId = UUID0;
paths = (
{
closed = 1;
nodes = (
"740 826 LINE",
"606 826 LINE",
"606 806 LINE SMOOTH",
"606 732 OFFCURVE",
"583 705 OFFCURVE",
"520 705 CURVE SMOOTH",
"476 705 OFFCURVE",
"445 714 OFFCURVE",
"397 714 CURVE SMOOTH",
"182 714 OFFCURVE",
"49 574 OFFCURVE",
"49 353 CURVE SMOOTH",
"49 132 OFFCURVE",
"182 -9 OFFCURVE",
"395 -9 CURVE SMOOTH",
"608 -9 OFFCURVE",
"740 132 OFFCURVE",
"740 353 CURVE SMOOTH",
"740 475 OFFCURVE",
"702 572 OFFCURVE",
"626 634 CURVE",
"695 650 OFFCURVE",
"740 709 OFFCURVE",
"740 787 CURVE"
);
},
{
closed = 1;
nodes = (
"281 116 OFFCURVE",
"210 196 OFFCURVE",
"210 353 CURVE SMOOTH",
"210 510 OFFCURVE",
"281 589 OFFCURVE",
"395 589 CURVE SMOOTH",
"509 589 OFFCURVE",
"580 509 OFFCURVE",
"580 353 CURVE SMOOTH",
"580 197 OFFCURVE",
"509 116 OFFCURVE",
"395 116 CURVE SMOOTH"
);
},
{
closed = 1;
nodes = (
"324 -200 LINE",
"466 -200 LINE",
"466 -65 LINE",
"324 -65 LINE"
);
}
);
width = 789;
}
);
leftKerningGroup = C;
rightKerningGroup = D;
unicode = 1EE2;
},
{
glyphname = Ohorngrave;
lastChange = "2017-11-26 07:35:25 +0000";
layers = (
{
anchors = (
{
name = mark0;
position = "{395, 0}";
},
{
name = mark1;
position = "{0, 0}";
},
{
name = mark2;
position = "{394, 865}";
},
{
name = mark3;
position = "{0, 0}";
},
{
name = mark4;
position = "{0, 0}";
}
);
layerId = UUID0;
paths = (
{
closed = 1;
nodes = (
"442 765 LINE",
"339 921 LINE",
"196 921 LINE",
"346 765 LINE"
);
},
{
closed = 1;
nodes = (
"740 826 LINE",
"606 826 LINE",
"606 806 LINE SMOOTH",
"606 732 OFFCURVE",
"583 705 OFFCURVE",
"520 705 CURVE SMOOTH",
"476 705 OFFCURVE",
"445 714 OFFCURVE",
"397 714 CURVE SMOOTH",
"182 714 OFFCURVE",
"49 574 OFFCURVE",
"49 353 CURVE SMOOTH",
"49 132 OFFCURVE",
"182 -9 OFFCURVE",
"395 -9 CURVE SMOOTH",
"608 -9 OFFCURVE",
"740 132 OFFCURVE",
"740 353 CURVE SMOOTH",
"740 475 OFFCURVE",
"702 572 OFFCURVE",
"626 634 CURVE",
"695 650 OFFCURVE",
"740 709 OFFCURVE",
"740 787 CURVE"
);
},
{
closed = 1;
nodes = (
"281 116 OFFCURVE",
"210 196 OFFCURVE",
"210 353 CURVE SMOOTH",
"210 510 OFFCURVE",
"281 589 OFFCURVE",
"395 589 CURVE SMOOTH",
"509 589 OFFCURVE",
"580 509 OFFCURVE",
"580 353 CURVE SMOOTH",
"580 197 OFFCURVE",
"509 116 OFFCURVE",
"395 116 CURVE SMOOTH"
);
}
);
width = 789;
}
);
leftKerningGroup = C;
rightKerningGroup = D;
unicode = 1EDC;
},
{
glyphname = Ohornhookabove;
lastChange = "2017-11-26 07:35:25 +0000";
layers = (
{
anchors = (
{
name = mark0;
position = "{395, 0}";
},
{
name = mark1;
position = "{0, 0}";
},
{
name = mark2;
position = "{394, 865}";
},
{
name = mark3;
position = "{0, 0}";
},
{
name = mark4;
position = "{0, 0}";
}
);
layerId = UUID0;
paths = (
{
closed = 1;
nodes = (
"413 865 OFFCURVE",
"421 858 OFFCURVE",
"421 849 CURVE SMOOTH",
"421 831 OFFCURVE",
"356 831 OFFCURVE",
"356 787 CURVE SMOOTH",
"356 765 LINE",
"432 765 LINE",
"432 778 LINE SMOOTH",
"432 812 OFFCURVE",
"515 809 OFFCURVE",
"515 861 CURVE SMOOTH",
"515 896 OFFCURVE",
"474 925 OFFCURVE",
"408 925 CURVE SMOOTH",
"367 925 OFFCURVE",
"337 917 OFFCURVE",
"312 907 CURVE",
"332 854 LINE",
"355 862 OFFCURVE",
"375 865 OFFCURVE",
"389 865 CURVE SMOOTH"
);
},
{
closed = 1;
nodes = (
"740 826 LINE",
"606 826 LINE",
"606 806 LINE SMOOTH",
"606 732 OFFCURVE",
"583 705 OFFCURVE",
"520 705 CURVE SMOOTH",
"476 705 OFFCURVE",
"445 714 OFFCURVE",
"397 714 CURVE SMOOTH",
"182 714 OFFCURVE",
"49 574 OFFCURVE",
"49 353 CURVE SMOOTH",
"49 132 OFFCURVE",
"182 -9 OFFCURVE",
"395 -9 CURVE SMOOTH",
"608 -9 OFFCURVE",
"740 132 OFFCURVE",
"740 353 CURVE SMOOTH",
"740 475 OFFCURVE",
"702 572 OFFCURVE",
"626 634 CURVE",
"695 650 OFFCURVE",
"740 709 OFFCURVE",
"740 787 CURVE"
);
},
{
closed = 1;
nodes = (
"281 116 OFFCURVE",
"210 196 OFFCURVE",
"210 353 CURVE SMOOTH",
"210 510 OFFCURVE",
"281 589 OFFCURVE",
"395 589 CURVE SMOOTH",
"509 589 OFFCURVE",
"580 509 OFFCURVE",
"580 353 CURVE SMOOTH",
"580 197 OFFCURVE",
"509 116 OFFCURVE",
"395 116 CURVE SMOOTH"
);
}
);
width = 789;
}
);
leftKerningGroup = C;
rightKerningGroup = D;
unicode = 1EDE;
},
{
glyphname = Ohorntilde;
lastChange = "2017-11-26 07:35:25 +0000";
layers = (
{
anchors = (
{
name = mark0;
position = "{395, 0}";
},
{
name = mark1;
position = "{0, 0}";
},
{
name = mark2;
position = "{394, 865}";
},
{
name = mark3;
position = "{0, 0}";
},
{
name = mark4;
position = "{0, 0}";
}
);
layerId = UUID0;
paths = (
{
closed = 1;
nodes = (
"365 820 OFFCURVE",
"408 768 OFFCURVE",
"459 768 CURVE SMOOTH",
"519 768 OFFCURVE",
"569 813 OFFCURVE",
"569 916 CURVE",
"503 916 LINE",
"500 885 OFFCURVE",
"485 867 OFFCURVE",
"461 867 CURVE SMOOTH",
"423 867 OFFCURVE",
"380 919 OFFCURVE",
"329 919 CURVE SMOOTH",
"269 919 OFFCURVE",
"219 874 OFFCURVE",
"219 771 CURVE",
"285 771 LINE",
"288 802 OFFCURVE",
"303 820 OFFCURVE",
"327 820 CURVE SMOOTH"
);
},
{
closed = 1;
nodes = (
"740 826 LINE",
"606 826 LINE",
"606 806 LINE SMOOTH",
"606 732 OFFCURVE",
"583 705 OFFCURVE",
"520 705 CURVE SMOOTH",
"476 705 OFFCURVE",
"445 714 OFFCURVE",
"397 714 CURVE SMOOTH",
"182 714 OFFCURVE",
"49 574 OFFCURVE",
"49 353 CURVE SMOOTH",
"49 132 OFFCURVE",
"182 -9 OFFCURVE",
"395 -9 CURVE SMOOTH",
"608 -9 OFFCURVE",
"740 132 OFFCURVE",
"740 353 CURVE SMOOTH",
"740 475 OFFCURVE",
"702 572 OFFCURVE",
"626 634 CURVE",
"695 650 OFFCURVE",
"740 709 OFFCURVE",
"740 787 CURVE"
);
},
{
closed = 1;
nodes = (
"281 116 OFFCURVE",
"210 196 OFFCURVE",
"210 353 CURVE SMOOTH",
"210 510 OFFCURVE",
"281 589 OFFCURVE",
"395 589 CURVE SMOOTH",
"509 589 OFFCURVE",
"580 509 OFFCURVE",
"580 353 CURVE SMOOTH",
"580 197 OFFCURVE",
"509 116 OFFCURVE",
"395 116 CURVE SMOOTH"
);
}
);
width = 789;
}
);
leftKerningGroup = C;
rightKerningGroup = D;
unicode = 1EE0;
},
{
glyphname = Ohungarumlaut;
lastChange = "2017-11-26 07:35:25 +0000";
layers = (
{
anchors = (
{
name = mark0;
position = "{395, 0}";
},
{
name = mark1;
position = "{513, 10}";
},
{
name = mark2;
position = "{394, 865}";
},
{
name = mark3;
position = "{395, 353}";
},
{
name = mark4;
position = "{425, 705}";
}
);
layerId = UUID0;
paths = (
{
closed = 1;
nodes = (
"362 765 LINE",
"462 921 LINE",
"359 921 LINE",
"286 765 LINE"
);
},
{
closed = 1;
nodes = (
"502 765 LINE",
"602 921 LINE",
"499 921 LINE",
"426 765 LINE"
);
},
{
closed = 1;
nodes = (
"608 -9 OFFCURVE",
"740 132 OFFCURVE",
"740 353 CURVE SMOOTH",
"740 574 OFFCURVE",
"608 714 OFFCURVE",
"395 714 CURVE SMOOTH",
"182 714 OFFCURVE",
"49 574 OFFCURVE",
"49 353 CURVE SMOOTH",
"49 132 OFFCURVE",
"182 -9 OFFCURVE",
"395 -9 CURVE SMOOTH"
);
},
{
closed = 1;
nodes = (
"281 116 OFFCURVE",
"210 196 OFFCURVE",
"210 353 CURVE SMOOTH",
"210 510 OFFCURVE",
"281 589 OFFCURVE",
"395 589 CURVE SMOOTH",
"509 589 OFFCURVE",
"580 509 OFFCURVE",
"580 353 CURVE SMOOTH",
"580 197 OFFCURVE",
"509 116 OFFCURVE",
"395 116 CURVE SMOOTH"
);
}
);
width = 789;
}
);
leftKerningGroup = C;
rightKerningGroup = D;
unicode = 0150;
},
{
glyphname = Oinvertedbreve;
lastChange = "2017-11-26 07:35:25 +0000";
layers = (
{
anchors = (
{
name = mark0;
position = "{395, 0}";
},
{
name = mark1;
position = "{513, 10}";
},
{
name = mark2;
position = "{394, 865}";
},
{
name = mark3;
position = "{395, 353}";
},
{
name = mark4;
position = "{425, 705}";
}
);
layerId = UUID0;
paths = (
{
closed = 1;
nodes = (
"308 913 OFFCURVE",
"241 876 OFFCURVE",
"215 804 CURVE",
"286 774 LINE",
"309 810 OFFCURVE",
"350 822 OFFCURVE",
"394 822 CURVE SMOOTH",
"438 822 OFFCURVE",
"479 810 OFFCURVE",
"502 774 CURVE",
"573 804 LINE",
"547 876 OFFCURVE",
"480 913 OFFCURVE",
"394 913 CURVE SMOOTH"
);
},
{
closed = 1;
nodes = (
"608 -9 OFFCURVE",
"740 132 OFFCURVE",
"740 353 CURVE SMOOTH",
"740 574 OFFCURVE",
"608 714 OFFCURVE",
"395 714 CURVE SMOOTH",
"182 714 OFFCURVE",
"49 574 OFFCURVE",
"49 353 CURVE SMOOTH",
"49 132 OFFCURVE",
"182 -9 OFFCURVE",
"395 -9 CURVE SMOOTH"
);
},
{
closed = 1;
nodes = (
"281 116 OFFCURVE",
"210 196 OFFCURVE",
"210 353 CURVE SMOOTH",
"210 510 OFFCURVE",
"281 589 OFFCURVE",
"395 589 CURVE SMOOTH",
"509 589 OFFCURVE",
"580 509 OFFCURVE",
"580 353 CURVE SMOOTH",
"580 197 OFFCURVE",
"509 116 OFFCURVE",
"395 116 CURVE SMOOTH"
);
}
);
width = 789;
}
);
leftKerningGroup = C;
rightKerningGroup = D;
unicode = 020E;
},
{
glyphname = Omacron;
lastChange = "2017-11-26 07:35:25 +0000";
layers = (
{
anchors = (
{
name = mark0;
position = "{395, 0}";
},
{
name = mark1;
position = "{513, 10}";
},
{
name = mark2;
position = "{394, 865}";
},
{
name = mark3;
position = "{395, 353}";
},
{
name = mark4;
position = "{425, 705}";
}
);
layerId = UUID0;
paths = (
{
closed = 1;
nodes = (
"237 795 LINE",
"551 795 LINE",
"551 891 LINE",
"237 891 LINE"
);
},
{
closed = 1;
nodes = (
"608 -9 OFFCURVE",
"740 132 OFFCURVE",
"740 353 CURVE SMOOTH",
"740 574 OFFCURVE",
"608 714 OFFCURVE",
"395 714 CURVE SMOOTH",
"182 714 OFFCURVE",
"49 574 OFFCURVE",
"49 353 CURVE SMOOTH",
"49 132 OFFCURVE",
"182 -9 OFFCURVE",
"395 -9 CURVE SMOOTH"
);
},
{
closed = 1;
nodes = (
"281 116 OFFCURVE",
"210 196 OFFCURVE",
"210 353 CURVE SMOOTH",
"210 510 OFFCURVE",
"281 589 OFFCURVE",
"395 589 CURVE SMOOTH",
"509 589 OFFCURVE",
"580 509 OFFCURVE",
"580 353 CURVE SMOOTH",
"580 197 OFFCURVE",
"509 116 OFFCURVE",
"395 116 CURVE SMOOTH"
);
}
);
width = 789;
}
);
leftKerningGroup = C;
rightKerningGroup = D;
unicode = 014C;
},
{
glyphname = Omacronacute;
lastChange = "2017-11-26 07:35:25 +0000";
layers = (
{
anchors = (
{
name = mark0;
position = "{395, 0}";
},
{
name = mark1;
position = "{513, 10}";
},
{
name = mark2;
position = "{394, 1025}";
},
{
name = mark3;
position = "{395, 353}";
},
{
name = mark4;
position = "{425, 705}";
}
);
layerId = UUID0;
paths = (
{
closed = 1;
nodes = (
"442 925 LINE",
"592 1081 LINE",
"449 1081 LINE",
"346 925 LINE"
);
},
{
closed = 1;
nodes = (
"237 795 LINE",
"551 795 LINE",
"551 891 LINE",
"237 891 LINE"
);
},
{
closed = 1;
nodes = (
"608 -9 OFFCURVE",
"740 132 OFFCURVE",
"740 353 CURVE SMOOTH",
"740 574 OFFCURVE",
"608 714 OFFCURVE",
"395 714 CURVE SMOOTH",
"182 714 OFFCURVE",
"49 574 OFFCURVE",
"49 353 CURVE SMOOTH",
"49 132 OFFCURVE",
"182 -9 OFFCURVE",
"395 -9 CURVE SMOOTH"
);
},
{
closed = 1;
nodes = (
"281 116 OFFCURVE",
"210 196 OFFCURVE",
"210 353 CURVE SMOOTH",
"210 510 OFFCURVE",
"281 589 OFFCURVE",
"395 589 CURVE SMOOTH",
"509 589 OFFCURVE",
"580 509 OFFCURVE",
"580 353 CURVE SMOOTH",
"580 197 OFFCURVE",
"509 116 OFFCURVE",
"395 116 CURVE SMOOTH"
);
}
);
width = 789;
}
);
leftKerningGroup = C;
rightKerningGroup = D;
unicode = 1E52;
},
{
glyphname = Omacrongrave;
lastChange = "2017-11-26 07:35:25 +0000";
layers = (
{
anchors = (
{
name = mark0;
position = "{395, 0}";
},
{
name = mark1;
position = "{513, 10}";
},
{
name = mark2;
position = "{394, 1025}";
},
{
name = mark3;
position = "{395, 353}";
},
{
name = mark4;
position = "{425, 705}";
}
);
layerId = UUID0;
paths = (
{
closed = 1;
nodes = (
"346 925 LINE",
"442 925 LINE",
"339 1081 LINE",
"196 1081 LINE"
);
},
{
closed = 1;
nodes = (
"237 795 LINE",
"551 795 LINE",
"551 891 LINE",
"237 891 LINE"
);
},
{
closed = 1;
nodes = (
"608 -9 OFFCURVE",
"740 132 OFFCURVE",
"740 353 CURVE SMOOTH",
"740 574 OFFCURVE",
"608 714 OFFCURVE",
"395 714 CURVE SMOOTH",
"182 714 OFFCURVE",
"49 574 OFFCURVE",
"49 353 CURVE SMOOTH",
"49 132 OFFCURVE",
"182 -9 OFFCURVE",
"395 -9 CURVE SMOOTH"
);
},
{
closed = 1;
nodes = (
"281 116 OFFCURVE",
"210 196 OFFCURVE",
"210 353 CURVE SMOOTH",
"210 510 OFFCURVE",
"281 589 OFFCURVE",
"395 589 CURVE SMOOTH",
"509 589 OFFCURVE",
"580 509 OFFCURVE",
"580 353 CURVE SMOOTH",
"580 197 OFFCURVE",
"509 116 OFFCURVE",
"395 116 CURVE SMOOTH"
);
}
);
width = 789;
}
);
leftKerningGroup = C;
rightKerningGroup = D;
unicode = 1E50;
},
{
glyphname = Oogonek;
lastChange = "2017-11-26 07:35:25 +0000";
layers = (
{
anchors = (
{
name = mark0;
position = "{0, 0}";
},
{
name = mark1;
position = "{0, 0}";
},
{
name = mark2;
position = "{394, 705}";
},
{
name = mark3;
position = "{0, 0}";
},
{
name = mark4;
position = "{0, 0}";
}
);
layerId = UUID0;
paths = (
{
closed = 1;
nodes = (
"655 49 OFFCURVE",
"740 175 OFFCURVE",
"740 353 CURVE SMOOTH",
"740 574 OFFCURVE",
"608 714 OFFCURVE",
"395 714 CURVE SMOOTH",
"182 714 OFFCURVE",
"49 574 OFFCURVE",
"49 353 CURVE SMOOTH",
"49 138 OFFCURVE",
"175 0 OFFCURVE",
"374 -9 CURVE",
"355 -31 OFFCURVE",
"345 -58 OFFCURVE",
"345 -87 CURVE SMOOTH",
"345 -151 OFFCURVE",
"398 -197 OFFCURVE",
"473 -197 CURVE SMOOTH",
"509 -197 OFFCURVE",
"544 -190 OFFCURVE",
"574 -177 CURVE",
"557 -105 LINE",
"538 -113 OFFCURVE",
"520 -117 OFFCURVE",
"503 -117 CURVE SMOOTH",
"465 -117 OFFCURVE",
"444 -99 OFFCURVE",
"444 -64 CURVE SMOOTH",
"444 -31 OFFCURVE",
"465 -8 OFFCURVE",
"507 5 CURVE SMOOTH"
);
},
{
closed = 1;
nodes = (
"281 116 OFFCURVE",
"210 196 OFFCURVE",
"210 353 CURVE SMOOTH",
"210 510 OFFCURVE",
"281 589 OFFCURVE",
"395 589 CURVE SMOOTH",
"509 589 OFFCURVE",
"580 509 OFFCURVE",
"580 353 CURVE SMOOTH",
"580 197 OFFCURVE",
"509 116 OFFCURVE",
"395 116 CURVE SMOOTH"
);
}
);
width = 789;
}
);
leftKerningGroup = C;
rightKerningGroup = D;
unicode = 01EA;
},
{
glyphname = Oslash;
lastChange = "2017-11-26 07:35:25 +0000";
layers = (
{
anchors = (
{
name = mark0;
position = "{395, 0}";
},
{
name = mark1;
position = "{0, 0}";
},
{
name = mark2;
position = "{394, 705}";
},
{
name = mark3;
position = "{0, 0}";
},
{
name = mark4;
position = "{0, 0}";
}
);
layerId = UUID0;
paths = (
{
closed = 1;
nodes = (
"673 713 LINE",
"571 774 LINE",
"524 694 LINE",
"486 707 OFFCURVE",
"442 714 OFFCURVE",
"395 714 CURVE SMOOTH",
"182 714 OFFCURVE",
"49 574 OFFCURVE",
"49 353 CURVE SMOOTH",
"49 231 OFFCURVE",
"90 133 OFFCURVE",
"162 70 CURVE",
"116 -8 LINE",
"218 -69 LINE",
"265 11 LINE",
"304 -2 OFFCURVE",
"347 -9 OFFCURVE",
"395 -9 CURVE SMOOTH",
"608 -9 OFFCURVE",
"740 132 OFFCURVE",
"740 353 CURVE SMOOTH",
"740 475 OFFCURVE",
"700 572 OFFCURVE",
"628 635 CURVE"
);
},
{
closed = 1;
nodes = (
"210 510 OFFCURVE",
"281 589 OFFCURVE",
"395 589 CURVE SMOOTH",
"418 589 OFFCURVE",
"439 586 OFFCURVE",
"458 579 CURVE",
"240 206 LINE",
"221 243 OFFCURVE",
"210 292 OFFCURVE",
"210 353 CURVE SMOOTH"
);
},
{
closed = 1;
nodes = (
"372 116 OFFCURVE",
"351 119 OFFCURVE",
"331 126 CURVE",
"549 500 LINE",
"569 463 OFFCURVE",
"580 414 OFFCURVE",
"580 353 CURVE SMOOTH",
"580 197 OFFCURVE",
"509 116 OFFCURVE",
"395 116 CURVE SMOOTH"
);
}
);
width = 789;
}
);
leftKerningGroup = C;
rightKerningGroup = D;
unicode = 00D8;
},
{
glyphname = Oslashacute;
lastChange = "2017-11-26 07:35:25 +0000";
layers = (
{
anchors = (
{
name = mark0;
position = "{395, 0}";
},
{
name = mark1;
position = "{0, 0}";
},
{
name = mark2;
position = "{394, 865}";
},
{
name = mark3;
position = "{0, 0}";
},
{
name = mark4;
position = "{0, 0}";
}
);
layerId = UUID0;
paths = (
{
closed = 1;
nodes = (
"592 921 LINE",
"449 921 LINE",
"346 765 LINE",
"442 765 LINE"
);
},
{
closed = 1;
nodes = (
"673 713 LINE",
"571 774 LINE",
"524 694 LINE",
"486 707 OFFCURVE",
"442 714 OFFCURVE",
"395 714 CURVE SMOOTH",
"182 714 OFFCURVE",
"49 574 OFFCURVE",
"49 353 CURVE SMOOTH",
"49 231 OFFCURVE",
"90 133 OFFCURVE",
"162 70 CURVE",
"116 -8 LINE",
"218 -69 LINE",
"265 11 LINE",
"304 -2 OFFCURVE",
"347 -9 OFFCURVE",
"395 -9 CURVE SMOOTH",
"608 -9 OFFCURVE",
"740 132 OFFCURVE",
"740 353 CURVE SMOOTH",
"740 475 OFFCURVE",
"700 572 OFFCURVE",
"628 635 CURVE"
);
},
{
closed = 1;
nodes = (
"210 510 OFFCURVE",
"281 589 OFFCURVE",
"395 589 CURVE SMOOTH",
"418 589 OFFCURVE",
"439 586 OFFCURVE",
"458 579 CURVE",
"240 206 LINE",
"221 243 OFFCURVE",
"210 292 OFFCURVE",
"210 353 CURVE SMOOTH"
);
},
{
closed = 1;
nodes = (
"372 116 OFFCURVE",
"351 119 OFFCURVE",
"331 126 CURVE",
"549 500 LINE",
"569 463 OFFCURVE",
"580 414 OFFCURVE",
"580 353 CURVE SMOOTH",
"580 197 OFFCURVE",
"509 116 OFFCURVE",
"395 116 CURVE SMOOTH"
);
}
);
width = 789;
}
);
leftKerningGroup = C;
rightKerningGroup = D;
unicode = 01FE;
},
{
glyphname = Otilde;
lastChange = "2017-11-26 07:35:25 +0000";
layers = (
{
anchors = (
{
name = mark0;
position = "{395, 0}";
},
{
name = mark1;
position = "{513, 10}";
},
{
name = mark2;
position = "{394, 865}";
},
{
name = mark3;
position = "{395, 353}";
},
{
name = mark4;
position = "{425, 705}";
}
);
layerId = UUID0;
paths = (
{
closed = 1;
nodes = (
"285 771 LINE",
"288 802 OFFCURVE",
"303 820 OFFCURVE",
"327 820 CURVE SMOOTH",
"365 820 OFFCURVE",
"408 768 OFFCURVE",
"459 768 CURVE SMOOTH",
"519 768 OFFCURVE",
"569 813 OFFCURVE",
"569 916 CURVE",
"503 916 LINE",
"500 885 OFFCURVE",
"485 867 OFFCURVE",
"461 867 CURVE SMOOTH",
"423 867 OFFCURVE",
"380 919 OFFCURVE",
"329 919 CURVE SMOOTH",
"269 919 OFFCURVE",
"219 874 OFFCURVE",
"219 771 CURVE"
);
},
{
closed = 1;
nodes = (
"608 -9 OFFCURVE",
"740 132 OFFCURVE",
"740 353 CURVE SMOOTH",
"740 574 OFFCURVE",
"608 714 OFFCURVE",
"395 714 CURVE SMOOTH",
"182 714 OFFCURVE",
"49 574 OFFCURVE",
"49 353 CURVE SMOOTH",
"49 132 OFFCURVE",
"182 -9 OFFCURVE",
"395 -9 CURVE SMOOTH"
);
},
{
closed = 1;
nodes = (
"281 116 OFFCURVE",
"210 196 OFFCURVE",
"210 353 CURVE SMOOTH",
"210 510 OFFCURVE",
"281 589 OFFCURVE",
"395 589 CURVE SMOOTH",
"509 589 OFFCURVE",
"580 509 OFFCURVE",
"580 353 CURVE SMOOTH",
"580 197 OFFCURVE",
"509 116 OFFCURVE",
"395 116 CURVE SMOOTH"
);
}
);
width = 789;
}
);
leftKerningGroup = C;
rightKerningGroup = D;
unicode = 00D5;
},
{
glyphname = Otildeacute;
lastChange = "2017-11-26 07:35:25 +0000";
layers = (
{
anchors = (
{
name = mark0;
position = "{395, 0}";
},
{
name = mark1;
position = "{513, 10}";
},
{
name = mark2;
position = "{394, 1025}";
},
{
name = mark3;
position = "{395, 353}";
},
{
name = mark4;
position = "{425, 705}";
}
);
layerId = UUID0;
paths = (
{
closed = 1;
nodes = (
"442 925 LINE",
"592 1081 LINE",
"449 1081 LINE",
"346 925 LINE"
);
},
{
closed = 1;
nodes = (
"285 771 LINE",
"288 802 OFFCURVE",
"303 820 OFFCURVE",
"327 820 CURVE SMOOTH",
"365 820 OFFCURVE",
"408 768 OFFCURVE",
"459 768 CURVE SMOOTH",
"519 768 OFFCURVE",
"569 813 OFFCURVE",
"569 916 CURVE",
"503 916 LINE",
"500 885 OFFCURVE",
"485 867 OFFCURVE",
"461 867 CURVE SMOOTH",
"423 867 OFFCURVE",
"380 919 OFFCURVE",
"329 919 CURVE SMOOTH",
"269 919 OFFCURVE",
"219 874 OFFCURVE",
"219 771 CURVE"
);
},
{
closed = 1;
nodes = (
"608 -9 OFFCURVE",
"740 132 OFFCURVE",
"740 353 CURVE SMOOTH",
"740 574 OFFCURVE",
"608 714 OFFCURVE",
"395 714 CURVE SMOOTH",
"182 714 OFFCURVE",
"49 574 OFFCURVE",
"49 353 CURVE SMOOTH",
"49 132 OFFCURVE",
"182 -9 OFFCURVE",
"395 -9 CURVE SMOOTH"
);
},
{
closed = 1;
nodes = (
"281 116 OFFCURVE",
"210 196 OFFCURVE",
"210 353 CURVE SMOOTH",
"210 510 OFFCURVE",
"281 589 OFFCURVE",
"395 589 CURVE SMOOTH",
"509 589 OFFCURVE",
"580 509 OFFCURVE",
"580 353 CURVE SMOOTH",
"580 197 OFFCURVE",
"509 116 OFFCURVE",
"395 116 CURVE SMOOTH"
);
}
);
width = 789;
}
);
leftKerningGroup = C;
rightKerningGroup = D;
unicode = 1E4C;
},
{
glyphname = Otildedieresis;
lastChange = "2017-11-26 07:35:25 +0000";
layers = (
{
anchors = (
{
name = mark0;
position = "{395, 0}";
},
{
name = mark1;
position = "{513, 10}";
},
{
name = mark2;
position = "{394, 1025}";
},
{
name = mark3;
position = "{395, 353}";
},
{
name = mark4;
position = "{425, 705}";
}
);
layerId = UUID0;
paths = (
{
closed = 1;
nodes = (
"227 1071 LINE",
"227 936 LINE",
"369 936 LINE",
"369 1071 LINE"
);
},
{
closed = 1;
nodes = (
"419 1071 LINE",
"419 936 LINE",
"561 936 LINE",
"561 1071 LINE"
);
},
{
closed = 1;
nodes = (
"285 771 LINE",
"288 802 OFFCURVE",
"303 820 OFFCURVE",
"327 820 CURVE SMOOTH",
"365 820 OFFCURVE",
"408 768 OFFCURVE",
"459 768 CURVE SMOOTH",
"519 768 OFFCURVE",
"569 813 OFFCURVE",
"569 916 CURVE",
"503 916 LINE",
"500 885 OFFCURVE",
"485 867 OFFCURVE",
"461 867 CURVE SMOOTH",
"423 867 OFFCURVE",
"380 919 OFFCURVE",
"329 919 CURVE SMOOTH",
"269 919 OFFCURVE",
"219 874 OFFCURVE",
"219 771 CURVE"
);
},
{
closed = 1;
nodes = (
"608 -9 OFFCURVE",
"740 132 OFFCURVE",
"740 353 CURVE SMOOTH",
"740 574 OFFCURVE",
"608 714 OFFCURVE",
"395 714 CURVE SMOOTH",
"182 714 OFFCURVE",
"49 574 OFFCURVE",
"49 353 CURVE SMOOTH",
"49 132 OFFCURVE",
"182 -9 OFFCURVE",
"395 -9 CURVE SMOOTH"
);
},
{
closed = 1;
nodes = (
"281 116 OFFCURVE",
"210 196 OFFCURVE",
"210 353 CURVE SMOOTH",
"210 510 OFFCURVE",
"281 589 OFFCURVE",
"395 589 CURVE SMOOTH",
"509 589 OFFCURVE",
"580 509 OFFCURVE",
"580 353 CURVE SMOOTH",
"580 197 OFFCURVE",
"509 116 OFFCURVE",
"395 116 CURVE SMOOTH"
);
}
);
width = 789;
}
);
leftKerningGroup = C;
rightKerningGroup = D;
unicode = 1E4E;
},
{
glyphname = Otildemacron;
lastChange = "2017-11-26 07:35:25 +0000";
layers = (
{
anchors = (
{
name = mark0;
position = "{395, 0}";
},
{
name = mark1;
position = "{513, 10}";
},
{
name = mark2;
position = "{394, 1025}";
},
{
name = mark3;
position = "{395, 353}";
},
{
name = mark4;
position = "{425, 705}";
}
);
layerId = UUID0;
paths = (
{
closed = 1;
nodes = (
"237 955 LINE",
"551 955 LINE",
"551 1051 LINE",
"237 1051 LINE"
);
},
{
closed = 1;
nodes = (
"285 771 LINE",
"288 802 OFFCURVE",
"303 820 OFFCURVE",
"327 820 CURVE SMOOTH",
"365 820 OFFCURVE",
"408 768 OFFCURVE",
"459 768 CURVE SMOOTH",
"519 768 OFFCURVE",
"569 813 OFFCURVE",
"569 916 CURVE",
"503 916 LINE",
"500 885 OFFCURVE",
"485 867 OFFCURVE",
"461 867 CURVE SMOOTH",
"423 867 OFFCURVE",
"380 919 OFFCURVE",
"329 919 CURVE SMOOTH",
"269 919 OFFCURVE",
"219 874 OFFCURVE",
"219 771 CURVE"
);
},
{
closed = 1;
nodes = (
"608 -9 OFFCURVE",
"740 132 OFFCURVE",
"740 353 CURVE SMOOTH",
"740 574 OFFCURVE",
"608 714 OFFCURVE",
"395 714 CURVE SMOOTH",
"182 714 OFFCURVE",
"49 574 OFFCURVE",
"49 353 CURVE SMOOTH",
"49 132 OFFCURVE",
"182 -9 OFFCURVE",
"395 -9 CURVE SMOOTH"
);
},
{
closed = 1;
nodes = (
"281 116 OFFCURVE",
"210 196 OFFCURVE",
"210 353 CURVE SMOOTH",
"210 510 OFFCURVE",
"281 589 OFFCURVE",
"395 589 CURVE SMOOTH",
"509 589 OFFCURVE",
"580 509 OFFCURVE",
"580 353 CURVE SMOOTH",
"580 197 OFFCURVE",
"509 116 OFFCURVE",
"395 116 CURVE SMOOTH"
);
}
);
width = 789;
}
);
leftKerningGroup = C;
rightKerningGroup = D;
unicode = 022C;
},
{
glyphname = OE;
lastChange = "2017-11-26 07:35:25 +0000";
layers = (
{
anchors = (
{
name = mark0;
position = "{529, 0}";
},
{
name = mark1;
position = "{0, 0}";
},
{
name = mark2;
position = "{529, 705}";
},
{
name = mark3;
position = "{0, 0}";
},
{
name = mark4;
position = "{0, 0}";
}
);
layerId = UUID0;
paths = (
{
closed = 1;
nodes = (
"1007 0 LINE",
"1007 125 LINE",
"675 125 LINE",
"675 296 LINE",
"987 296 LINE",
"987 421 LINE",
"675 421 LINE",
"675 580 LINE",
"1008 580 LINE",
"1008 705 LINE",
"420 705 LINE SMOOTH",
"187 705 OFFCURVE",
"49 574 OFFCURVE",
"49 353 CURVE SMOOTH",
"49 131 OFFCURVE",
"186 0 OFFCURVE",
"420 0 CURVE"
);
},
{
closed = 1;
nodes = (
"431 125 LINE",
"286 125 OFFCURVE",
"210 200 OFFCURVE",
"210 353 CURVE SMOOTH",
"210 505 OFFCURVE",
"286 580 OFFCURVE",
"431 580 CURVE SMOOTH",
"518 580 LINE",
"518 125 LINE"
);
}
);
width = 1044;
}
);
leftKerningGroup = C;
rightKerningGroup = AE;
unicode = 0152;
},
{
glyphname = P;
lastChange = "2017-11-26 07:35:25 +0000";
layers = (
{
anchors = (
{
name = mark0;
position = "{338, 0}";
},
{
name = mark1;
position = "{0, 0}";
},
{
name = mark2;
position = "{337, 705}";
},
{
name = mark3;
position = "{0, 0}";
},
{
name = mark4;
position = "{0, 0}";
}
);
layerId = UUID0;
paths = (
{
closed = 1;
nodes = (
"69 0 LINE",
"230 0 LINE",
"230 263 LINE",
"396 263 LINE SMOOTH",
"549 263 OFFCURVE",
"640 346 OFFCURVE",
"640 484 CURVE SMOOTH",
"640 623 OFFCURVE",
"550 705 OFFCURVE",
"396 705 CURVE SMOOTH",
"69 705 LINE"
);
},
{
closed = 1;
nodes = (
"230 385 LINE",
"230 582 LINE",
"375 582 LINE SMOOTH",
"452 582 OFFCURVE",
"489 550 OFFCURVE",
"489 483 CURVE SMOOTH",
"489 417 OFFCURVE",
"451 385 OFFCURVE",
"375 385 CURVE SMOOTH"
);
}
);
width = 670;
}
);
unicode = 0050;
},
{
glyphname = Thorn;
lastChange = "2017-11-26 07:35:25 +0000";
layers = (
{
anchors = (
{
name = mark0;
position = "{338, 0}";
},
{
name = mark1;
position = "{0, 0}";
},
{
name = mark2;
position = "{337, 705}";
},
{
name = mark3;
position = "{0, 0}";
},
{
name = mark4;
position = "{0, 0}";
}
);
layerId = UUID0;
paths = (
{
closed = 1;
nodes = (
"227 564 LINE",
"227 705 LINE",
"69 705 LINE",
"69 0 LINE",
"227 0 LINE",
"227 152 LINE",
"397 152 LINE SMOOTH",
"548 152 OFFCURVE",
"640 230 OFFCURVE",
"640 358 CURVE SMOOTH",
"640 487 OFFCURVE",
"550 564 OFFCURVE",
"397 564 CURVE"
);
},
{
closed = 1;
nodes = (
"227 275 LINE",
"227 441 LINE",
"370 441 LINE SMOOTH",
"452 441 OFFCURVE",
"489 416 OFFCURVE",
"489 358 CURVE SMOOTH",
"489 300 OFFCURVE",
"452 275 OFFCURVE",
"370 275 CURVE"
);
}
);
width = 671;
}
);
unicode = 00DE;
},
{
glyphname = Q;
lastChange = "2017-11-26 07:35:25 +0000";
layers = (
{
anchors = (
{
name = mark0;
position = "{395, 0}";
},
{
name = mark1;
position = "{0, 0}";
},
{
name = mark2;
position = "{394, 705}";
},
{
name = mark3;
position = "{0, 0}";
},
{
name = mark4;
position = "{0, 0}";
}
);
layerId = UUID0;
paths = (
{
closed = 1;
nodes = (
"678 86 OFFCURVE",
"740 201 OFFCURVE",
"740 353 CURVE SMOOTH",
"740 574 OFFCURVE",
"608 714 OFFCURVE",
"395 714 CURVE SMOOTH",
"182 714 OFFCURVE",
"49 574 OFFCURVE",
"49 353 CURVE SMOOTH",
"49 132 OFFCURVE",
"182 -9 OFFCURVE",
"395 -9 CURVE SMOOTH",
"436 -9 OFFCURVE",
"463 -22 OFFCURVE",
"479 -48 CURVE SMOOTH",
"585 -220 LINE",
"722 -157 LINE",
"646 -34 LINE SMOOTH",
"625 1 OFFCURVE",
"600 22 OFFCURVE",
"567 31 CURVE"
);
},
{
closed = 1;
nodes = (
"281 116 OFFCURVE",
"210 196 OFFCURVE",
"210 353 CURVE SMOOTH",
"210 510 OFFCURVE",
"281 589 OFFCURVE",
"395 589 CURVE SMOOTH",
"509 589 OFFCURVE",
"580 509 OFFCURVE",
"580 353 CURVE SMOOTH",
"580 197 OFFCURVE",
"509 116 OFFCURVE",
"395 116 CURVE SMOOTH"
);
}
);
width = 789;
}
);
leftKerningGroup = C;
rightKerningGroup = D;
unicode = 0051;
},
{
glyphname = R;
lastChange = "2017-11-26 07:35:25 +0000";
layers = (
{
anchors = (
{
name = mark0;
position = "{354, 0}";
},
{
name = mark1;
position = "{0, 0}";
},
{
name = mark2;
position = "{353, 705}";
},
{
name = mark3;
position = "{0, 0}";
},
{
name = mark4;
position = "{0, 0}";
}
);
layerId = UUID0;
paths = (
{
closed = 1;
nodes = (
"571 207 LINE",
"547 251 OFFCURVE",
"517 277 OFFCURVE",
"477 286 CURVE",
"585 310 OFFCURVE",
"647 385 OFFCURVE",
"647 492 CURVE SMOOTH",
"647 630 OFFCURVE",
"562 705 OFFCURVE",
"395 705 CURVE SMOOTH",
"69 705 LINE",
"69 0 LINE",
"228 0 LINE",
"228 272 LINE",
"301 272 LINE SMOOTH",
"340 272 OFFCURVE",
"368 259 OFFCURVE",
"387 225 CURVE SMOOTH",
"509 0 LINE",
"685 0 LINE"
);
},
{
closed = 1;
nodes = (
"226 394 LINE",
"226 582 LINE",
"371 582 LINE SMOOTH",
"459 582 OFFCURVE",
"496 554 OFFCURVE",
"496 488 CURVE SMOOTH",
"496 423 OFFCURVE",
"459 394 OFFCURVE",
"371 394 CURVE"
);
}
);
width = 702;
}
);
rightKerningGroup = R;
unicode = 0052;
},
{
glyphname = Racute;
lastChange = "2017-11-26 07:35:25 +0000";
layers = (
{
anchors = (
{
name = mark0;
position = "{354, 0}";
},
{
name = mark1;
position = "{0, 0}";
},
{
name = mark2;
position = "{353, 865}";
},
{
name = mark3;
position = "{0, 0}";
},
{
name = mark4;
position = "{0, 0}";
}
);
layerId = UUID0;
paths = (
{
closed = 1;
nodes = (
"551 921 LINE",
"408 921 LINE",
"305 765 LINE",
"401 765 LINE"
);
},
{
closed = 1;
nodes = (
"571 207 LINE",
"547 251 OFFCURVE",
"517 277 OFFCURVE",
"477 286 CURVE",
"585 310 OFFCURVE",
"647 385 OFFCURVE",
"647 492 CURVE SMOOTH",
"647 630 OFFCURVE",
"562 705 OFFCURVE",
"395 705 CURVE SMOOTH",
"69 705 LINE",
"69 0 LINE",
"228 0 LINE",
"228 272 LINE",
"301 272 LINE SMOOTH",
"340 272 OFFCURVE",
"368 259 OFFCURVE",
"387 225 CURVE SMOOTH",
"509 0 LINE",
"685 0 LINE"
);
},
{
closed = 1;
nodes = (
"226 394 LINE",
"226 582 LINE",
"371 582 LINE SMOOTH",
"459 582 OFFCURVE",
"496 554 OFFCURVE",
"496 488 CURVE SMOOTH",
"496 423 OFFCURVE",
"459 394 OFFCURVE",
"371 394 CURVE"
);
}
);
width = 702;
}
);
rightKerningGroup = R;
unicode = 0154;
},
{
glyphname = Rcaron;
lastChange = "2017-11-26 07:35:25 +0000";
layers = (
{
anchors = (
{
name = mark0;
position = "{354, 0}";
},
{
name = mark1;
position = "{0, 0}";
},
{
name = mark2;
position = "{353, 865}";
},
{
name = mark3;
position = "{0, 0}";
},
{
name = mark4;
position = "{0, 0}";
}
);
layerId = UUID0;
paths = (
{
closed = 1;
nodes = (
"397 765 LINE",
"530 921 LINE",
"414 921 LINE",
"353 837 LINE",
"292 921 LINE",
"176 921 LINE",
"309 765 LINE"
);
},
{
closed = 1;
nodes = (
"571 207 LINE",
"547 251 OFFCURVE",
"517 277 OFFCURVE",
"477 286 CURVE",
"585 310 OFFCURVE",
"647 385 OFFCURVE",
"647 492 CURVE SMOOTH",
"647 630 OFFCURVE",
"562 705 OFFCURVE",
"395 705 CURVE SMOOTH",
"69 705 LINE",
"69 0 LINE",
"228 0 LINE",
"228 272 LINE",
"301 272 LINE SMOOTH",
"340 272 OFFCURVE",
"368 259 OFFCURVE",
"387 225 CURVE SMOOTH",
"509 0 LINE",
"685 0 LINE"
);
},
{
closed = 1;
nodes = (
"226 394 LINE",
"226 582 LINE",
"371 582 LINE SMOOTH",
"459 582 OFFCURVE",
"496 554 OFFCURVE",
"496 488 CURVE SMOOTH",
"496 423 OFFCURVE",
"459 394 OFFCURVE",
"371 394 CURVE"
);
}
);
width = 702;
}
);
rightKerningGroup = R;
unicode = 0158;
},
{
glyphname = Rcommaaccent;
lastChange = "2017-11-26 07:35:25 +0000";
layers = (
{
anchors = (
{
name = mark0;
position = "{354, -170}";
},
{
name = mark1;
position = "{0, 0}";
},
{
name = mark2;
position = "{353, 705}";
},
{
name = mark3;
position = "{0, 0}";
},
{
name = mark4;
position = "{0, 0}";
}
);
layerId = UUID0;
paths = (
{
closed = 1;
nodes = (
"571 207 LINE",
"547 251 OFFCURVE",
"517 277 OFFCURVE",
"477 286 CURVE",
"585 310 OFFCURVE",
"647 385 OFFCURVE",
"647 492 CURVE SMOOTH",
"647 630 OFFCURVE",
"562 705 OFFCURVE",
"395 705 CURVE SMOOTH",
"69 705 LINE",
"69 0 LINE",
"228 0 LINE",
"228 272 LINE",
"301 272 LINE SMOOTH",
"340 272 OFFCURVE",
"368 259 OFFCURVE",
"387 225 CURVE SMOOTH",
"509 0 LINE",
"685 0 LINE"
);
},
{
closed = 1;
nodes = (
"226 394 LINE",
"226 582 LINE",
"371 582 LINE SMOOTH",
"459 582 OFFCURVE",
"496 554 OFFCURVE",
"496 488 CURVE SMOOTH",
"496 423 OFFCURVE",
"459 394 OFFCURVE",
"371 394 CURVE"
);
},
{
closed = 1;
nodes = (
"277 -181 LINE",
"349 -181 LINE",
"345 -201 OFFCURVE",
"335 -219 OFFCURVE",
"314 -238 CURVE",
"369 -276 LINE",
"416 -235 OFFCURVE",
"430 -189 OFFCURVE",
"430 -130 CURVE SMOOTH",
"430 -65 LINE",
"277 -65 LINE"
);
}
);
width = 702;
}
);
rightKerningGroup = R;
unicode = 0156;
},
{
glyphname = Rdblgrave;
lastChange = "2017-11-26 07:35:25 +0000";
layers = (
{
anchors = (
{
name = mark0;
position = "{354, 0}";
},
{
name = mark1;
position = "{0, 0}";
},
{
name = mark2;
position = "{353, 865}";
},
{
name = mark3;
position = "{0, 0}";
},
{
name = mark4;
position = "{0, 0}";
}
);
layerId = UUID0;
paths = (
{
closed = 1;
nodes = (
"321 765 LINE",
"248 921 LINE",
"145 921 LINE",
"245 765 LINE"
);
},
{
closed = 1;
nodes = (
"461 765 LINE",
"388 921 LINE",
"285 921 LINE",
"385 765 LINE"
);
},
{
closed = 1;
nodes = (
"571 207 LINE",
"547 251 OFFCURVE",
"517 277 OFFCURVE",
"477 286 CURVE",
"585 310 OFFCURVE",
"647 385 OFFCURVE",
"647 492 CURVE SMOOTH",
"647 630 OFFCURVE",
"562 705 OFFCURVE",
"395 705 CURVE SMOOTH",
"69 705 LINE",
"69 0 LINE",
"228 0 LINE",
"228 272 LINE",
"301 272 LINE SMOOTH",
"340 272 OFFCURVE",
"368 259 OFFCURVE",
"387 225 CURVE SMOOTH",
"509 0 LINE",
"685 0 LINE"
);
},
{
closed = 1;
nodes = (
"226 394 LINE",
"226 582 LINE",
"371 582 LINE SMOOTH",
"459 582 OFFCURVE",
"496 554 OFFCURVE",
"496 488 CURVE SMOOTH",
"496 423 OFFCURVE",
"459 394 OFFCURVE",
"371 394 CURVE"
);
}
);
width = 702;
}
);
rightKerningGroup = R;
unicode = 0210;
},
{
glyphname = Rdotbelow;
lastChange = "2017-11-26 07:35:25 +0000";
layers = (
{
anchors = (
{
name = mark0;
position = "{354, -170}";
},
{
name = mark1;
position = "{0, 0}";
},
{
name = mark2;
position = "{353, 705}";
},
{
name = mark3;
position = "{0, 0}";
},
{
name = mark4;
position = "{0, 0}";
}
);
layerId = UUID0;
paths = (
{
closed = 1;
nodes = (
"571 207 LINE",
"547 251 OFFCURVE",
"517 277 OFFCURVE",
"477 286 CURVE",
"585 310 OFFCURVE",
"647 385 OFFCURVE",
"647 492 CURVE SMOOTH",
"647 630 OFFCURVE",
"562 705 OFFCURVE",
"395 705 CURVE SMOOTH",
"69 705 LINE",
"69 0 LINE",
"228 0 LINE",
"228 272 LINE",
"301 272 LINE SMOOTH",
"340 272 OFFCURVE",
"368 259 OFFCURVE",
"387 225 CURVE SMOOTH",
"509 0 LINE",
"685 0 LINE"
);
},
{
closed = 1;
nodes = (
"226 394 LINE",
"226 582 LINE",
"371 582 LINE SMOOTH",
"459 582 OFFCURVE",
"496 554 OFFCURVE",
"496 488 CURVE SMOOTH",
"496 423 OFFCURVE",
"459 394 OFFCURVE",
"371 394 CURVE"
);
},
{
closed = 1;
nodes = (
"283 -200 LINE",
"425 -200 LINE",
"425 -65 LINE",
"283 -65 LINE"
);
}
);
width = 702;
}
);
rightKerningGroup = R;
unicode = 1E5A;
},
{
glyphname = Rinvertedbreve;
lastChange = "2017-11-26 07:35:25 +0000";
layers = (
{
anchors = (
{
name = mark0;
position = "{354, 0}";
},
{
name = mark1;
position = "{0, 0}";
},
{
name = mark2;
position = "{353, 865}";
},
{
name = mark3;
position = "{0, 0}";
},
{
name = mark4;
position = "{0, 0}";
}
);
layerId = UUID0;
paths = (
{
closed = 1;
nodes = (
"397 822 OFFCURVE",
"438 810 OFFCURVE",
"461 774 CURVE",
"532 804 LINE",
"506 876 OFFCURVE",
"439 913 OFFCURVE",
"353 913 CURVE SMOOTH",
"267 913 OFFCURVE",
"200 876 OFFCURVE",
"174 804 CURVE",
"245 774 LINE",
"268 810 OFFCURVE",
"309 822 OFFCURVE",
"353 822 CURVE SMOOTH"
);
},
{
closed = 1;
nodes = (
"571 207 LINE",
"547 251 OFFCURVE",
"517 277 OFFCURVE",
"477 286 CURVE",
"585 310 OFFCURVE",
"647 385 OFFCURVE",
"647 492 CURVE SMOOTH",
"647 630 OFFCURVE",
"562 705 OFFCURVE",
"395 705 CURVE SMOOTH",
"69 705 LINE",
"69 0 LINE",
"228 0 LINE",
"228 272 LINE",
"301 272 LINE SMOOTH",
"340 272 OFFCURVE",
"368 259 OFFCURVE",
"387 225 CURVE SMOOTH",
"509 0 LINE",
"685 0 LINE"
);
},
{
closed = 1;
nodes = (
"226 394 LINE",
"226 582 LINE",
"371 582 LINE SMOOTH",
"459 582 OFFCURVE",
"496 554 OFFCURVE",
"496 488 CURVE SMOOTH",
"496 423 OFFCURVE",
"459 394 OFFCURVE",
"371 394 CURVE"
);
}
);
width = 702;
}
);
rightKerningGroup = R;
unicode = 0212;
},
{
glyphname = Rlinebelow;
lastChange = "2017-11-26 07:35:25 +0000";
layers = (
{
anchors = (
{
name = mark0;
position = "{354, -170}";
},
{
name = mark1;
position = "{0, 0}";
},
{
name = mark2;
position = "{353, 705}";
},
{
name = mark3;
position = "{0, 0}";
},
{
name = mark4;
position = "{0, 0}";
}
);
layerId = UUID0;
paths = (
{
closed = 1;
nodes = (
"228 272 LINE",
"301 272 LINE SMOOTH",
"340 272 OFFCURVE",
"368 259 OFFCURVE",
"387 225 CURVE SMOOTH",
"509 0 LINE",
"685 0 LINE",
"571 207 LINE SMOOTH",
"547 251 OFFCURVE",
"517 277 OFFCURVE",
"477 286 CURVE",
"585 310 OFFCURVE",
"647 385 OFFCURVE",
"647 492 CURVE SMOOTH",
"647 630 OFFCURVE",
"562 705 OFFCURVE",
"395 705 CURVE SMOOTH",
"69 705 LINE",
"69 0 LINE",
"228 0 LINE"
);
},
{
closed = 1;
nodes = (
"226 582 LINE",
"371 582 LINE SMOOTH",
"459 582 OFFCURVE",
"496 554 OFFCURVE",
"496 488 CURVE SMOOTH",
"496 423 OFFCURVE",
"459 394 OFFCURVE",
"371 394 CURVE SMOOTH",
"226 394 LINE"
);
},
{
closed = 1;
nodes = (
"197 -178 LINE",
"511 -178 LINE",
"511 -88 LINE",
"197 -88 LINE"
);
}
);
width = 702;
}
);
rightKerningGroup = R;
unicode = 1E5E;
},
{
glyphname = S;
lastChange = "2017-11-26 07:35:25 +0000";
layers = (
{
anchors = (
{
name = mark0;
position = "{325, 0}";
},
{
name = mark1;
position = "{0, 0}";
},
{
name = mark2;
position = "{330, 705}";
},
{
name = mark3;
position = "{0, 0}";
},
{
name = mark4;
position = "{0, 0}";
}
);
layerId = UUID0;
paths = (
{
closed = 1;
nodes = (
"504 -9 OFFCURVE",
"612 74 OFFCURVE",
"612 207 CURVE SMOOTH",
"612 317 OFFCURVE",
"540 375 OFFCURVE",
"357 415 CURVE SMOOTH",
"243 440 OFFCURVE",
"211 460 OFFCURVE",
"211 504 CURVE SMOOTH",
"211 556 OFFCURVE",
"260 589 OFFCURVE",
"338 589 CURVE SMOOTH",
"409 589 OFFCURVE",
"478 566 OFFCURVE",
"542 519 CURVE",
"593 634 LINE",
"538 683 OFFCURVE",
"437 714 OFFCURVE",
"337 714 CURVE SMOOTH",
"166 714 OFFCURVE",
"53 620 OFFCURVE",
"53 492 CURVE SMOOTH",
"53 378 OFFCURVE",
"121 320 OFFCURVE",
"308 281 CURVE SMOOTH",
"417 258 OFFCURVE",
"454 237 OFFCURVE",
"454 193 CURVE SMOOTH",
"454 145 OFFCURVE",
"407 116 OFFCURVE",
"319 116 CURVE SMOOTH",
"237 116 OFFCURVE",
"160 139 OFFCURVE",
"91 186 CURVE",
"40 71 LINE",
"105 21 OFFCURVE",
"212 -9 OFFCURVE",
"317 -9 CURVE SMOOTH"
);
}
);
width = 653;
}
);
leftKerningGroup = S;
rightKerningGroup = S;
unicode = 0053;
},
{
glyphname = Sacute;
lastChange = "2017-11-26 07:35:25 +0000";
layers = (
{
anchors = (
{
name = mark0;
position = "{325, 0}";
},
{
name = mark1;
position = "{0, 0}";
},
{
name = mark2;
position = "{330, 865}";
},
{
name = mark3;
position = "{0, 0}";
},
{
name = mark4;
position = "{0, 0}";
}
);
layerId = UUID0;
paths = (
{
closed = 1;
nodes = (
"378 765 LINE",
"528 921 LINE",
"385 921 LINE",
"282 765 LINE"
);
},
{
closed = 1;
nodes = (
"504 -9 OFFCURVE",
"612 74 OFFCURVE",
"612 207 CURVE SMOOTH",
"612 317 OFFCURVE",
"540 375 OFFCURVE",
"357 415 CURVE SMOOTH",
"243 440 OFFCURVE",
"211 460 OFFCURVE",
"211 504 CURVE SMOOTH",
"211 556 OFFCURVE",
"260 589 OFFCURVE",
"338 589 CURVE SMOOTH",
"409 589 OFFCURVE",
"478 566 OFFCURVE",
"542 519 CURVE",
"593 634 LINE",
"538 683 OFFCURVE",
"437 714 OFFCURVE",
"337 714 CURVE SMOOTH",
"166 714 OFFCURVE",
"53 620 OFFCURVE",
"53 492 CURVE SMOOTH",
"53 378 OFFCURVE",
"121 320 OFFCURVE",
"308 281 CURVE SMOOTH",
"417 258 OFFCURVE",
"454 237 OFFCURVE",
"454 193 CURVE SMOOTH",
"454 145 OFFCURVE",
"407 116 OFFCURVE",
"319 116 CURVE SMOOTH",
"237 116 OFFCURVE",
"160 139 OFFCURVE",
"91 186 CURVE",
"40 71 LINE",
"105 21 OFFCURVE",
"212 -9 OFFCURVE",
"317 -9 CURVE SMOOTH"
);
}
);
width = 653;
}
);
leftKerningGroup = S;
rightKerningGroup = S;
unicode = 015A;
},
{
glyphname = Sacutedotaccent;
lastChange = "2017-11-26 07:35:25 +0000";
layers = (
{
anchors = (
{
name = mark0;
position = "{325, 0}";
},
{
name = mark1;
position = "{0, 0}";
},
{
name = mark2;
position = "{207, 869}";
},
{
name = mark3;
position = "{0, 0}";
},
{
name = mark4;
position = "{0, 0}";
}
);
layerId = UUID0;
paths = (
{
closed = 1;
nodes = (
"405 765 LINE",
"555 921 LINE",
"412 921 LINE",
"309 765 LINE"
);
},
{
closed = 1;
nodes = (
"124 920 LINE",
"124 775 LINE",
"290 775 LINE",
"290 920 LINE"
);
},
{
closed = 1;
nodes = (
"504 -9 OFFCURVE",
"612 74 OFFCURVE",
"612 207 CURVE SMOOTH",
"612 317 OFFCURVE",
"540 375 OFFCURVE",
"357 415 CURVE SMOOTH",
"243 440 OFFCURVE",
"211 460 OFFCURVE",
"211 504 CURVE SMOOTH",
"211 556 OFFCURVE",
"260 589 OFFCURVE",
"338 589 CURVE SMOOTH",
"409 589 OFFCURVE",
"478 566 OFFCURVE",
"542 519 CURVE",
"593 634 LINE",
"538 683 OFFCURVE",
"437 714 OFFCURVE",
"337 714 CURVE SMOOTH",
"166 714 OFFCURVE",
"53 620 OFFCURVE",
"53 492 CURVE SMOOTH",
"53 378 OFFCURVE",
"121 320 OFFCURVE",
"308 281 CURVE SMOOTH",
"417 258 OFFCURVE",
"454 237 OFFCURVE",
"454 193 CURVE SMOOTH",
"454 145 OFFCURVE",
"407 116 OFFCURVE",
"319 116 CURVE SMOOTH",
"237 116 OFFCURVE",
"160 139 OFFCURVE",
"91 186 CURVE",
"40 71 LINE",
"105 21 OFFCURVE",
"212 -9 OFFCURVE",
"317 -9 CURVE SMOOTH"
);
}
);
width = 653;
}
);
leftKerningGroup = S;
rightKerningGroup = S;
unicode = 1E64;
},
{
glyphname = Scaron;
lastChange = "2017-11-26 07:35:25 +0000";
layers = (
{
anchors = (
{
name = mark0;
position = "{325, 0}";
},
{
name = mark1;
position = "{0, 0}";
},
{
name = mark2;
position = "{330, 865}";
},
{
name = mark3;
position = "{0, 0}";
},
{
name = mark4;
position = "{0, 0}";
}
);
layerId = UUID0;
paths = (
{
closed = 1;
nodes = (
"391 921 LINE",
"330 837 LINE",
"269 921 LINE",
"153 921 LINE",
"286 765 LINE",
"374 765 LINE",
"507 921 LINE"
);
},
{
closed = 1;
nodes = (
"504 -9 OFFCURVE",
"612 74 OFFCURVE",
"612 207 CURVE SMOOTH",
"612 317 OFFCURVE",
"540 375 OFFCURVE",
"357 415 CURVE SMOOTH",
"243 440 OFFCURVE",
"211 460 OFFCURVE",
"211 504 CURVE SMOOTH",
"211 556 OFFCURVE",
"260 589 OFFCURVE",
"338 589 CURVE SMOOTH",
"409 589 OFFCURVE",
"478 566 OFFCURVE",
"542 519 CURVE",
"593 634 LINE",
"538 683 OFFCURVE",
"437 714 OFFCURVE",
"337 714 CURVE SMOOTH",
"166 714 OFFCURVE",
"53 620 OFFCURVE",
"53 492 CURVE SMOOTH",
"53 378 OFFCURVE",
"121 320 OFFCURVE",
"308 281 CURVE SMOOTH",
"417 258 OFFCURVE",
"454 237 OFFCURVE",
"454 193 CURVE SMOOTH",
"454 145 OFFCURVE",
"407 116 OFFCURVE",
"319 116 CURVE SMOOTH",
"237 116 OFFCURVE",
"160 139 OFFCURVE",
"91 186 CURVE",
"40 71 LINE",
"105 21 OFFCURVE",
"212 -9 OFFCURVE",
"317 -9 CURVE SMOOTH"
);
}
);
width = 653;
}
);
leftKerningGroup = S;
rightKerningGroup = S;
unicode = 0160;
},
{
glyphname = Scarondotaccent;
lastChange = "2017-11-26 07:35:25 +0000";
layers = (
{
anchors = (
{
name = mark0;
position = "{325, 0}";
},
{
name = mark1;
position = "{0, 0}";
},
{
name = mark2;
position = "{330, 1025}";
},
{
name = mark3;
position = "{0, 0}";
},
{
name = mark4;
position = "{0, 0}";
}
);
layerId = UUID0;
paths = (
{
closed = 1;
nodes = (
"247 1076 LINE",
"247 931 LINE",
"413 931 LINE",
"413 1076 LINE"
);
},
{
closed = 1;
nodes = (
"391 921 LINE",
"330 837 LINE",
"269 921 LINE",
"153 921 LINE",
"286 765 LINE",
"374 765 LINE",
"507 921 LINE"
);
},
{
closed = 1;
nodes = (
"504 -9 OFFCURVE",
"612 74 OFFCURVE",
"612 207 CURVE SMOOTH",
"612 317 OFFCURVE",
"540 375 OFFCURVE",
"357 415 CURVE SMOOTH",
"243 440 OFFCURVE",
"211 460 OFFCURVE",
"211 504 CURVE SMOOTH",
"211 556 OFFCURVE",
"260 589 OFFCURVE",
"338 589 CURVE SMOOTH",
"409 589 OFFCURVE",
"478 566 OFFCURVE",
"542 519 CURVE",
"593 634 LINE",
"538 683 OFFCURVE",
"437 714 OFFCURVE",
"337 714 CURVE SMOOTH",
"166 714 OFFCURVE",
"53 620 OFFCURVE",
"53 492 CURVE SMOOTH",
"53 378 OFFCURVE",
"121 320 OFFCURVE",
"308 281 CURVE SMOOTH",
"417 258 OFFCURVE",
"454 237 OFFCURVE",
"454 193 CURVE SMOOTH",
"454 145 OFFCURVE",
"407 116 OFFCURVE",
"319 116 CURVE SMOOTH",
"237 116 OFFCURVE",
"160 139 OFFCURVE",
"91 186 CURVE",
"40 71 LINE",
"105 21 OFFCURVE",
"212 -9 OFFCURVE",
"317 -9 CURVE SMOOTH"
);
}
);
width = 653;
}
);
leftKerningGroup = S;
rightKerningGroup = S;
unicode = 1E66;
},
{
glyphname = Scedilla;
lastChange = "2017-11-26 07:35:25 +0000";
layers = (
{
anchors = (
{
name = mark0;
position = "{325, 0}";
},
{
name = mark1;
position = "{0, 0}";
},
{
name = mark2;
position = "{330, 705}";
},
{
name = mark3;
position = "{0, 0}";
},
{
name = mark4;
position = "{0, 0}";
}
);
layerId = UUID0;
paths = (
{
closed = 1;
nodes = (
"612 317 OFFCURVE",
"540 375 OFFCURVE",
"357 415 CURVE SMOOTH",
"243 440 OFFCURVE",
"211 460 OFFCURVE",
"211 504 CURVE SMOOTH",
"211 556 OFFCURVE",
"260 589 OFFCURVE",
"338 589 CURVE SMOOTH",
"409 589 OFFCURVE",
"478 566 OFFCURVE",
"542 519 CURVE",
"593 634 LINE",
"538 683 OFFCURVE",
"437 714 OFFCURVE",
"337 714 CURVE SMOOTH",
"166 714 OFFCURVE",
"53 620 OFFCURVE",
"53 492 CURVE SMOOTH",
"53 378 OFFCURVE",
"121 320 OFFCURVE",
"308 281 CURVE SMOOTH",
"417 258 OFFCURVE",
"454 237 OFFCURVE",
"454 193 CURVE SMOOTH",
"454 145 OFFCURVE",
"407 116 OFFCURVE",
"319 116 CURVE SMOOTH",
"237 116 OFFCURVE",
"160 139 OFFCURVE",
"91 186 CURVE",
"40 71 LINE",
"96 28 OFFCURVE",
"183 0 OFFCURVE",
"273 -7 CURVE",
"264 -75 LINE",
"284 -96 LINE",
"293 -93 OFFCURVE",
"307 -90 OFFCURVE",
"319 -90 CURVE SMOOTH",
"340 -90 OFFCURVE",
"351 -97 OFFCURVE",
"351 -109 CURVE SMOOTH",
"351 -128 OFFCURVE",
"331 -134 OFFCURVE",
"306 -134 CURVE SMOOTH",
"284 -134 OFFCURVE",
"260 -130 OFFCURVE",
"227 -120 CURVE",
"216 -179 LINE",
"244 -191 OFFCURVE",
"283 -197 OFFCURVE",
"310 -197 CURVE SMOOTH",
"400 -197 OFFCURVE",
"446 -159 OFFCURVE",
"446 -109 CURVE SMOOTH",
"446 -66 OFFCURVE",
"414 -40 OFFCURVE",
"362 -40 CURVE SMOOTH",
"358 -40 OFFCURVE",
"354 -40 OFFCURVE",
"350 -41 CURVE",
"355 -8 LINE",
"519 3 OFFCURVE",
"612 83 OFFCURVE",
"612 207 CURVE SMOOTH"
);
}
);
width = 653;
}
);
leftKerningGroup = S;
rightKerningGroup = S;
unicode = 015E;
},
{
glyphname = Scircumflex;
lastChange = "2017-11-26 07:35:25 +0000";
layers = (
{
anchors = (
{
name = mark0;
position = "{325, 0}";
},
{
name = mark1;
position = "{0, 0}";
},
{
name = mark2;
position = "{330, 865}";
},
{
name = mark3;
position = "{0, 0}";
},
{
name = mark4;
position = "{0, 0}";
}
);
layerId = UUID0;
paths = (
{
closed = 1;
nodes = (
"269 765 LINE",
"330 849 LINE",
"391 765 LINE",
"507 765 LINE",
"374 921 LINE",
"286 921 LINE",
"153 765 LINE"
);
},
{
closed = 1;
nodes = (
"504 -9 OFFCURVE",
"612 74 OFFCURVE",
"612 207 CURVE SMOOTH",
"612 317 OFFCURVE",
"540 375 OFFCURVE",
"357 415 CURVE SMOOTH",
"243 440 OFFCURVE",
"211 460 OFFCURVE",
"211 504 CURVE SMOOTH",
"211 556 OFFCURVE",
"260 589 OFFCURVE",
"338 589 CURVE SMOOTH",
"409 589 OFFCURVE",
"478 566 OFFCURVE",
"542 519 CURVE",
"593 634 LINE",
"538 683 OFFCURVE",
"437 714 OFFCURVE",
"337 714 CURVE SMOOTH",
"166 714 OFFCURVE",
"53 620 OFFCURVE",
"53 492 CURVE SMOOTH",
"53 378 OFFCURVE",
"121 320 OFFCURVE",
"308 281 CURVE SMOOTH",
"417 258 OFFCURVE",
"454 237 OFFCURVE",
"454 193 CURVE SMOOTH",
"454 145 OFFCURVE",
"407 116 OFFCURVE",
"319 116 CURVE SMOOTH",
"237 116 OFFCURVE",
"160 139 OFFCURVE",
"91 186 CURVE",
"40 71 LINE",
"105 21 OFFCURVE",
"212 -9 OFFCURVE",
"317 -9 CURVE SMOOTH"
);
}
);
width = 653;
}
);
leftKerningGroup = S;
rightKerningGroup = S;
unicode = 015C;
},
{
glyphname = Scommaaccent;
lastChange = "2017-11-26 07:35:25 +0000";
layers = (
{
anchors = (
{
name = mark0;
position = "{325, -170}";
},
{
name = mark1;
position = "{0, 0}";
},
{
name = mark2;
position = "{330, 705}";
},
{
name = mark3;
position = "{0, 0}";
},
{
name = mark4;
position = "{0, 0}";
}
);
layerId = UUID0;
paths = (
{
closed = 1;
nodes = (
"243 440 OFFCURVE",
"211 460 OFFCURVE",
"211 504 CURVE SMOOTH",
"211 556 OFFCURVE",
"260 589 OFFCURVE",
"338 589 CURVE SMOOTH",
"409 589 OFFCURVE",
"478 566 OFFCURVE",
"542 519 CURVE",
"593 634 LINE",
"538 683 OFFCURVE",
"437 714 OFFCURVE",
"337 714 CURVE SMOOTH",
"166 714 OFFCURVE",
"53 620 OFFCURVE",
"53 492 CURVE SMOOTH",
"53 378 OFFCURVE",
"121 320 OFFCURVE",
"308 281 CURVE SMOOTH",
"417 258 OFFCURVE",
"454 237 OFFCURVE",
"454 193 CURVE SMOOTH",
"454 145 OFFCURVE",
"407 116 OFFCURVE",
"319 116 CURVE SMOOTH",
"237 116 OFFCURVE",
"160 139 OFFCURVE",
"91 186 CURVE",
"40 71 LINE",
"105 21 OFFCURVE",
"212 -9 OFFCURVE",
"317 -9 CURVE SMOOTH",
"504 -9 OFFCURVE",
"612 74 OFFCURVE",
"612 207 CURVE SMOOTH",
"612 317 OFFCURVE",
"540 375 OFFCURVE",
"357 415 CURVE SMOOTH"
);
},
{
closed = 1;
nodes = (
"248 -181 LINE",
"320 -181 LINE",
"316 -201 OFFCURVE",
"306 -219 OFFCURVE",
"285 -238 CURVE",
"340 -276 LINE",
"387 -235 OFFCURVE",
"401 -189 OFFCURVE",
"401 -130 CURVE SMOOTH",
"401 -65 LINE",
"248 -65 LINE"
);
}
);
width = 653;
}
);
leftKerningGroup = S;
rightKerningGroup = S;
unicode = 0218;
},
{
glyphname = Sdotaccent;
lastChange = "2017-11-26 07:35:25 +0000";
layers = (
{
anchors = (
{
name = mark0;
position = "{325, 0}";
},
{
name = mark1;
position = "{0, 0}";
},
{
name = mark2;
position = "{330, 865}";
},
{
name = mark3;
position = "{0, 0}";
},
{
name = mark4;
position = "{0, 0}";
}
);
layerId = UUID0;
paths = (
{
closed = 1;
nodes = (
"247 916 LINE",
"247 771 LINE",
"413 771 LINE",
"413 916 LINE"
);
},
{
closed = 1;
nodes = (
"504 -9 OFFCURVE",
"612 74 OFFCURVE",
"612 207 CURVE SMOOTH",
"612 317 OFFCURVE",
"540 375 OFFCURVE",
"357 415 CURVE SMOOTH",
"243 440 OFFCURVE",
"211 460 OFFCURVE",
"211 504 CURVE SMOOTH",
"211 556 OFFCURVE",
"260 589 OFFCURVE",
"338 589 CURVE SMOOTH",
"409 589 OFFCURVE",
"478 566 OFFCURVE",
"542 519 CURVE",
"593 634 LINE",
"538 683 OFFCURVE",
"437 714 OFFCURVE",
"337 714 CURVE SMOOTH",
"166 714 OFFCURVE",
"53 620 OFFCURVE",
"53 492 CURVE SMOOTH",
"53 378 OFFCURVE",
"121 320 OFFCURVE",
"308 281 CURVE SMOOTH",
"417 258 OFFCURVE",
"454 237 OFFCURVE",
"454 193 CURVE SMOOTH",
"454 145 OFFCURVE",
"407 116 OFFCURVE",
"319 116 CURVE SMOOTH",
"237 116 OFFCURVE",
"160 139 OFFCURVE",
"91 186 CURVE",
"40 71 LINE",
"105 21 OFFCURVE",
"212 -9 OFFCURVE",
"317 -9 CURVE SMOOTH"
);
}
);
width = 653;
}
);
leftKerningGroup = S;
rightKerningGroup = S;
unicode = 1E60;
},
{
glyphname = Sdotbelow;
lastChange = "2017-11-26 07:35:25 +0000";
layers = (
{
anchors = (
{
name = mark0;
position = "{325, -170}";
},
{
name = mark1;
position = "{0, 0}";
},
{
name = mark2;
position = "{330, 705}";
},
{
name = mark3;
position = "{0, 0}";
},
{
name = mark4;
position = "{0, 0}";
}
);
layerId = UUID0;
paths = (
{
closed = 1;
nodes = (
"504 -9 OFFCURVE",
"612 74 OFFCURVE",
"612 207 CURVE SMOOTH",
"612 317 OFFCURVE",
"540 375 OFFCURVE",
"357 415 CURVE SMOOTH",
"243 440 OFFCURVE",
"211 460 OFFCURVE",
"211 504 CURVE SMOOTH",
"211 556 OFFCURVE",
"260 589 OFFCURVE",
"338 589 CURVE SMOOTH",
"409 589 OFFCURVE",
"478 566 OFFCURVE",
"542 519 CURVE",
"593 634 LINE",
"538 683 OFFCURVE",
"437 714 OFFCURVE",
"337 714 CURVE SMOOTH",
"166 714 OFFCURVE",
"53 620 OFFCURVE",
"53 492 CURVE SMOOTH",
"53 378 OFFCURVE",
"121 320 OFFCURVE",
"308 281 CURVE SMOOTH",
"417 258 OFFCURVE",
"454 237 OFFCURVE",
"454 193 CURVE SMOOTH",
"454 145 OFFCURVE",
"407 116 OFFCURVE",
"319 116 CURVE SMOOTH",
"237 116 OFFCURVE",
"160 139 OFFCURVE",
"91 186 CURVE",
"40 71 LINE",
"105 21 OFFCURVE",
"212 -9 OFFCURVE",
"317 -9 CURVE SMOOTH"
);
},
{
closed = 1;
nodes = (
"254 -65 LINE",
"254 -200 LINE",
"396 -200 LINE",
"396 -65 LINE"
);
}
);
width = 653;
}
);
leftKerningGroup = S;
rightKerningGroup = S;
unicode = 1E62;
},
{
glyphname = Sdotbelowdotaccent;
lastChange = "2017-11-26 07:35:25 +0000";
layers = (
{
anchors = (
{
name = mark0;
position = "{325, -170}";
},
{
name = mark1;
position = "{0, 0}";
},
{
name = mark2;
position = "{330, 865}";
},
{
name = mark3;
position = "{0, 0}";
},
{
name = mark4;
position = "{0, 0}";
}
);
layerId = UUID0;
paths = (
{
closed = 1;
nodes = (
"247 916 LINE",
"247 771 LINE",
"413 771 LINE",
"413 916 LINE"
);
},
{
closed = 1;
nodes = (
"504 -9 OFFCURVE",
"612 74 OFFCURVE",
"612 207 CURVE SMOOTH",
"612 317 OFFCURVE",
"540 375 OFFCURVE",
"357 415 CURVE SMOOTH",
"243 440 OFFCURVE",
"211 460 OFFCURVE",
"211 504 CURVE SMOOTH",
"211 556 OFFCURVE",
"260 589 OFFCURVE",
"338 589 CURVE SMOOTH",
"409 589 OFFCURVE",
"478 566 OFFCURVE",
"542 519 CURVE",
"593 634 LINE",
"538 683 OFFCURVE",
"437 714 OFFCURVE",
"337 714 CURVE SMOOTH",
"166 714 OFFCURVE",
"53 620 OFFCURVE",
"53 492 CURVE SMOOTH",
"53 378 OFFCURVE",
"121 320 OFFCURVE",
"308 281 CURVE SMOOTH",
"417 258 OFFCURVE",
"454 237 OFFCURVE",
"454 193 CURVE SMOOTH",
"454 145 OFFCURVE",
"407 116 OFFCURVE",
"319 116 CURVE SMOOTH",
"237 116 OFFCURVE",
"160 139 OFFCURVE",
"91 186 CURVE",
"40 71 LINE",
"105 21 OFFCURVE",
"212 -9 OFFCURVE",
"317 -9 CURVE SMOOTH"
);
},
{
closed = 1;
nodes = (
"254 -65 LINE",
"254 -200 LINE",
"396 -200 LINE",
"396 -65 LINE"
);
}
);
width = 653;
}
);
leftKerningGroup = S;
rightKerningGroup = S;
unicode = 1E68;
},
{
glyphname = Germandbls;
lastChange = "2017-11-26 07:35:25 +0000";
layers = (
{
layerId = UUID0;
paths = (
{
closed = 1;
nodes = (
"588 395 OFFCURVE",
"623 448 OFFCURVE",
"623 514 CURVE SMOOTH",
"623 635 OFFCURVE",
"524 712 OFFCURVE",
"369 712 CURVE SMOOTH",
"179 712 OFFCURVE",
"69 613 OFFCURVE",
"69 441 CURVE SMOOTH",
"69 0 LINE",
"227 0 LINE",
"227 444 LINE SMOOTH",
"227 537 OFFCURVE",
"276 587 OFFCURVE",
"365 587 CURVE SMOOTH",
"431 587 OFFCURVE",
"473 554 OFFCURVE",
"473 500 CURVE SMOOTH",
"473 448 OFFCURVE",
"440 419 OFFCURVE",
"375 419 CURVE SMOOTH",
"295 419 LINE",
"295 294 LINE",
"393 294 LINE SMOOTH",
"488 294 OFFCURVE",
"524 267 OFFCURVE",
"524 203 CURVE SMOOTH",
"524 147 OFFCURVE",
"493 113 OFFCURVE",
"443 113 CURVE SMOOTH",
"403 113 OFFCURVE",
"359 129 OFFCURVE",
"306 163 CURVE",
"264 50 LINE",
"317 11 OFFCURVE",
"375 -6 OFFCURVE",
"452 -6 CURVE SMOOTH",
"581 -6 OFFCURVE",
"676 80 OFFCURVE",
"676 197 CURVE SMOOTH",
"676 286 OFFCURVE",
"621 349 OFFCURVE",
"530 368 CURVE"
);
}
);
width = 712;
}
);
unicode = 1E9E;
},
{
glyphname = Schwa;
lastChange = "2017-11-26 07:35:25 +0000";
layers = (
{
anchors = (
{
name = mark0;
position = "{385, 0}";
},
{
name = mark1;
position = "{0, 0}";
},
{
name = mark2;
position = "{384, 705}";
},
{
name = mark3;
position = "{0, 0}";
},
{
name = mark4;
position = "{0, 0}";
}
);
layerId = UUID0;
paths = (
{
closed = 1;
nodes = (
"265 714 OFFCURVE",
"161 683 OFFCURVE",
"99 634 CURVE",
"150 519 LINE",
"211 564 OFFCURVE",
"281 586 OFFCURVE",
"355 586 CURVE SMOOTH",
"468 586 OFFCURVE",
"537 529 OFFCURVE",
"555 418 CURVE",
"49 418 LINE",
"49 356 LINE SMOOTH",
"49 122 OFFCURVE",
"180 -9 OFFCURVE",
"395 -9 CURVE SMOOTH",
"589 -9 OFFCURVE",
"720 141 OFFCURVE",
"720 353 CURVE SMOOTH",
"720 574 OFFCURVE",
"580 714 OFFCURVE",
"361 714 CURVE SMOOTH"
);
},
{
closed = 1;
nodes = (
"288 116 OFFCURVE",
"224 176 OFFCURVE",
"212 295 CURVE",
"557 295 LINE",
"544 176 OFFCURVE",
"487 116 OFFCURVE",
"390 116 CURVE SMOOTH"
);
}
);
width = 769;
}
);
leftKerningGroup = C;
rightKerningGroup = D;
unicode = 018F;
},
{
glyphname = T;
lastChange = "2017-11-26 07:35:25 +0000";
layers = (
{
anchors = (
{
name = mark0;
position = "{312, 0}";
},
{
name = mark1;
position = "{0, 0}";
},
{
name = mark2;
position = "{312, 705}";
},
{
name = mark3;
position = "{312, 353}";
},
{
name = mark4;
position = "{0, 0}";
}
);
layerId = UUID0;
paths = (
{
closed = 1;
nodes = (
"231 0 LINE",
"393 0 LINE",
"393 574 LINE",
"612 574 LINE",
"612 705 LINE",
"12 705 LINE",
"12 574 LINE",
"231 574 LINE"
);
}
);
width = 624;
}
);
leftKerningGroup = T;
rightKerningGroup = T;
unicode = 0054;
},
{
glyphname = Tbar;
lastChange = "2017-11-26 07:35:25 +0000";
layers = (
{
layerId = UUID0;
paths = (
{
closed = 1;
nodes = (
"612 574 LINE",
"612 705 LINE",
"12 705 LINE",
"12 574 LINE",
"231 574 LINE",
"231 417 LINE",
"96 417 LINE",
"96 295 LINE",
"231 295 LINE",
"231 0 LINE",
"393 0 LINE",
"393 295 LINE",
"528 295 LINE",
"528 417 LINE",
"393 417 LINE",
"393 574 LINE"
);
}
);
width = 624;
}
);
leftKerningGroup = T;
rightKerningGroup = T;
unicode = 0166;
},
{
glyphname = Tcaron;
lastChange = "2017-11-26 07:35:25 +0000";
layers = (
{
anchors = (
{
name = mark0;
position = "{312, 0}";
},
{
name = mark1;
position = "{0, 0}";
},
{
name = mark2;
position = "{312, 865}";
},
{
name = mark3;
position = "{312, 353}";
},
{
name = mark4;
position = "{0, 0}";
}
);
layerId = UUID0;
paths = (
{
closed = 1;
nodes = (
"373 921 LINE",
"312 837 LINE",
"251 921 LINE",
"135 921 LINE",
"268 765 LINE",
"356 765 LINE",
"489 921 LINE"
);
},
{
closed = 1;
nodes = (
"231 0 LINE",
"393 0 LINE",
"393 574 LINE",
"612 574 LINE",
"612 705 LINE",
"12 705 LINE",
"12 574 LINE",
"231 574 LINE"
);
}
);
width = 624;
}
);
leftKerningGroup = T;
rightKerningGroup = T;
unicode = 0164;
},
{
glyphname = Tcedilla;
lastChange = "2017-11-26 07:35:25 +0000";
layers = (
{
anchors = (
{
name = mark0;
position = "{312, 0}";
},
{
name = mark1;
position = "{0, 0}";
},
{
name = mark2;
position = "{312, 705}";
},
{
name = mark3;
position = "{312, 353}";
},
{
name = mark4;
position = "{0, 0}";
}
);
layerId = UUID0;
paths = (
{
closed = 1;
nodes = (
"393 0 LINE",
"393 574 LINE",
"612 574 LINE",
"612 705 LINE",
"12 705 LINE",
"12 574 LINE",
"231 574 LINE",
"231 0 LINE",
"260 0 LINE",
"251 -75 LINE",
"271 -96 LINE",
"280 -93 OFFCURVE",
"294 -90 OFFCURVE",
"306 -90 CURVE SMOOTH",
"327 -90 OFFCURVE",
"338 -97 OFFCURVE",
"338 -109 CURVE SMOOTH",
"338 -128 OFFCURVE",
"318 -134 OFFCURVE",
"293 -134 CURVE SMOOTH",
"271 -134 OFFCURVE",
"247 -130 OFFCURVE",
"214 -120 CURVE",
"203 -179 LINE",
"231 -191 OFFCURVE",
"270 -197 OFFCURVE",
"297 -197 CURVE SMOOTH",
"387 -197 OFFCURVE",
"433 -159 OFFCURVE",
"433 -109 CURVE SMOOTH",
"433 -66 OFFCURVE",
"401 -40 OFFCURVE",
"349 -40 CURVE SMOOTH",
"345 -40 OFFCURVE",
"341 -40 OFFCURVE",
"337 -41 CURVE",
"343 0 LINE"
);
}
);
width = 624;
}
);
leftKerningGroup = T;
rightKerningGroup = T;
unicode = 0162;
},
{
glyphname = Tcommaaccent;
lastChange = "2017-11-26 07:35:25 +0000";
layers = (
{
anchors = (
{
name = mark0;
position = "{312, -170}";
},
{
name = mark1;
position = "{0, 0}";
},
{
name = mark2;
position = "{312, 705}";
},
{
name = mark3;
position = "{312, 353}";
},
{
name = mark4;
position = "{0, 0}";
}
);
layerId = UUID0;
paths = (
{
closed = 1;
nodes = (
"12 705 LINE",
"12 574 LINE",
"231 574 LINE",
"231 0 LINE",
"393 0 LINE",
"393 574 LINE",
"612 574 LINE",
"612 705 LINE"
);
},
{
closed = 1;
nodes = (
"235 -181 LINE",
"307 -181 LINE",
"303 -201 OFFCURVE",
"293 -219 OFFCURVE",
"272 -238 CURVE",
"327 -276 LINE",
"374 -235 OFFCURVE",
"388 -189 OFFCURVE",
"388 -130 CURVE SMOOTH",
"388 -65 LINE",
"235 -65 LINE"
);
}
);
width = 624;
}
);
leftKerningGroup = T;
rightKerningGroup = T;
unicode = 021A;
},
{
glyphname = Tdotbelow;
lastChange = "2017-11-26 07:35:25 +0000";
layers = (
{
anchors = (
{
name = mark0;
position = "{312, -170}";
},
{
name = mark1;
position = "{0, 0}";
},
{
name = mark2;
position = "{312, 705}";
},
{
name = mark3;
position = "{312, 353}";
},
{
name = mark4;
position = "{0, 0}";
}
);
layerId = UUID0;
paths = (
{
closed = 1;
nodes = (
"231 0 LINE",
"393 0 LINE",
"393 574 LINE",
"612 574 LINE",
"612 705 LINE",
"12 705 LINE",
"12 574 LINE",
"231 574 LINE"
);
},
{
closed = 1;
nodes = (
"241 -65 LINE",
"241 -200 LINE",
"383 -200 LINE",
"383 -65 LINE"
);
}
);
width = 624;
}
);
leftKerningGroup = T;
rightKerningGroup = T;
unicode = 1E6C;
},
{
glyphname = Tlinebelow;
lastChange = "2017-11-26 07:35:25 +0000";
layers = (
{
anchors = (
{
name = mark0;
position = "{312, -170}";
},
{
name = mark1;
position = "{0, 0}";
},
{
name = mark2;
position = "{312, 705}";
},
{
name = mark3;
position = "{312, 353}";
},
{
name = mark4;
position = "{0, 0}";
}
);
layerId = UUID0;
paths = (
{
closed = 1;
nodes = (
"231 0 LINE",
"393 0 LINE",
"393 574 LINE",
"612 574 LINE",
"612 705 LINE",
"12 705 LINE",
"12 574 LINE",
"231 574 LINE"
);
},
{
closed = 1;
nodes = (
"155 -178 LINE",
"469 -178 LINE",
"469 -88 LINE",
"155 -88 LINE"
);
}
);
width = 624;
}
);
leftKerningGroup = T;
rightKerningGroup = T;
unicode = 1E6E;
},
{
glyphname = U;
lastChange = "2017-11-26 07:35:25 +0000";
layers = (
{
anchors = (
{
name = mark0;
position = "{370, 0}";
},
{
name = mark1;
position = "{492, 10}";
},
{
name = mark2;
position = "{370, 705}";
},
{
name = mark3;
position = "{0, 0}";
},
{
name = mark4;
position = "{596, 705}";
}
);
layerId = UUID0;
paths = (
{
closed = 1;
nodes = (
"568 -9 OFFCURVE",
"675 97 OFFCURVE",
"675 292 CURVE SMOOTH",
"675 705 LINE",
"517 705 LINE",
"517 285 LINE SMOOTH",
"517 176 OFFCURVE",
"465 116 OFFCURVE",
"370 116 CURVE SMOOTH",
"274 116 OFFCURVE",
"223 175 OFFCURVE",
"223 285 CURVE SMOOTH",
"223 705 LINE",
"65 705 LINE",
"65 292 LINE SMOOTH",
"65 95 OFFCURVE",
"170 -9 OFFCURVE",
"370 -9 CURVE SMOOTH"
);
}
);
width = 740;
}
);
leftKerningGroup = U;
rightKerningGroup = U;
unicode = 0055;
},
{
glyphname = Uacute;
lastChange = "2017-11-26 07:35:25 +0000";
layers = (
{
anchors = (
{
name = mark0;
position = "{370, 0}";
},
{
name = mark1;
position = "{492, 10}";
},
{
name = mark2;
position = "{370, 865}";
},
{
name = mark3;
position = "{0, 0}";
},
{
name = mark4;
position = "{596, 705}";
}
);
layerId = UUID0;
paths = (
{
closed = 1;
nodes = (
"418 765 LINE",
"568 921 LINE",
"425 921 LINE",
"322 765 LINE"
);
},
{
closed = 1;
nodes = (
"568 -9 OFFCURVE",
"675 97 OFFCURVE",
"675 292 CURVE SMOOTH",
"675 705 LINE",
"517 705 LINE",
"517 285 LINE SMOOTH",
"517 176 OFFCURVE",
"465 116 OFFCURVE",
"370 116 CURVE SMOOTH",
"274 116 OFFCURVE",
"223 175 OFFCURVE",
"223 285 CURVE SMOOTH",
"223 705 LINE",
"65 705 LINE",
"65 292 LINE SMOOTH",
"65 95 OFFCURVE",
"170 -9 OFFCURVE",
"370 -9 CURVE SMOOTH"
);
}
);
width = 740;
}
);
leftKerningGroup = U;
rightKerningGroup = U;
unicode = 00DA;
},
{
glyphname = Ubreve;
lastChange = "2017-11-26 07:35:25 +0000";
layers = (
{
anchors = (
{
name = mark0;
position = "{370, 0}";
},
{
name = mark1;
position = "{492, 10}";
},
{
name = mark2;
position = "{370, 865}";
},
{
name = mark3;
position = "{0, 0}";
},
{
name = mark4;
position = "{596, 705}";
}
);
layerId = UUID0;
paths = (
{
closed = 1;
nodes = (
"456 774 OFFCURVE",
"523 811 OFFCURVE",
"549 883 CURVE",
"478 913 LINE",
"455 877 OFFCURVE",
"414 865 OFFCURVE",
"370 865 CURVE SMOOTH",
"326 865 OFFCURVE",
"285 877 OFFCURVE",
"262 913 CURVE",
"191 883 LINE",
"217 811 OFFCURVE",
"284 774 OFFCURVE",
"370 774 CURVE SMOOTH"
);
},
{
closed = 1;
nodes = (
"568 -9 OFFCURVE",
"675 97 OFFCURVE",
"675 292 CURVE SMOOTH",
"675 705 LINE",
"517 705 LINE",
"517 285 LINE SMOOTH",
"517 176 OFFCURVE",
"465 116 OFFCURVE",
"370 116 CURVE SMOOTH",
"274 116 OFFCURVE",
"223 175 OFFCURVE",
"223 285 CURVE SMOOTH",
"223 705 LINE",
"65 705 LINE",
"65 292 LINE SMOOTH",
"65 95 OFFCURVE",
"170 -9 OFFCURVE",
"370 -9 CURVE SMOOTH"
);
}
);
width = 740;
}
);
leftKerningGroup = U;
rightKerningGroup = U;
unicode = 016C;
},
{
glyphname = Ucircumflex;
lastChange = "2017-11-26 07:35:25 +0000";
layers = (
{
anchors = (
{
name = mark0;
position = "{370, 0}";
},
{
name = mark1;
position = "{492, 10}";
},
{
name = mark2;
position = "{370, 865}";
},
{
name = mark3;
position = "{0, 0}";
},
{
name = mark4;
position = "{596, 705}";
}
);
layerId = UUID0;
paths = (
{
closed = 1;
nodes = (
"309 765 LINE",
"370 849 LINE",
"431 765 LINE",
"547 765 LINE",
"414 921 LINE",
"326 921 LINE",
"193 765 LINE"
);
},
{
closed = 1;
nodes = (
"568 -9 OFFCURVE",
"675 97 OFFCURVE",
"675 292 CURVE SMOOTH",
"675 705 LINE",
"517 705 LINE",
"517 285 LINE SMOOTH",
"517 176 OFFCURVE",
"465 116 OFFCURVE",
"370 116 CURVE SMOOTH",
"274 116 OFFCURVE",
"223 175 OFFCURVE",
"223 285 CURVE SMOOTH",
"223 705 LINE",
"65 705 LINE",
"65 292 LINE SMOOTH",
"65 95 OFFCURVE",
"170 -9 OFFCURVE",
"370 -9 CURVE SMOOTH"
);
}
);
width = 740;
}
);
leftKerningGroup = U;
rightKerningGroup = U;
unicode = 00DB;
},
{
glyphname = Udblgrave;
lastChange = "2017-11-26 07:35:25 +0000";
layers = (
{
anchors = (
{
name = mark0;
position = "{370, 0}";
},
{
name = mark1;
position = "{492, 10}";
},
{
name = mark2;
position = "{370, 865}";
},
{
name = mark3;
position = "{0, 0}";
},
{
name = mark4;
position = "{596, 705}";
}
);
layerId = UUID0;
paths = (
{
closed = 1;
nodes = (
"262 765 LINE",
"338 765 LINE",
"265 921 LINE",
"162 921 LINE"
);
},
{
closed = 1;
nodes = (
"402 765 LINE",
"478 765 LINE",
"405 921 LINE",
"302 921 LINE"
);
},
{
closed = 1;
nodes = (
"568 -9 OFFCURVE",
"675 97 OFFCURVE",
"675 292 CURVE SMOOTH",
"675 705 LINE",
"517 705 LINE",
"517 285 LINE SMOOTH",
"517 176 OFFCURVE",
"465 116 OFFCURVE",
"370 116 CURVE SMOOTH",
"274 116 OFFCURVE",
"223 175 OFFCURVE",
"223 285 CURVE SMOOTH",
"223 705 LINE",
"65 705 LINE",
"65 292 LINE SMOOTH",
"65 95 OFFCURVE",
"170 -9 OFFCURVE",
"370 -9 CURVE SMOOTH"
);
}
);
width = 740;
}
);
leftKerningGroup = U;
rightKerningGroup = U;
unicode = 0214;
},
{
glyphname = Udieresis;
lastChange = "2017-11-26 07:35:25 +0000";
layers = (
{
anchors = (
{
name = mark0;
position = "{370, 0}";
},
{
name = mark1;
position = "{492, 10}";
},
{
name = mark2;
position = "{370, 865}";
},
{
name = mark3;
position = "{0, 0}";
},
{
name = mark4;
position = "{596, 705}";
}
);
layerId = UUID0;
paths = (
{
closed = 1;
nodes = (
"203 911 LINE",
"203 776 LINE",
"345 776 LINE",
"345 911 LINE"
);
},
{
closed = 1;
nodes = (
"395 911 LINE",
"395 776 LINE",
"537 776 LINE",
"537 911 LINE"
);
},
{
closed = 1;
nodes = (
"568 -9 OFFCURVE",
"675 97 OFFCURVE",
"675 292 CURVE SMOOTH",
"675 705 LINE",
"517 705 LINE",
"517 285 LINE SMOOTH",
"517 176 OFFCURVE",
"465 116 OFFCURVE",
"370 116 CURVE SMOOTH",
"274 116 OFFCURVE",
"223 175 OFFCURVE",
"223 285 CURVE SMOOTH",
"223 705 LINE",
"65 705 LINE",
"65 292 LINE SMOOTH",
"65 95 OFFCURVE",
"170 -9 OFFCURVE",
"370 -9 CURVE SMOOTH"
);
}
);
width = 740;
}
);
leftKerningGroup = U;
rightKerningGroup = U;
unicode = 00DC;
},
{
glyphname = Udotbelow;
lastChange = "2017-11-26 07:35:25 +0000";
layers = (
{
anchors = (
{
name = mark0;
position = "{370, -170}";
},
{
name = mark1;
position = "{492, 10}";
},
{
name = mark2;
position = "{370, 705}";
},
{
name = mark3;
position = "{0, 0}";
},
{
name = mark4;
position = "{596, 705}";
}
);
layerId = UUID0;
paths = (
{
closed = 1;
nodes = (
"568 -9 OFFCURVE",
"675 97 OFFCURVE",
"675 292 CURVE SMOOTH",
"675 705 LINE",
"517 705 LINE",
"517 285 LINE SMOOTH",
"517 176 OFFCURVE",
"465 116 OFFCURVE",
"370 116 CURVE SMOOTH",
"274 116 OFFCURVE",
"223 175 OFFCURVE",
"223 285 CURVE SMOOTH",
"223 705 LINE",
"65 705 LINE",
"65 292 LINE SMOOTH",
"65 95 OFFCURVE",
"170 -9 OFFCURVE",
"370 -9 CURVE SMOOTH"
);
},
{
closed = 1;
nodes = (
"299 -65 LINE",
"299 -200 LINE",
"441 -200 LINE",
"441 -65 LINE"
);
}
);
width = 740;
}
);
leftKerningGroup = U;
rightKerningGroup = U;
unicode = 1EE4;
},
{
glyphname = Ugrave;
lastChange = "2017-11-26 07:35:25 +0000";
layers = (
{
anchors = (
{
name = mark0;
position = "{370, 0}";
},
{
name = mark1;
position = "{492, 10}";
},
{
name = mark2;
position = "{370, 865}";
},
{
name = mark3;
position = "{0, 0}";
},
{
name = mark4;
position = "{596, 705}";
}
);
layerId = UUID0;
paths = (
{
closed = 1;
nodes = (
"322 765 LINE",
"418 765 LINE",
"315 921 LINE",
"172 921 LINE"
);
},
{
closed = 1;
nodes = (
"568 -9 OFFCURVE",
"675 97 OFFCURVE",
"675 292 CURVE SMOOTH",
"675 705 LINE",
"517 705 LINE",
"517 285 LINE SMOOTH",
"517 176 OFFCURVE",
"465 116 OFFCURVE",
"370 116 CURVE SMOOTH",
"274 116 OFFCURVE",
"223 175 OFFCURVE",
"223 285 CURVE SMOOTH",
"223 705 LINE",
"65 705 LINE",
"65 292 LINE SMOOTH",
"65 95 OFFCURVE",
"170 -9 OFFCURVE",
"370 -9 CURVE SMOOTH"
);
}
);
width = 740;
}
);
leftKerningGroup = U;
rightKerningGroup = U;
unicode = 00D9;
},
{
glyphname = Uhookabove;
lastChange = "2017-11-26 07:35:25 +0000";
layers = (
{
anchors = (
{
name = mark0;
position = "{370, 0}";
},
{
name = mark1;
position = "{492, 10}";
},
{
name = mark2;
position = "{370, 865}";
},
{
name = mark3;
position = "{0, 0}";
},
{
name = mark4;
position = "{596, 705}";
}
);
layerId = UUID0;
paths = (
{
closed = 1;
nodes = (
"408 778 LINE",
"408 812 OFFCURVE",
"491 809 OFFCURVE",
"491 861 CURVE SMOOTH",
"491 896 OFFCURVE",
"450 925 OFFCURVE",
"384 925 CURVE SMOOTH",
"343 925 OFFCURVE",
"313 917 OFFCURVE",
"288 907 CURVE",
"308 854 LINE",
"331 862 OFFCURVE",
"351 865 OFFCURVE",
"365 865 CURVE SMOOTH",
"389 865 OFFCURVE",
"397 858 OFFCURVE",
"397 849 CURVE SMOOTH",
"397 831 OFFCURVE",
"332 831 OFFCURVE",
"332 787 CURVE SMOOTH",
"332 765 LINE",
"408 765 LINE"
);
},
{
closed = 1;
nodes = (
"568 -9 OFFCURVE",
"675 97 OFFCURVE",
"675 292 CURVE SMOOTH",
"675 705 LINE",
"517 705 LINE",
"517 285 LINE SMOOTH",
"517 176 OFFCURVE",
"465 116 OFFCURVE",
"370 116 CURVE SMOOTH",
"274 116 OFFCURVE",
"223 175 OFFCURVE",
"223 285 CURVE SMOOTH",
"223 705 LINE",
"65 705 LINE",
"65 292 LINE SMOOTH",
"65 95 OFFCURVE",
"170 -9 OFFCURVE",
"370 -9 CURVE SMOOTH"
);
}
);
width = 740;
}
);
leftKerningGroup = U;
rightKerningGroup = U;
unicode = 1EE6;
},
{
glyphname = Uhorn;
lastChange = "2017-11-26 07:35:25 +0000";
layers = (
{
anchors = (
{
name = mark0;
position = "{370, 0}";
},
{
name = mark1;
position = "{0, 0}";
},
{
name = mark2;
position = "{370, 705}";
},
{
name = mark3;
position = "{0, 0}";
},
{
name = mark4;
position = "{0, 0}";
}
);
layerId = UUID0;
paths = (
{
closed = 1;
nodes = (
"653 826 LINE",
"653 806 LINE SMOOTH",
"653 731 OFFCURVE",
"630 705 OFFCURVE",
"563 705 CURVE SMOOTH",
"517 705 LINE",
"517 285 LINE SMOOTH",
"517 176 OFFCURVE",
"465 116 OFFCURVE",
"370 116 CURVE SMOOTH",
"274 116 OFFCURVE",
"223 175 OFFCURVE",
"223 285 CURVE SMOOTH",
"223 705 LINE",
"65 705 LINE",
"65 292 LINE SMOOTH",
"65 95 OFFCURVE",
"170 -9 OFFCURVE",
"370 -9 CURVE SMOOTH",
"568 -9 OFFCURVE",
"675 97 OFFCURVE",
"675 292 CURVE SMOOTH",
"675 636 LINE",
"743 653 OFFCURVE",
"787 710 OFFCURVE",
"787 787 CURVE SMOOTH",
"787 826 LINE"
);
}
);
width = 740;
}
);
leftKerningGroup = U;
rightKerningGroup = Uhorn;
unicode = 01AF;
},
{
glyphname = Uhornacute;
lastChange = "2017-11-26 07:35:25 +0000";
layers = (
{
anchors = (
{
name = mark0;
position = "{370, 0}";
},
{
name = mark1;
position = "{0, 0}";
},
{
name = mark2;
position = "{370, 865}";
},
{
name = mark3;
position = "{0, 0}";
},
{
name = mark4;
position = "{0, 0}";
}
);
layerId = UUID0;
paths = (
{
closed = 1;
nodes = (
"568 921 LINE",
"425 921 LINE",
"322 765 LINE",
"418 765 LINE"
);
},
{
closed = 1;
nodes = (
"653 826 LINE",
"653 806 LINE SMOOTH",
"653 731 OFFCURVE",
"630 705 OFFCURVE",
"563 705 CURVE SMOOTH",
"517 705 LINE",
"517 285 LINE SMOOTH",
"517 176 OFFCURVE",
"465 116 OFFCURVE",
"370 116 CURVE SMOOTH",
"274 116 OFFCURVE",
"223 175 OFFCURVE",
"223 285 CURVE SMOOTH",
"223 705 LINE",
"65 705 LINE",
"65 292 LINE SMOOTH",
"65 95 OFFCURVE",
"170 -9 OFFCURVE",
"370 -9 CURVE SMOOTH",
"568 -9 OFFCURVE",
"675 97 OFFCURVE",
"675 292 CURVE SMOOTH",
"675 636 LINE",
"743 653 OFFCURVE",
"787 710 OFFCURVE",
"787 787 CURVE SMOOTH",
"787 826 LINE"
);
}
);
width = 740;
}
);
leftKerningGroup = U;
rightKerningGroup = Uhorn;
unicode = 1EE8;
},
{
glyphname = Uhorndotbelow;
lastChange = "2017-11-26 07:35:25 +0000";
layers = (
{
anchors = (
{
name = mark0;
position = "{370, -170}";
},
{
name = mark1;
position = "{0, 0}";
},
{
name = mark2;
position = "{370, 705}";
},
{
name = mark3;
position = "{0, 0}";
},
{
name = mark4;
position = "{0, 0}";
}
);
layerId = UUID0;
paths = (
{
closed = 1;
nodes = (
"653 826 LINE",
"653 806 LINE SMOOTH",
"653 731 OFFCURVE",
"630 705 OFFCURVE",
"563 705 CURVE SMOOTH",
"517 705 LINE",
"517 285 LINE SMOOTH",
"517 176 OFFCURVE",
"465 116 OFFCURVE",
"370 116 CURVE SMOOTH",
"274 116 OFFCURVE",
"223 175 OFFCURVE",
"223 285 CURVE SMOOTH",
"223 705 LINE",
"65 705 LINE",
"65 292 LINE SMOOTH",
"65 95 OFFCURVE",
"170 -9 OFFCURVE",
"370 -9 CURVE SMOOTH",
"568 -9 OFFCURVE",
"675 97 OFFCURVE",
"675 292 CURVE SMOOTH",
"675 636 LINE",
"743 653 OFFCURVE",
"787 710 OFFCURVE",
"787 787 CURVE SMOOTH",
"787 826 LINE"
);
},
{
closed = 1;
nodes = (
"299 -200 LINE",
"441 -200 LINE",
"441 -65 LINE",
"299 -65 LINE"
);
}
);
width = 740;
}
);
leftKerningGroup = U;
rightKerningGroup = Uhorn;
unicode = 1EF0;
},
{
glyphname = Uhorngrave;
lastChange = "2017-11-26 07:35:25 +0000";
layers = (
{
anchors = (
{
name = mark0;
position = "{370, 0}";
},
{
name = mark1;
position = "{0, 0}";
},
{
name = mark2;
position = "{370, 865}";
},
{
name = mark3;
position = "{0, 0}";
},
{
name = mark4;
position = "{0, 0}";
}
);
layerId = UUID0;
paths = (
{
closed = 1;
nodes = (
"418 765 LINE",
"315 921 LINE",
"172 921 LINE",
"322 765 LINE"
);
},
{
closed = 1;
nodes = (
"653 826 LINE",
"653 806 LINE SMOOTH",
"653 731 OFFCURVE",
"630 705 OFFCURVE",
"563 705 CURVE SMOOTH",
"517 705 LINE",
"517 285 LINE SMOOTH",
"517 176 OFFCURVE",
"465 116 OFFCURVE",
"370 116 CURVE SMOOTH",
"274 116 OFFCURVE",
"223 175 OFFCURVE",
"223 285 CURVE SMOOTH",
"223 705 LINE",
"65 705 LINE",
"65 292 LINE SMOOTH",
"65 95 OFFCURVE",
"170 -9 OFFCURVE",
"370 -9 CURVE SMOOTH",
"568 -9 OFFCURVE",
"675 97 OFFCURVE",
"675 292 CURVE SMOOTH",
"675 636 LINE",
"743 653 OFFCURVE",
"787 710 OFFCURVE",
"787 787 CURVE SMOOTH",
"787 826 LINE"
);
}
);
width = 740;
}
);
leftKerningGroup = U;
rightKerningGroup = Uhorn;
unicode = 1EEA;
},
{
glyphname = Uhornhookabove;
lastChange = "2017-11-26 07:35:25 +0000";
layers = (
{
anchors = (
{
name = mark0;
position = "{370, 0}";
},
{
name = mark1;
position = "{0, 0}";
},
{
name = mark2;
position = "{370, 865}";
},
{
name = mark3;
position = "{0, 0}";
},
{
name = mark4;
position = "{0, 0}";
}
);
layerId = UUID0;
paths = (
{
closed = 1;
nodes = (
"389 865 OFFCURVE",
"397 858 OFFCURVE",
"397 849 CURVE SMOOTH",
"397 831 OFFCURVE",
"332 831 OFFCURVE",
"332 787 CURVE SMOOTH",
"332 765 LINE",
"408 765 LINE",
"408 778 LINE SMOOTH",
"408 812 OFFCURVE",
"491 809 OFFCURVE",
"491 861 CURVE SMOOTH",
"491 896 OFFCURVE",
"450 925 OFFCURVE",
"384 925 CURVE SMOOTH",
"343 925 OFFCURVE",
"313 917 OFFCURVE",
"288 907 CURVE",
"308 854 LINE",
"331 862 OFFCURVE",
"351 865 OFFCURVE",
"365 865 CURVE SMOOTH"
);
},
{
closed = 1;
nodes = (
"653 826 LINE",
"653 806 LINE SMOOTH",
"653 731 OFFCURVE",
"630 705 OFFCURVE",
"563 705 CURVE SMOOTH",
"517 705 LINE",
"517 285 LINE SMOOTH",
"517 176 OFFCURVE",
"465 116 OFFCURVE",
"370 116 CURVE SMOOTH",
"274 116 OFFCURVE",
"223 175 OFFCURVE",
"223 285 CURVE SMOOTH",
"223 705 LINE",
"65 705 LINE",
"65 292 LINE SMOOTH",
"65 95 OFFCURVE",
"170 -9 OFFCURVE",
"370 -9 CURVE SMOOTH",
"568 -9 OFFCURVE",
"675 97 OFFCURVE",
"675 292 CURVE SMOOTH",
"675 636 LINE",
"743 653 OFFCURVE",
"787 710 OFFCURVE",
"787 787 CURVE SMOOTH",
"787 826 LINE"
);
}
);
width = 740;
}
);
leftKerningGroup = U;
rightKerningGroup = Uhorn;
unicode = 1EEC;
},
{
glyphname = Uhorntilde;
lastChange = "2017-11-26 07:35:25 +0000";
layers = (
{
anchors = (
{
name = mark0;
position = "{370, 0}";
},
{
name = mark1;
position = "{0, 0}";
},
{
name = mark2;
position = "{370, 865}";
},
{
name = mark3;
position = "{0, 0}";
},
{
name = mark4;
position = "{0, 0}";
}
);
layerId = UUID0;
paths = (
{
closed = 1;
nodes = (
"341 820 OFFCURVE",
"384 768 OFFCURVE",
"435 768 CURVE SMOOTH",
"495 768 OFFCURVE",
"545 813 OFFCURVE",
"545 916 CURVE",
"479 916 LINE",
"476 885 OFFCURVE",
"461 867 OFFCURVE",
"437 867 CURVE SMOOTH",
"399 867 OFFCURVE",
"356 919 OFFCURVE",
"305 919 CURVE SMOOTH",
"245 919 OFFCURVE",
"195 874 OFFCURVE",
"195 771 CURVE",
"261 771 LINE",
"264 802 OFFCURVE",
"279 820 OFFCURVE",
"303 820 CURVE SMOOTH"
);
},
{
closed = 1;
nodes = (
"653 826 LINE",
"653 806 LINE SMOOTH",
"653 731 OFFCURVE",
"630 705 OFFCURVE",
"563 705 CURVE SMOOTH",
"517 705 LINE",
"517 285 LINE SMOOTH",
"517 176 OFFCURVE",
"465 116 OFFCURVE",
"370 116 CURVE SMOOTH",
"274 116 OFFCURVE",
"223 175 OFFCURVE",
"223 285 CURVE SMOOTH",
"223 705 LINE",
"65 705 LINE",
"65 292 LINE SMOOTH",
"65 95 OFFCURVE",
"170 -9 OFFCURVE",
"370 -9 CURVE SMOOTH",
"568 -9 OFFCURVE",
"675 97 OFFCURVE",
"675 292 CURVE SMOOTH",
"675 636 LINE",
"743 653 OFFCURVE",
"787 710 OFFCURVE",
"787 787 CURVE SMOOTH",
"787 826 LINE"
);
}
);
width = 740;
}
);
leftKerningGroup = U;
rightKerningGroup = Uhorn;
unicode = 1EEE;
},
